<?xml version="1.0" encoding="utf-8"?>
<!-- Generator: Adobe Illustrator 24.2.0, SVG Export Plug-In . SVG Version: 6.00 Build 0)  -->
<svg version="1.1" id="图层_1" xmlns="http://www.w3.org/2000/svg" xmlns:xlink="http://www.w3.org/1999/xlink" x="0px" y="0px"
	 viewBox="0 0 700 700" style="enable-background:new 0 0 700 700;" xml:space="preserve">
<style type="text/css">
	.st0{fill:#E5E6EB;}
	.st1{fill:#FFFFFF;}
	.st2{fill:#FFBD00;}
	.st3{fill:#FF654F;}
	.st4{fill:#050F64;}
	.st5{fill:#155BCD;}
	.st6{opacity:0;}
	.st7{fill:#EA8096;}
	.st8{fill:#84A9FF;}
	.st9{fill:#F5BDC8;}
	.st10{fill:#F5B48E;}
	.st11{fill:#3B7AA5;}
</style>
<g>
	<g>
		<path class="st0" d="M658,495.9c-11.1,31.5-29.1,60.7-52.8,84.3c-11.2,11.2-25.1,19-36.5,29.7c-3.8,3.6-6.9,7.5-10,11.3
			c-2.2,2.7-4.4,5.4-6.8,7.9H147.9c-7.2-2.2-14.3-4.9-21.1-7.9c-12.2-5.5-23.7-12.3-34.3-21C62.7,575.8,43.8,538.5,41.9,500
			c-1.9-38.5,13.2-77.5,40.6-104.7c20.2-20.1,45.9-33.4,71.2-46.4c24.5-12.6,49.1-25.2,73.6-37.8c18.5-9.5,37.2-19.1,57-25.3
			c14.1-4.4,29.8-7.8,39.3-19.2c13.4-16,8.4-40.2,15.1-60.1c7.5-22.2,29.1-36.8,51.1-45c58.3-21.8,126.7-8.5,177.1,27.9
			c50.5,36.4,83.7,93.8,97.6,154.5C676.1,394,675.1,447.4,658,495.9z"/>
	</g>
	<g>
		<path class="st1" d="M663.5,403.5c-37.9,7.8-68.4,36.4-90.2,68.4c-21.8,32-37,68-57.7,100.7c-5,7.9-10.5,16-11.3,25.3
			c-0.8,8.9,3.8,18.7,12.3,17.8c3.6-14.4,11.7-29.6,24.9-46.4c3.9-5,8-9.9,12-14.7c10.6-12.8,21.6-25.9,29.1-40.9
			c3.9-7.7,6.9-16,9.8-24.1c2-5.6,4.1-11.4,6.5-17c7.2-16.9,16.1-28.4,27.1-35.1c-10.5,6.4-17.7,19.7-24.7,36.1
			c-2.4,5.5-4.4,11.3-6.5,16.9c-2.9,8.1-6,16.5-9.9,24.3c-7.7,15.2-18.7,28.5-29.5,41.4c-4,4.8-8.1,9.7-11.9,14.6
			c-12.6,16.1-20.5,30.5-24.1,44.2c9.8-3.4,21.1-14.3,28.8-20.9c19.1-16.2,35-36.1,46.4-58.4c11.5-22.4,18.3-46.8,27.6-70.2
			C631.6,442.3,643.9,419.2,663.5,403.5z"/>
	</g>
	<g>
		<path class="st1" d="M102.3,441.6c29.3,6,52.9,28.1,69.7,52.8c16.9,24.7,28.6,52.5,44.6,77.8c3.9,6.1,8.1,12.4,8.7,19.6
			c0.6,6.8-3,14.5-9.5,13.8c-2.7-11.2-9-22.8-19.2-35.9c-3-3.8-6.2-7.7-9.3-11.4c-8.2-9.9-16.7-20.1-22.5-31.6
			c-3-6-5.3-12.4-7.6-18.6c-1.6-4.3-3.2-8.8-5-13.1c-5.6-13.1-12.4-21.9-20.9-27.1c8.1,5,13.7,15.3,19.1,27.9c1.8,4.3,3.4,8.7,5,13
			c2.3,6.3,4.6,12.7,7.7,18.8c5.9,11.8,14.5,22.1,22.8,32c3.1,3.7,6.2,7.5,9.2,11.3c9.7,12.4,15.8,23.6,18.6,34.2
			c-7.5-2.6-16.3-11-22.3-16.1c-14.7-12.5-27-27.9-35.8-45.1c-8.9-17.3-14.2-36.2-21.4-54.2C127,471.6,117.4,453.8,102.3,441.6z"/>
	</g>
	<g>
		<g>
			<path class="st1" d="M314.1,290.6l-20.5,2.4l12.9,3.2c-16.4,11.5-30.4,18.1-34.6,20c-3.2-11.5-4.9-22.2-5.3-32.1l7.2,5.9l-7-18.9
				c0.7-10.5,2.8-20,6.1-28.7l15.8,15.2l-9.3-29.3c3.7-6.7,8.1-12.7,12.9-18.2l12.1,16.6l0.2-28.7l0,0
				c30.3-26.4,67.8-35.3,67.8-35.3c1.4,9.1,1.9,17.7,1.5,25.9l-25.7,23.3l24.1-8.6c-1.2,6.9-3,13.5-5.3,19.8l-31.1,11.3l26.1,0.4
				c-4.7,9.6-10.4,18.3-16.8,26.1l-21.1,0.6l15.1,6.4C331,276.6,322.4,284.2,314.1,290.6z"/>
		</g>
	</g>
	<g>
		<g>
			<path class="st1" d="M85.8,544.9l-13.8,15.4l11.8-6.2c-4.6,19.5-10.7,33.7-12.6,37.9c-10-6.5-18.3-13.4-25.3-20.5l9.3-0.3
				l-17.8-9.5c-6.4-8.3-11.2-16.9-14.5-25.5l21.9,0.9l-26.4-15.7c-1.6-7.5-2.4-14.9-2.4-22.2l20,4.4l-18.9-21.6l0,0
				c5.2-39.9,27.3-71.3,27.3-71.3c7.1,5.8,13.1,12,18.3,18.4l-3.8,34.5l12.3-22.4c3.7,6,6.7,12.1,9.1,18.4l-15.8,29.1l19.8-17
				c2.8,10.3,4.3,20.6,4.8,30.7l-15.4,14.4l15.6-5.2C89.1,523.2,87.8,534.6,85.8,544.9z"/>
		</g>
	</g>
	<g>
		<g>
			<path class="st1" d="M350.6,445.3c-0.4,1.5-0.6,2.9-0.4,4.4c0.5,5.7,7.3,13.5,12.7,15.2c4.3,1.4,9.1,0.2,13-2.2
				c3.9-2.4,7-5.8,10-9.1c-6.8-0.3-13.5-2.7-19-6.7c-1.6-1.2-3.2-2.6-4-4.5c-0.7-1.9-0.3-4.4,1.4-5.5c1.6-1.1,3.9-0.6,5.5,0.5
				c1.6,1.1,2.9,2.6,4.5,3.8c3.2,2.4,7.5,3.2,11.3,2c3.8-1.1,7-4.2,8.3-7.9c-8.4,2-17.9-3.2-20.9-11.3c2.2-1.2,4.9-0.5,7.2,0.6
				c2.2,1.1,4.3,2.7,6.7,3.3c3.4,0.9,7.3-0.3,9.6-3c2.3-2.7,2.9-6.7,1.4-10c-2.4-0.2-4.7,0.7-6.9,1.4c-2.3,0.7-4.8,1.3-7,0.3
				c-2.2-1-3.5-4-1.9-5.8c1.6-1.9,4.6-1,7-1.8c2.9-1,4.4-4.5,3.9-7.6c-0.4-3.1-2.2-5.8-4-8.3c-2.9-1-6-2.1-9-1.8
				c-3.1,0.4-6.2,2.6-6.4,5.7c-0.2,2.4,1.4,5.2,0,7.2c-1.3,2-4.6,1.4-6.1-0.4c-1.5-1.9-1.6-4.4-1.4-6.8c0.1-2.4,0.5-4.8-0.4-7.1
				c-3.5-0.6-7.3,1-9.3,3.9c-2,2.9-2.2,7-0.5,10.1c1.2,2.2,3.2,3.8,4.9,5.6c1.6,1.9,3,4.4,2.4,6.8c-8.6-0.9-15.9-8.8-16.1-17.4
				c-3.3,2.2-5.4,6.1-5.6,10c-0.2,4,1.7,8,4.8,10.4c1.5,1.2,3.3,2.1,4.8,3.4c1.4,1.3,2.5,3.4,1.8,5.2c-0.7,1.9-2.9,2.9-5,2.7
				c-2-0.2-3.8-1.4-5.4-2.7c-5.3-4.3-9.2-10.2-11.2-16.7c-2.5,3.8-5,7.7-6.3,12c-1.3,4.3-1.3,9.3,1.1,13.2c3,4.8,12.2,9.5,17.9,8.5
				c0.8-0.1,1.5-0.3,2.2-0.6c-7.9,9-14,20.8-18.2,35c-3.3,11.2-5.4,23.8-6.3,37.4c-16.2-41.7-25.7-53.4-54.9-84.1
				c1.4,0.6,2.8,1,4.3,1.2c7.4,0.9,19-5.6,22.6-12c2.9-5.1,2.6-11.5,0.7-17c-1.9-5.5-5.4-10.4-8.8-15.1c-2.2,8.5-7,16.3-13.5,22.2
				c-2,1.8-4.2,3.4-6.8,3.8c-2.6,0.4-5.6-0.7-6.6-3.2c-0.9-2.4,0.3-5,2.1-6.8c1.8-1.8,4.1-3,6-4.7c3.9-3.4,6-8.6,5.6-13.7
				c-0.4-5.1-3.4-9.9-7.8-12.6c0.2,11.2-8.8,21.8-19.9,23.4c-0.9-3.1,0.7-6.4,2.7-8.9c2-2.5,4.5-4.7,6-7.6c2.1-4.1,1.6-9.3-1.2-12.9
				c-2.8-3.6-7.7-5.4-12.2-4.5c-0.9,2.9-0.4,6.1-0.1,9.1c0.3,3,0.3,6.4-1.4,8.9c-1.8,2.5-6,3.4-7.9,0.9c-1.9-2.5-0.1-6.1-0.4-9.3
				c-0.4-4-4.6-6.7-8.6-7c-4-0.3-7.9,1.3-11.6,2.8c-2.1,3.4-4.3,7-4.6,11c-0.4,4,1.7,8.5,5.5,9.6c3.1,0.9,6.9-0.4,9.1,1.9
				c2.1,2.2,0.6,6.2-2.2,7.6c-2.8,1.3-6,0.8-9,0c-3-0.8-6-1.9-9-1.4c-1.7,4.3-0.7,9.4,2.4,12.8c3.1,3.3,8.2,4.7,12.6,3.3
				c3.1-1,5.6-3.1,8.4-4.6c2.8-1.6,6.3-2.6,9.2-1.2c-3.4,10.7-15.3,17.8-26.3,15.7c1.9,4.8,6.2,8.5,11.2,9.7c5,1.3,10.5,0,14.5-3.2
				c1.9-1.6,3.5-3.6,5.6-5.1c2.1-1.5,4.9-2.2,7.1-0.9c2.3,1.3,2.9,4.5,2.1,7c-0.8,2.5-2.8,4.4-4.9,6.1c-6.9,5.5-15.4,8.9-24.1,9.7
				c4.1,4.2,8.3,8.4,13.5,11.2c5.1,2.8,11.4,4.1,16.9,2.1c6.9-2.5,15.2-12.9,15.6-20.3c0.1-2.3-0.4-4.6-1.2-6.9
				c32.2,33.7,40.8,44.2,59.2,93.3c0,1.3,0,2.6,0,3.9l1.5,0c0.1,0.3,0.2,0.6,0.3,0.9l3.7-1.4c-0.5-1.4-1-2.8-1.5-4.1
				C325.8,503.3,330.1,467.3,350.6,445.3z"/>
		</g>
		<g>
			<path class="st1" d="M419,478.7c-1.8-1.2-4.4-1.3-5.9,0.2c-1.2,1.2-1.6,3.3-3.2,3.8c-1.6,0.4-3.1-1.3-3-2.9
				c0.1-1.6,1.1-3,2.3-4.2c1.1-1.2,2.4-2.3,2.9-3.9c-1.6-1.8-4.3-2.7-6.6-2.1c-2.3,0.6-4.3,2.7-4.7,5.1c-0.3,1.7,0,3.4,0.1,5.1
				c0,1.7-0.4,3.6-1.7,4.6c-4.2-4.3-4.5-11.7-0.8-16.3c-2.7-0.3-5.5,0.8-7.4,2.8c-1.8,2-2.6,4.9-2.1,7.6c0.3,1.3,0.8,2.6,1,3.9
				c0.2,1.3-0.2,2.9-1.3,3.6c-1.2,0.7-2.8,0.2-3.8-0.8c-1-1-1.4-2.4-1.6-3.8c-0.9-4.6-0.3-9.4,1.5-13.8c-3,0.9-6,1.8-8.6,3.5
				c-2.6,1.7-4.8,4.3-5.2,7.4c-0.5,3.9,2.2,10.4,5.6,12.4c0.4,0.2,0.8,0.4,1.3,0.6c-22.9,5.8-47,16.1-50.2,39.7l3.9,0.5
				c2.8-21.2,25.1-30.7,46.6-36.3c-0.2,0.2-0.4,0.4-0.5,0.7c-2.3,3.2-2.1,10.3,0,13.6c1.7,2.6,4.7,4.1,7.8,4.6
				c3.1,0.5,6.2,0.1,9.3-0.4c-3.4-3.2-5.9-7.4-7.1-11.9c-0.3-1.4-0.5-2.8-0.1-4.1c0.5-1.3,1.7-2.4,3.1-2.3c1.3,0.2,2.3,1.4,2.7,2.7
				c0.4,1.3,0.4,2.7,0.7,4c0.6,2.7,2.5,5,5,6.1c2.5,1.1,5.5,0.9,7.9-0.5c-5.3-2.7-8-9.6-6-15.2c1.7,0.3,2.8,1.9,3.5,3.5
				c0.7,1.6,1.1,3.3,2.1,4.7c1.4,2,4,3.1,6.4,2.7c2.4-0.4,4.5-2.3,5.2-4.6c-1.1-1.2-2.8-1.7-4.3-2.3c-1.5-0.6-3.1-1.4-3.8-2.9
				c-0.7-1.5-0.1-3.7,1.5-3.9c1.7-0.3,2.9,1.5,4.5,2.1c2,0.8,4.3-0.5,5.4-2.3c1.1-1.8,1.4-4,1.6-6.1
				C421.9,481.8,420.7,479.9,419,478.7z"/>
		</g>
		<g>
			<path class="st1" d="M250,485.6L207,473c0.1,2.4,0.2,4.9,1.3,7c1.1,2.1,3.6,3.7,5.9,3c1.8-0.6,3.3-2.4,5.2-2
				c1.8,0.4,2.3,2.9,1.4,4.5c-0.9,1.6-2.7,2.4-4.5,2.9c-1.7,0.6-3.6,1-5,2.2c0.6,2.7,2.7,4.9,5.4,5.6c2.6,0.6,5.6-0.3,7.3-2.5
				c1.2-1.5,1.8-3.4,2.7-5.1c0.9-1.7,2.3-3.4,4.2-3.6c1.8,6.4-1.8,13.9-7.9,16.5c2.5,1.7,5.9,2.2,8.7,1.2c2.9-1,5.2-3.4,6.1-6.4
				c0.4-1.4,0.6-3,1.1-4.4c0.6-1.4,1.7-2.7,3.2-2.8c1.6-0.1,2.9,1.3,3.3,2.8c0.4,1.5,0,3.1-0.4,4.6c-1.6,5-4.7,9.5-8.8,12.7
				c3.4,0.7,6.9,1.4,10.4,1.2c3.5-0.3,7-1.7,9.1-4.5c2.3-3.2,3.2-9.9,1.7-14c22.2,7.6,46.7,22.7,52.8,44.6l3.8-1.1
				C306.6,509.2,275.1,492.2,250,485.6z"/>
		</g>
	</g>
	<g>
		<g>
			<path class="st1" d="M536.8,383.9c-46-25.1-59.3-27.5-105.8-32c2.1,1.2,4,2.6,5.4,4.4c4.6,5.8,5.1,19.1,1.5,25.5
				c-2.8,5.1-8.5,8.2-14.2,9.5c-5.7,1.2-11.7,0.8-17.5,0.3c6.1-6.3,10.3-14.5,12-23.1c0.5-2.6,0.7-5.3-0.3-7.8
				c-1-2.4-3.5-4.4-6.1-3.9c-2.5,0.4-4.1,2.9-4.8,5.3c-0.6,2.4-0.5,5-0.9,7.5c-0.9,5.1-4.2,9.6-8.8,11.9c-4.6,2.3-10.3,2.3-14.8-0.1
				c9.7-5.6,14.1-18.8,9.7-29.1c-3.1,0.8-5.1,3.9-6.2,6.9c-1.1,3-1.7,6.3-3.4,9c-2.4,3.9-7.2,6.2-11.7,5.7
				c-4.5-0.5-8.7-3.8-10.2-8.1c2-2.3,5-3.5,7.8-4.8c2.8-1.3,5.6-3,6.8-5.8c1.2-2.8-0.3-6.9-3.3-7.2c-3.2-0.3-5.3,3.1-8.1,4.5
				c-3.6,1.7-8.1-0.4-10.4-3.7c-2.3-3.3-3-7.4-3.6-11.3c1.8-3.6,3.7-7.3,6.9-9.7c3.2-2.4,8.1-3,11.1-0.3c2.3,2.1,3.3,6.1,6.4,6.8
				c3,0.6,5.6-2.8,5.4-5.8c-0.3-3.1-2.5-5.6-4.7-7.7c-2.2-2.1-4.7-4.1-5.9-7c2.8-3.6,7.7-5.5,12.2-4.6c4.5,0.9,8.3,4.6,9.4,9
				c0.8,3.1,0.3,6.4,0.4,9.6c0.1,3.2,1.1,6.7,3.8,8.5c7.3-8.4,7.2-22.4-0.2-30.7c5.1-0.8,10.5,0.9,14.1,4.5c3.7,3.6,5.5,9,4.7,14
				c-0.4,2.5-1.3,4.9-1.5,7.4c-0.2,2.5,0.7,5.4,2.9,6.5c2.3,1.2,5.4,0.1,7-1.9c1.7-2,2.3-4.7,2.6-7.3c1.1-8.7-0.4-17.8-4.3-25.6
				c5.7,1.4,11.5,2.8,16.6,5.7c5.1,2.9,9.5,7.6,10.6,13.4c1.4,7.2-3.1,19.7-9.3,23.8c-1.2,0.8-2.6,1.4-4,1.9
				c42.2,4.2,57,6.8,96.5,27.8L536.8,383.9z"/>
		</g>
		<g>
			<path class="st1" d="M455.8,399.2l-40.8,18.5c1.6,1.8,3.3,3.6,5.5,4.4c2.2,0.9,5.1,0.4,6.4-1.6c1-1.6,0.9-4,2.6-4.9
				c1.6-0.8,3.7,0.7,4,2.5c0.3,1.8-0.5,3.6-1.5,5.1c-1,1.6-2.1,3.1-2.3,4.9c2.2,1.7,5.3,1.9,7.7,0.7c2.4-1.2,4-3.9,4-6.7
				c0-1.9-0.8-3.7-1.3-5.6c-0.4-1.9-0.5-4,0.8-5.5c5.6,3.7,7.7,11.7,4.7,17.7c3-0.3,5.9-2.2,7.4-4.8c1.5-2.6,1.7-6,0.5-8.8
				c-0.6-1.4-1.5-2.6-2-4c-0.5-1.4-0.5-3.2,0.6-4.2c1.1-1.1,3-0.9,4.3,0c1.3,0.9,2.1,2.3,2.7,3.8c2,4.8,2.6,10.3,1.6,15.4
				c3.1-1.7,6.2-3.4,8.6-5.9c2.5-2.5,4.2-5.9,4-9.3c-0.3-3.9-4.1-9.6-7.9-11.7c21.8-8.8,50.2-13.3,69.1-0.7l2.2-3.3
				C514.1,380.1,479.2,387.9,455.8,399.2z"/>
		</g>
	</g>
	<g>
		<g>
			<path class="st2" d="M320.2,612.6c0,0.2,0,0.4,0,0.6c-0.3,4.5-4,8.1-8.6,8.1H192.5c-4.8,0-8.6-3.9-8.6-8.6V493.5
				c0-4.8,3.9-8.6,8.6-8.6h32.7c-0.9-2.8-1.4-5.7-1.4-8.8c0-15.6,12.6-28.2,28.2-28.2c15.6,0,28.2,12.6,28.2,28.2
				c0,3.1-0.5,6-1.4,8.8h32.7c4.6,0,8.3,3.6,8.6,8.1c0,0.2,0,0.4,0,0.6v32.7c-2.8-0.9-5.7-1.4-8.8-1.4c-15.6,0-28.2,12.6-28.2,28.2
				c0,15.6,12.6,28.2,28.2,28.2c3.1,0,6-0.5,8.8-1.4V612.6z"/>
		</g>
		<g>
			<path class="st3" d="M320.2,493.5v32.8c0,0,0,0,0,0L320.2,493.5c0-0.2,0-0.4,0-0.6C320.2,493.1,320.2,493.3,320.2,493.5z"/>
		</g>
		<g>
			<path class="st3" d="M320.2,579.8C320.2,579.8,320.2,579.8,320.2,579.8l0,32.7c0,0.2,0,0.4,0,0.6c0-0.2,0-0.4,0-0.6V579.8z"/>
		</g>
	</g>
	<g>
		<g>
			<g>
				<g>
					<polygon class="st4" points="514.8,584 514.5,584.2 558,603.5 564.2,606.2 597.8,621.2 585.6,621.2 558,609 551.9,606.2 
						502.3,584.2 502.6,584 551.9,562.1 558,559.4 601.6,540 558,520.7 551.9,518 502.3,495.9 551.9,473.8 558,471.1 601.6,451.7 
						558,432.4 551.9,429.7 507.4,409.9 507.7,409.2 509.4,405.3 518,409.2 558,427 564.2,429.7 613.8,451.7 564.2,473.8 558,476.5 
						514.5,495.9 558,515.2 564.2,518 613.8,540 564.2,562.1 558,564.8 					"/>
				</g>
			</g>
			<g>
				<g>
					<polygon class="st4" points="613.5,584 613.8,584.2 564.2,606.2 558,609 530.5,621.2 518.3,621.2 551.9,606.2 558,603.5 
						601.6,584.2 601.3,584 558,564.8 551.9,562.1 502.3,540 551.9,518 558,515.2 601.6,495.9 558,476.5 551.9,473.8 502.3,451.7 
						551.9,429.7 558,427 598,409.2 606.7,405.3 608.4,409.2 608.7,409.9 564.2,429.7 558,432.4 514.5,451.7 558,471.1 564.2,473.8 
						613.8,495.9 564.2,518 558,520.7 514.5,540 558,559.4 564.2,562.1 					"/>
				</g>
			</g>
		</g>
		<g>
			<rect x="487.2" y="584" class="st5" width="141.6" height="37.2"/>
		</g>
		<g>
			<rect x="487.2" y="386.2" class="st5" width="141.6" height="22.9"/>
		</g>
	</g>
	<g>
		<g>
			<path class="st4" d="M538.5,377.5l-17.3,8.7c-0.3-0.6-0.5-1.2-0.3-1.9c0.1-0.7,0.7-1.3,1.3-1.8c0.6-0.4,1.3-0.8,1.9-1.1
				c1.6-0.9,3-2.2,4-3.7c0.5-0.8,1-1.7,1.6-2.4l4.8-2.3c1,0.4,1.9,1.1,2.5,1.9C537.6,375.8,538.1,376.6,538.5,377.5z"/>
		</g>
		<g>
			<path class="st4" d="M555.4,386.2h-19.3c0-0.7,0.1-1.3,0.5-1.8c0.5-0.6,1.2-0.9,1.9-1c0.7-0.1,1.5-0.1,2.2-0.1
				c1.8-0.1,3.6-0.6,5.2-1.5c0.8-0.5,1.6-1,2.5-1.4l5.3,0.1c0.7,0.8,1.2,1.8,1.4,2.8C555.4,384.3,555.5,385.3,555.4,386.2z"/>
		</g>
		<g>
			<g>
				<polygon class="st4" points="547.1,319.8 547.1,319.8 547.1,319.8 				"/>
			</g>
			<g class="st6">
				<polygon class="st4" points="544.6,279.4 544.6,279.4 544.6,279.4 544.6,279.4 				"/>
			</g>
			<g>
				<g>
					<polygon class="st4" points="547.1,319.8 547.1,319.8 547.1,319.8 					"/>
				</g>
				<g>
					<polygon class="st4" points="547.1,319.8 547.1,319.8 547.1,319.8 					"/>
				</g>
				<g>
					<path class="st4" d="M503.9,321.8l25.1,53.9l6.3-2.6l-16-50.2l12.9-20.4l14.8,78.3h7.4l-0.5-100c0.1-1-41.3-3.4-41.3-3.4
						l-9.1,40.7h0C503.3,319.3,503.4,320.6,503.9,321.8z M547.1,319.8C547.1,319.8,547.1,319.8,547.1,319.8
						C547.1,319.8,547.1,319.8,547.1,319.8L547.1,319.8z"/>
				</g>
				<g class="st6">
					<polygon class="st4" points="547.1,319.8 547.1,319.8 547.1,319.8 					"/>
				</g>
			</g>
		</g>
		<g>
			<g>
				<path class="st7" d="M462.1,234c2.8-0.2,5.5-0.2,8.2-0.3c0.7,0,1.3-0.1,2-0.1c0.7,0,1.3-0.1,2-0.1l2-0.2l1-0.1l1-0.1
					c5.3-0.6,10.4-1.6,15.5-3c2.5-0.8,5-1.5,7.5-2.4l1.8-0.7c0.3-0.1,0.6-0.2,0.9-0.3l0.9-0.4l3.6-1.5c0.3-0.1,0.6-0.2,0.9-0.4
					l0.9-0.4l1.8-0.8l1.8-0.8l0.9-0.4l0.4-0.2l0.4-0.2l3.5-1.8c1.2-0.6,2.3-1.2,3.5-1.9c1.5-0.8,3.2-0.8,4.7-0.2
					c1.6,0.6,3,1.9,3.8,3.6c0.9,1.7,1,3.6,0.4,5.2c-0.5,1.6-1.7,3-3.4,3.7c-1.3,0.5-2.7,1-4,1.4l-4,1.4l-0.5,0.2l-0.5,0.2l-1,0.3
					l-2,0.6l-2,0.6l-1,0.3c-0.3,0.1-0.7,0.2-1,0.3l-4.1,1l-1,0.3c-0.3,0.1-0.7,0.1-1,0.2l-2.1,0.4c-2.8,0.6-5.6,1-8.4,1.4
					c-5.6,0.7-11.3,1-16.9,0.8l-1.1,0l-1.1-0.1l-2.1-0.1c-0.7,0-1.4-0.1-2.1-0.2c-0.7-0.1-1.4-0.1-2.1-0.2c-2.8-0.3-5.5-0.7-8.1-0.9
					c-0.9-0.1-1.6-0.9-1.6-1.9l0,0C460.4,234.9,461.1,234,462.1,234z"/>
			</g>
			<g>
				<path class="st8" d="M510.2,241.5l16.3-7.5c4.9-2.3,7.4-7.8,5.1-12.8l0,0c-2.3-4.9-8.4-7.3-13.3-5.1l-16.3,7.5L510.2,241.5z"/>
			</g>
		</g>
		<g>
			<path class="st8" d="M537.7,210.2L537.7,210.2c-10.5-1.7-20.1,5.9-21,16.5l-4.1,50.6c16.2,9.4,26.4,7.2,41.6,3.4l2.1-47.6
				C556.8,221.9,548.8,212,537.7,210.2z"/>
		</g>
		<g>
			<path class="st1" d="M552.9,220.4c1.2,2,2.2,4.1,2.7,6.5l0.5-0.2c-0.6-2.3-1.5-4.5-2.8-6.5L552.9,220.4z M550.4,281.7l0.1,0.6
				c1.2-0.3,2.5-0.6,3.8-0.9l0.4-0.1l0.6-12.4l-0.6-0.1l-0.5,12.1C552.9,281.1,551.6,281.4,550.4,281.7z M512,277.7l0.3,0.2
				c3.1,1.8,6,3.2,8.9,4.2l0.1-0.6c-2.7-1-5.6-2.4-8.7-4.2l2.4-29.7l-0.6,0L512,277.7z M539.3,283.8c-1.5,0.2-2.9,0.2-4.4,0.2v0.6
				c1.5,0,3.1-0.1,4.6-0.3L539.3,283.8z M555.4,252.8h0.6l0.5-11.4l-0.6,0.1L555.4,252.8z M515.4,235.7l0.6,0.1l0.7-9.1
				c0.7-9.6,8.7-16.7,18-16.7c0.5,0,0.9,0,1.4,0.1v-0.6c-0.4,0-0.8,0-1.2-0.1c-9.8-0.1-18,7.5-18.8,17.3L515.4,235.7z"/>
		</g>
		<g>
			<g>
				<path class="st3" d="M512.7,200.7l34.1,114.1c1.4,4.6-1.2,9.4-5.8,10.7l-31.4,9.4c1.7,2.4,3,5.1,3.8,8
					c4.5,14.9-4,30.6-18.9,35.1c-14.9,4.5-30.6-4-35.1-18.9c-0.9-2.9-1.3-5.9-1.2-8.8l-31.4,9.4c-4.4,1.3-9-1-10.6-5.3
					c0-0.2-0.1-0.4-0.1-0.5l-9.4-31.4c2.9,0.1,5.9-0.3,8.8-1.2c14.9-4.5,23.4-20.2,18.9-35.1c-4.5-14.9-20.2-23.4-35.1-18.9
					c-2.9,0.9-5.6,2.2-8,3.8l-9.4-31.4c-0.1-0.2-0.1-0.4-0.2-0.5c-1-4.4,1.6-8.9,5.9-10.2l114.1-34.1
					C506.5,193.5,511.3,196.1,512.7,200.7z"/>
			</g>
			<g>
				<path class="st5" d="M382.1,239.7l9.4,31.4c0,0,0,0,0,0L382.1,239.7c-0.1-0.2-0.1-0.4-0.2-0.5
					C382,239.4,382.1,239.6,382.1,239.7z"/>
			</g>
			<g>
				<path class="st5" d="M406.8,322.4C406.8,322.4,406.8,322.4,406.8,322.4l9.4,31.4c0.1,0.2,0.1,0.4,0.1,0.5
					c-0.1-0.2-0.1-0.4-0.2-0.5L406.8,322.4z"/>
			</g>
		</g>
		<g>
			<g>
				<path class="st9" d="M500.2,244.9c0.8-0.6,2-0.4,2.6,0.3c1.9,2.2,3.8,4.4,5.9,6.4c1,1,2.1,2,3.1,2.9c1.1,0.9,2.2,1.7,3.3,2.4
					c1.1,0.7,2.3,1.3,3.4,1.7c0.3,0.1,0.6,0.2,0.8,0.3l0.4,0.1l0.2,0.1l0.2,0c0.5,0.1,1,0.1,1.5,0.1c0.5,0,0.9-0.1,1.4-0.2
					c0.4-0.1,0.8-0.3,1.3-0.5c0.4-0.2,0.8-0.5,1.2-0.8c0.4-0.3,0.8-0.7,1.2-1.1c0.8-0.8,1.5-1.7,2.2-2.8c0.7-1,1.3-2.2,1.9-3.4
					c1.2-2.4,2.3-5,3.2-7.6c0.9-2.6,1.8-5.4,2.6-8.1c0.8-2.8,1.5-5.6,2.2-8.4c0.5-1.8,1.7-3.2,3.2-4c1.5-0.8,3.4-1.1,5.3-0.6
					c1.9,0.5,3.3,1.8,4.1,3.4c0.8,1.6,1,3.5,0.3,5.3c-1.1,2.8-2.3,5.7-3.5,8.5c-1.2,2.8-2.6,5.6-4,8.4c-1.5,2.8-3,5.6-4.9,8.3
					c-0.9,1.3-2,2.7-3.1,4c-1.1,1.3-2.4,2.5-3.9,3.7c-0.7,0.6-1.5,1.1-2.4,1.6c-0.9,0.5-1.8,0.9-2.8,1.2c-1,0.3-2,0.5-3,0.6
					c-1,0.1-2.1,0.1-3.1-0.1c-1-0.1-2-0.4-2.9-0.7l-0.3-0.1l-0.3-0.1l-0.6-0.3c-0.4-0.2-0.8-0.4-1.2-0.6c-1.6-0.8-3-1.9-4.2-2.9
					c-1.3-1.1-2.4-2.2-3.5-3.4c-1.1-1.2-2.1-2.4-3-3.6c-1.9-2.4-3.6-5-5.2-7.5C499.1,246.7,499.4,245.5,500.2,244.9z"/>
			</g>
			<g>
				<path class="st8" d="M547.9,251.1l5.5-17c1.7-5.2-0.8-10.7-5.9-12.4l0,0c-5.2-1.7-11.1,1.2-12.8,6.3l-5.5,17L547.9,251.1z"/>
			</g>
			<g>
				<path class="st1" d="M533.7,229.6c0.2,0,0.3,0.1,0.5,0.1l0.5-1.7c0.2-0.6,0.4-1.2,0.7-1.7l-0.4-0.3c-0.3,0.6-0.6,1.2-0.8,1.8
					L533.7,229.6z M543.6,250.3l4.7,1.5l1.7-5.2l-0.5-0.3l-1.5,4.8l-4.2-1.4L543.6,250.3z M552.5,237l-2,6.2l0.5,0.1l2.1-6.4
					L552.5,237z M539.1,222.1l0.5,0.3c2.4-1.2,5.3-1.6,7.9-0.7c2.2,0.7,3.9,2.2,5,4l0.4-0.4c-1.2-2-3-3.4-5.3-4.1
					c-1.4-0.5-2.9-0.6-4.5-0.4C541.7,220.9,540.3,221.4,539.1,222.1z M530.1,240.7l0.4,0.3l1.4-4.3l-0.5-0.2L530.1,240.7z
					 M534.5,247.3l4.3,1.4l0.1-0.5l-4.2-1.4L534.5,247.3z"/>
			</g>
		</g>
		<g>
			<g>
				<g>
					<path class="st9" d="M527.9,206l3.2,12.6c3.2,1.1,5.9,0.4,8.2-2.1l-3.2-12.6L527.9,206z"/>
				</g>
				<g>
					<path class="st7" d="M527.9,206l1.5,5.7c0.6,0.1,1.3,0.1,1.9-0.1c0.2,0,0.4-0.1,0.6-0.1c2.3-0.6,4.1-2.2,5-4.2l-0.9-3.4
						L527.9,206z"/>
				</g>
				<g>
					<path class="st9" d="M522.2,199.3l1.6,5.2l0.6,2.1c0.9,2.9,3.8,4.7,6.8,4.2c1-0.2,1.9-0.6,2.7-1.1c0.2-0.1,0.4-0.3,0.5-0.4
						c0.1-0.1,0.2-0.2,0.3-0.3c1-0.9,1.6-2.1,1.9-3.5c0.2-1.1,0.4-2.4,0.5-3.7c0.1-0.7,0.1-1.5,0.2-2.3c0.3-3.4-1.3-6.7-4.2-8.5
						c-2.5-1.5-5.1-1.5-7.8,0.1C522.6,192.8,521.3,196.2,522.2,199.3z"/>
				</g>
				<g>
					<path class="st4" d="M533.3,199.9l-1-0.3c0,0,1.1-4.1,0.3-5.3c-1.2-1.7-5.9-1.2-8.1-0.3c-0.7,0.3-1.2,0.7-1.4,1.4
						c-0.3,1.6-0.5,4.8,0.3,7.7c0,0-4.7-8.5-2.5-13.7c1.4-3.4,2.8-5.9,7.2-4.7c7.1,2,11.5,6.8,11.5,14.8l-4.6-1L533.3,199.9z"/>
				</g>
			</g>
			<g>
				
					<ellipse transform="matrix(0.9684 -0.2496 0.2496 0.9684 -32.8654 140.1707)" class="st9" cx="536.4" cy="199.7" rx="3.2" ry="2.8"/>
			</g>
		</g>
	</g>
	<g>
		<g>
			<g>
				<g>
					<path class="st7" d="M142.1,414.5c-0.4,1-0.2,2,0.4,2.4c2,1.2,3.9,2.6,5.4,4.2c0.8,0.8,1.4,1.6,2,2.4l0.2,0.3l0.2,0.3
						c0.1,0.2,0.2,0.4,0.3,0.6c0.2,0.4,0.3,0.8,0.4,1.2c0.1,0.4,0.1,0.8,0.1,1.2c0,0.4,0,0.7-0.1,1.1c0,0.2-0.1,0.4-0.1,0.5
						c-0.1,0.2-0.1,0.4-0.2,0.5c-0.1,0.4-0.4,0.7-0.6,1.1c-0.5,0.7-1,1.4-1.7,2.1c-0.7,0.7-1.5,1.4-2.3,2c-1.7,1.3-3.6,2.4-5.6,3.4
						c-1,0.5-2,1-3.1,1.5c-1,0.5-2.1,0.9-3.2,1.3c-4.3,1.7-8.8,3-13.4,4.2c-1.4,0.4-2.5,1.6-3.1,3.1c-0.6,1.5-0.6,3.4,0,5.3v0
						c0.6,1.9,1.8,3.4,3.2,4.3c1.4,0.9,3.1,1.1,4.6,0.5c4.7-2.1,9.3-4.4,13.8-7.1c1.1-0.7,2.2-1.4,3.3-2.1c1.1-0.7,2.2-1.5,3.3-2.3
						c2.1-1.6,4.2-3.4,6.2-5.4c1-1,1.9-2.1,2.7-3.4c0.8-1.2,1.6-2.6,2.2-4.1c0.3-0.8,0.5-1.5,0.7-2.4c0.1-0.4,0.2-0.8,0.2-1.2
						c0-0.4,0.1-0.9,0.1-1.3c0-1.7-0.3-3.5-1-5c-0.3-0.8-0.7-1.5-1.2-2.1c-0.2-0.3-0.4-0.6-0.7-0.9l-0.4-0.4l-0.4-0.4
						c-1-1.1-2.1-2-3.2-2.8c-2.2-1.6-4.6-2.7-7-3.7C143.5,413,142.5,413.5,142.1,414.5z"/>
				</g>
				<g>
					<path class="st3" d="M120.3,444.7c4-1.1,8-2.3,11.8-3.8c1.9-0.7,3.8-1.5,5.6-2.4c1.8-0.8,3.5-1.8,5.2-2.8
						c1.6-1,3.1-2.1,4.3-3.3c1.2-1.2,2.2-2.4,2.6-3.5c0.2-0.6,0.4-1.1,0.4-1.6c0-0.5-0.1-1.1-0.3-1.8c-0.4-1.3-1.5-2.7-2.8-3.9
						l4.5-5.5c1,0.7,2,1.6,3,2.5c0.9,1,1.8,2.1,2.6,3.4c0.7,1.3,1.3,2.8,1.5,4.4c0.2,1.6,0.1,3.3-0.2,4.8c-0.3,1.5-0.9,2.9-1.6,4.2
						c-0.7,1.3-1.4,2.4-2.3,3.5c-1.6,2.1-3.5,3.8-5.3,5.4c-1.9,1.6-3.8,3-5.8,4.3c-2,1.3-4,2.5-6,3.6c-4.1,2.2-8.2,4.2-12.4,6
						c-1.4,0.6-2.9,0.3-4.3-0.7c-1.3-1-2.5-2.5-3.1-4.5h0c-0.6-2-0.6-3.9-0.2-5.5C118.1,446.2,119,445.1,120.3,444.7z"/>
				</g>
			</g>
		</g>
		<g>
			<path class="st5" d="M182.2,280.9c14.7,5.1,22.5,21.2,17.4,35.9c-1,2.9-2.4,5.5-4.2,7.8c0,0,0,0,0,0l30.9,10.7
				c0.2,0.1,0.4,0.1,0.5,0.2c4.2,1.7,6.3,6.5,4.8,10.8l-10.7,30.9c-2.3-1.8-4.9-3.2-7.8-4.2c-14.7-5.1-30.8,2.7-35.9,17.4
				c-5.1,14.7,2.7,30.8,17.4,35.9c2.9,1,5.8,1.5,8.7,1.6l-10.7,30.9c-1.6,4.5-6.5,6.9-11,5.3L69.1,425c-4.5-1.6-6.9-6.5-5.3-11
				l39-112.5c1.5-4.3,6.1-6.7,10.4-5.5c0.2,0.1,0.3,0.1,0.5,0.2l30.9,10.7c0,0,0,0,0,0c0.1-2.9,0.6-5.8,1.6-8.7
				C151.4,283.5,167.5,275.8,182.2,280.9z"/>
		</g>
		<g>
			<path class="st4" d="M131.6,621.2h19.8c0-0.7-0.1-1.3-0.6-1.9c-0.5-0.6-1.2-0.9-2-1.1c-0.8-0.1-1.5-0.1-2.3-0.1
				c-1.9-0.1-3.7-0.6-5.4-1.6c-0.9-0.5-1.7-1.1-2.6-1.4l-5.4,0.1c-0.7,0.8-1.2,1.8-1.4,2.9C131.5,619.2,131.5,620.2,131.6,621.2z"/>
		</g>
		<g>
			<path class="st4" d="M87.6,621.2h19.8c0-0.7-0.1-1.3-0.6-1.9c-0.5-0.6-1.2-0.9-2-1.1c-0.8-0.1-1.5-0.1-2.3-0.1
				c-1.9-0.1-3.7-0.6-5.4-1.6c-0.9-0.5-1.7-1.1-2.6-1.4l-5.4,0.1c-0.7,0.8-1.2,1.8-1.4,2.9C87.6,619.2,87.6,620.2,87.6,621.2z"/>
		</g>
		<g>
			<path class="st4" d="M90.1,512.3c0,0,19.3,0.1,19.3,0.1l0,0c0,1,22.8-5.7,23.2-0.4c0,0,4.6,37.7,4.6,37.7c0.4,3,0.6,6,0.7,9
				l1.7,56.7l-6.9,0l-20.1-80.5l-16.9,80.3l-6.9,0.3L90.1,512.3z"/>
		</g>
		<g>
			<path class="st3" d="M90.1,512.4c15.2,5,25.2,8,42.5-0.4l-0.2-39.8l-0.1-5.9l0-2.2l0-4.2c0-0.6,0-1.2-0.1-1.7
				c-0.7-7-5.2-12.8-11.3-15.3c-0.8-0.3-1.7-0.6-2.6-0.9c-2-0.5-4-0.7-6.2-0.5c-0.3,0-0.6,0.1-0.9,0.1c-1.6,0.2-3.1,0.5-4.5,1
				c-7.1,2.4-12.6,8.3-14.6,15.5c-0.5,1.7-0.7,3.5-0.8,5.4l0,0.6l-0.1,2.2l-0.1,2.8L90.1,512.4z"/>
		</g>
		<g>
			<path class="st4" d="M132.5,491l0.1,19.3l0.3,0l-0.1-19.3H132.5z M111.8,441.2v0.4c0.1,0,0.2,0,0.3,0c2.1-0.2,4.2,0,6.2,0.5
				c0.9,0.2,1.7,0.5,2.6,0.9c6.1,2.6,10.7,8.3,11.3,15.3c0.1,0.6,0.1,1.2,0.1,1.7l0,4.2l0,2.2l0.1,5.9h0.3l-0.1-5.9l0-2.2l0-4.2
				c0-0.6,0-1.2-0.1-1.8c-0.7-6.9-5.1-12.9-11.5-15.6c-0.8-0.4-1.7-0.7-2.6-0.9c-1.5-0.4-3.1-0.6-4.6-0.6c-0.6,0-1.1,0-1.7,0.1
				C112,441.2,111.9,441.2,111.8,441.2z M90.5,482.9h0.3l0.3-13.8l0.1-2.8l0-1.5l-0.3,0l0,1.5l-0.1,2.8L90.5,482.9z M89.7,512.7
				l0.2,0.1c9,3,15.4,4.9,22.4,4.9c2.5,0,5-0.3,7.6-0.8l-0.3-0.3c-10.3,2-18.6-0.5-29.6-4.1l0.2-7h-0.3L89.7,512.7z"/>
		</g>
		<g>
			<g>
				<g>
					<path class="st9" d="M118.9,433.5l-0.1,13.3c-2.9,1.8-5.8,1.8-8.7-0.1l0.1-13.3L118.9,433.5z"/>
				</g>
				<g>
					<path class="st7" d="M118.9,433.5l-0.1,6c-0.6,0.2-1.3,0.4-1.9,0.4c-0.2,0-0.4,0-0.7,0c-2.4,0-4.6-1.2-6-3l0-3.6L118.9,433.5z"
						/>
				</g>
				<g>
					<path class="st9" d="M122.9,425.4l-0.3,5.5l-0.1,2.2c-0.1,3.1-2.6,5.6-5.7,5.9c-1,0.1-2-0.1-3-0.4c-0.2-0.1-0.4-0.2-0.6-0.3
						c-0.1-0.1-0.3-0.1-0.4-0.2c-1.2-0.7-2.1-1.7-2.7-3c-0.5-1.1-1-2.3-1.4-3.5c-0.3-0.7-0.5-1.5-0.8-2.2c-1.1-3.3-0.3-7,2.1-9.5
						c2.1-2.1,4.7-2.8,7.8-1.8C121,419.1,123.1,422.1,122.9,425.4z"/>
				</g>
			</g>
			<g>
				<g>
					<path class="st4" d="M107.4,427.6c-2.2-6.8,1.3-7.9,1.3-7.9c-0.1,0-0.1-0.9-0.1-1c0-0.3,0.1-0.7,0.3-1c1-2.2,3.3-1.9,5.3-1.8
						c1.1,0,2-0.3,2.9-1.1c0.9-0.8,1.4-1.9,2.4-2.6c1.5-1.1,3.7-0.3,4.6,1.1c0.2,0.3,0.4,0.7,0.5,1.1c0.6,2.1,0.3,4.6-1,6.3
						c-1.2,1.5-3.5,2-5.3,2.2c-0.6,0.1-1.2,0.1-1.9,0.2c-3.2,0.2-4.6-2.4-4.6-2.4c0.7,0.7,1.1,3.1,0.4,4.5c-0.6,1.5,0,4.1,0,4.1
						l-0.2,0C110.5,427.1,108.9,426.4,107.4,427.6z"/>
				</g>
				<g>
					<path class="st4" d="M121.7,422.1c0,0,0.9,2.7,1,6.8c0,0,1.1-4.5,0.1-7.7L121.7,422.1z"/>
				</g>
			</g>
			<g>
				<path class="st9" d="M112.2,429.3c0,1.6-1.5,2.9-3.3,2.9c-1.8,0-3.2-1.3-3.2-2.9c0-1.6,1.5-2.9,3.3-2.9
					C110.7,426.4,112.2,427.8,112.2,429.3z"/>
			</g>
		</g>
		<g>
			<g>
				<path class="st9" d="M143.6,454.6l-3.6,11.3c0.1,0,0.2-0.1,0.3-0.1c3-1,6-2.4,8.8-4.2c2.4-1.5,4.7-3.3,7.3-5.7
					c1.9-1.7,3.8-3.6,6.3-6.2c2.2-2.3,4.3-4.6,5.8-6.4c0.2-0.2,0.4-0.5,0.5-0.8c0.3-0.9,0-1.8-0.6-2.5c-0.9-1-2.4-1.1-3.3-0.3
					c-2.6,2.2-4.7,3.9-6.6,5.4c-2.6,2-4.7,3.6-6.7,4.9c-2.5,1.7-4.7,2.9-6.8,3.9C144.5,454.3,144.1,454.5,143.6,454.6z"/>
			</g>
			<g>
				<path class="st10" d="M98.2,459.5l1.7-5.4c-0.6,0.7-1,1.6-1.3,2.5c-0.1,0.3-0.2,0.5-0.2,0.8C98.2,458.1,98.1,458.8,98.2,459.5z"
					/>
			</g>
			<g>
				<path class="st4" d="M103.4,466.3c1.8,0.2,3.5,0.5,5.2,0.7l0.9-3l6.4,0.7l-0.4,3.1l0,0c1.1,0.1,2.3,0.2,3.4,0.3
					c2.5,0.2,5.3,0.3,8.1,0.3c3.1,0,5.9-0.3,8.5-0.7c0.4-0.1,0.9-0.1,1.3-0.2l-2.2-2.8l24.3-13.3l1.7,2c0.9-0.9,1.9-1.9,2.9-2.9
					l0.3-0.4l-5.5-6l-0.4,0.3c-2.1,1.7-4,3.1-5.8,4.4c-2.2,1.5-4.1,2.8-5.9,3.7c-2,1.1-4,1.9-6,2.4c-2,0.5-4,0.8-6.2,0.9
					c-0.6,0-1.3,0-1.9,0l0,2.6l-17.5-0.2l0.8-5c-3.1-0.7-6.2-1.5-9.2-2.3c-3.2-0.8-6.6,1.5-7.8,5.4c-0.1,0.3-0.2,0.6-0.2,1
					c-0.5,2.4,0,4.8,1.2,6.5C100.5,465.3,101.8,466.1,103.4,466.3z"/>
			</g>
			<g>
				<path class="st3" d="M103.4,465.8c5.1,0.7,10.2,1.3,15.5,1.7c2.6,0.2,5.3,0.3,8.1,0.3c2.7,0,5.6-0.2,8.4-0.7
					c2.8-0.5,5.7-1.2,8.4-2.4c2.7-1.1,5.2-2.6,7.5-4.2c2.3-1.6,4.3-3.3,6.3-5.1c1.9-1.8,3.8-3.6,5.6-5.5l-4.8-5.2
					c-1.9,1.6-3.9,3.1-5.8,4.5c-2,1.4-3.9,2.7-6,3.8c-2,1.1-4,1.9-6.1,2.5c-2,0.6-4.1,0.9-6.3,0.9c-4.3,0.2-8.9-0.5-13.7-1.4
					c-4.7-0.9-9.5-2.1-14.4-3.4c-3.2-0.8-6.5,1.9-7.4,5.9C98,461.6,100.1,465.4,103.4,465.8z"/>
			</g>
		</g>
	</g>
	<g>
		<g>
			<g>
				<g>
					<g>
						<g>
							<g>
								<g>
									<path class="st7" d="M429,513.6c-0.3-1,0.1-2.1,1.1-2.5c2.8-1.2,5.6-2.5,8.3-3.8c2.7-1.3,5.4-2.6,8-4.1
										c2.6-1.5,5-3,7.1-4.8c2.2-1.8,4-3.7,5.6-5.9c3.1-4.3,5-9.6,6.6-15.2c0.2-0.7,0.4-1.4,0.6-2.1l0.5-2.1
										c0.3-1.4,0.7-2.9,1-4.3c0.7-2.9,1.3-5.9,1.9-8.8c0.8-3.7,4.6-6.1,8.4-5.1c3.8,1,6,4.9,4.8,8.7c-1,2.9-2,5.9-3.1,8.8
										c-0.5,1.5-1.1,3-1.7,4.4l-0.9,2.2c-0.3,0.7-0.6,1.5-0.9,2.2c-1.3,3-2.7,5.9-4.4,8.8c-1.7,2.9-3.7,5.7-6,8.3
										c-2.4,2.5-5.1,4.7-8,6.4c-2.8,1.8-5.8,3.1-8.7,4.3c-2.9,1.2-5.9,2.2-8.9,3.1c-3,0.9-5.9,1.8-8.9,2.7
										C430.4,515.1,429.3,514.6,429,513.6z"/>
								</g>
							</g>
						</g>
					</g>
				</g>
			</g>
			<g>
				<g>
					<g>
						<g>
							<g>
								<path class="st5" d="M479.6,480.4l4.4-15c1.3-4.5-0.9-9.3-5.5-10.6l0,0c-4.5-1.3-9.6,1.3-10.9,5.9l-4.4,15L479.6,480.4z"/>
							</g>
						</g>
					</g>
				</g>
			</g>
		</g>
		<g>
			<g>
				<path class="st4" d="M447.9,621.2H328.8c-4.8,0-8.6-3.9-8.6-8.6v-32.7c-2.8,0.9-5.7,1.4-8.8,1.4c-15.6,0-28.2-12.6-28.2-28.2
					c0-15.6,12.6-28.2,28.2-28.2c3.1,0,6,0.5,8.8,1.4v-32.7c0-4.6,3.6-8.3,8.1-8.6c0.2,0,0.4,0,0.6,0h32.7c-0.9,2.8-1.4,5.7-1.4,8.8
					c0,15.6,12.6,28.2,28.2,28.2c15.6,0,28.2-12.6,28.2-28.2c0-3.1-0.5-6-1.4-8.8h32.7c0.2,0,0.4,0,0.6,0c4.5,0.3,8.1,4,8.1,8.6
					v119.1C456.5,617.3,452.6,621.2,447.9,621.2z"/>
			</g>
			<g>
				<path class="st4" d="M447.9,484.9h-32.7c0,0,0,0,0,0L447.9,484.9c0.2,0,0.4,0,0.6,0C448.2,484.9,448.1,484.9,447.9,484.9z"/>
			</g>
			<g>
				<path class="st4" d="M361.6,484.9C361.6,484.9,361.6,484.9,361.6,484.9l-32.8,0c-0.2,0-0.4,0-0.6,0c0.2,0,0.4,0,0.6,0H361.6z"/>
			</g>
		</g>
		<g>
			<g>
				<g>
					<g>
						<g>
							<polygon class="st9" points="488.4,551.4 477.5,616.1 473.6,615.4 472.5,550.8 							"/>
						</g>
					</g>
				</g>
			</g>
		</g>
		<g>
			<g>
				<g>
					<g>
						<g>
							<g>
								<path class="st2" d="M471.5,550.7l17.8,0.7c4.9-11.9,9.1-38.1,4.1-50.2l-20,4.5L471.5,550.7z"/>
							</g>
						</g>
					</g>
				</g>
			</g>
			<g>
				<g>
					<g>
						<g>
							<g>
								
									<ellipse transform="matrix(0.9907 -0.1363 0.1363 0.9907 -64.3602 70.6483)" class="st2" cx="483.9" cy="505.5" rx="10.4" ry="10.4"/>
							</g>
						</g>
					</g>
				</g>
			</g>
			<g class="st6">
				<g>
					<g>
						<g>
							<g>
								<polygon class="st11" points="483.9,505.5 483.9,505.5 483.9,505.5 483.9,505.5 								"/>
							</g>
						</g>
					</g>
				</g>
			</g>
		</g>
		<g>
			<g>
				<g>
					<g>
						<g>
							<polygon class="st9" points="508.8,548.7 514.8,614.7 511,615.1 493.4,552.1 							"/>
						</g>
					</g>
				</g>
			</g>
		</g>
		<g>
			<g>
				<g>
					<g>
						<g>
							<path class="st2" d="M489.7,495.4c4.2-1.3,8.6,0.3,11.2,3.5l0,0c0,0,0,0,0,0.1c0.2,0.2,0.4,0.5,0.5,0.7
								c7.5,10.9,9.9,36.3,8.3,48.8l-17.4,3.9l-9.6-43.9c0,0,0,0,0,0C481.1,502.9,484.2,497.1,489.7,495.4z"/>
						</g>
					</g>
				</g>
			</g>
		</g>
		<g>
			<g>
				<g>
					<g>
						<g>
							<path class="st5" d="M489.4,540.8l2.6,12l3.2-0.7l0-0.3l-2.9,0.6l-2.5-11.7L489.4,540.8z M505,506.9c1.9,5,3.2,10.9,4,17
								l0.3,0c0-0.1,0-0.2,0-0.3c-0.9-6.5-2.3-12.2-4-16.8L505,506.9z M510,528.9l-0.3,0c0.3,3.1,0.5,6.1,0.5,9l0.3,0.1
								C510.5,535,510.3,532,510,528.9z M499.4,550.8l0.1,0.3l10.5-2.3l0-0.2c0.2-1.7,0.4-3.7,0.4-5.8l-0.3,0
								c-0.1,2.1-0.2,4.1-0.4,5.8L499.4,550.8z M484.8,519.7l2.3,10.4h0.4l-2.3-10.4H484.8z"/>
						</g>
					</g>
				</g>
			</g>
		</g>
		<g>
			<g>
				<g>
					<g>
						<g>
							<path class="st4" d="M502.6,619c0.3-0.5,0.8-0.8,1.3-0.9c0.5-0.2,1.1-0.2,1.6-0.3c1.3-0.2,2.6-0.8,3.7-1.5
								c0.6-0.4,1.1-0.9,1.7-1.2l3.9-0.3c0.6,0.5,1,1.2,1.3,2c0.2,0.7,0.3,1.4,0.4,2.1l0.1,0.8l-14.1,1.6l-0.1-0.8l0,0
								C502.3,619.9,502.3,619.4,502.6,619z"/>
						</g>
					</g>
				</g>
			</g>
		</g>
		<g>
			<g>
				<g>
					<g>
						<g>
							<path class="st4" d="M464.5,617.1c0.4-0.4,1-0.5,1.5-0.5c0.6,0,1.1,0.1,1.6,0.1c1.3,0.1,2.7-0.1,4-0.5c0.7-0.3,1.3-0.6,2-0.7
								l3.8,0.7c0.4,0.6,0.7,1.4,0.7,2.2c0,0.7,0,1.4-0.2,2.1l-0.1,0.8l-14.1-2.1l0.1-0.8l0,0C464,617.8,464.2,617.4,464.5,617.1z"
								/>
						</g>
					</g>
				</g>
			</g>
		</g>
		<g>
			<g>
				<g>
					<g>
						<g>
							<path class="st5" d="M487.6,450.8L487.6,450.8c-11.9,0.1-20.8,10.8-18.9,22.5l4.8,31.6c8.5,3.1,20.6,1.9,30.4-0.9l0-36.1
								C504.4,458.6,497,450.7,487.6,450.8z"/>
						</g>
					</g>
				</g>
			</g>
		</g>
		<g>
			<g>
				<g>
					<g>
						<g>
							<path class="st8" d="M503.8,488.5l0,13.7l0.3,0l0-13.7H503.8z M479.8,452.1l0.2,0.3c2.3-1,4.9-1.6,7.6-1.6
								c0.6,0,1.1,0,1.7,0.1l0-0.3c-0.5,0-1-0.1-1.5-0.1c-0.1,0-0.1,0-0.2,0C484.9,450.5,482.3,451.1,479.8,452.1z M468.3,473.4
								l1.1,7l0.3-0.1l-1.1-6.9c-0.2-1.1-0.3-2.1-0.3-3.1c0-6.4,3.1-12.1,8-15.7l-0.2-0.3c-1.3,0.9-2.5,2-3.5,3.3
								C469,461.9,467.4,467.7,468.3,473.4z M470.7,487l-0.3,0l2.7,18.1l0.2,0.1c3.4,1.2,7.5,1.8,12.1,1.8c4.9,0,10.3-0.7,15.5-2
								l0-0.3c-9.2,2.3-19.8,2.9-27.5,0.2L470.7,487z M503.8,467.9l0,8.5h0.3l0-8.5c0.3-4.6-1.2-8.9-4.4-12.3
								c-1.2-1.2-2.5-2.3-3.9-3.1l-0.1,0.4C500.9,455.9,504.2,461.6,503.8,467.9z"/>
						</g>
					</g>
				</g>
			</g>
		</g>
		<g>
			<g>
				<g>
					<g>
						<g>
							<g>
								<path class="st9" d="M482.1,445.3l0.5,9.6c2.7,1.5,5.3,1.3,7.7-0.6l-0.5-9.6L482.1,445.3z"/>
							</g>
						</g>
					</g>
				</g>
			</g>
			<g>
				<g>
					<g>
						<g>
							<g>
								<path class="st7" d="M482.2,448.3l0,1.1c1.2,0.6,2.7,0.9,4.1,0.9c0.1,0,0.2,0,0.2,0c1.3-0.1,2.5-0.6,3.4-1.6l-0.1-2.8
									L482.2,448.3z"/>
							</g>
						</g>
					</g>
				</g>
			</g>
			<g>
				<g>
					<g>
						<g>
							<g>
								<path class="st9" d="M478,434.4l0.7,6.9l0.2,1.5c0.4,3.8,3.7,6.7,7.5,6.6c0.4,0,0.8-0.1,1.1-0.2c0.1,0,0.3-0.1,0.4-0.2
									c0,0,0.1,0,0.1,0c0.5-0.2,1-0.6,1.4-1.1c0.8-1,1.4-2.1,1.8-3.3c0.4-1,0.8-2,1-3c0.3-1.2,0.4-2.4,0.2-3.7l-0.2-4.7l-12.3-2
									L478,434.4z"/>
							</g>
						</g>
					</g>
				</g>
			</g>
			<g>
				<g>
					<g>
						<g>
							<g>
								<path class="st4" d="M478.3,445.2c0,0,0-4.1,0.2-6.1v0c0.1-1.9,0.6-3.7,1.9-3.5c2.8,0.5,3.8-1.8,3.8-1.8s0,0,0-0.1
									c0.8,0,1.6,0.2,2.5,0.4c4.1,1,4.7,0,5.2-0.7c1.1,3.2,0.7,7.2,0.6,7.6c0,0,0,0,0,0c0,0,0,0,0,0c0,0.2-0.1,0.4-0.1,0.5
									c-0.2,1-0.6,2-1,3c-0.4,0.9-0.8,1.8-1.4,2.6l0,0.6c2.8-0.5,6.5-3.7,7.3-6.2c3-9.5-2.1-15.1-9.4-16.5
									c-6.3-1.2-9.8,4.6-11,9.9C476.1,438.3,477.6,444.4,478.3,445.2z"/>
							</g>
						</g>
					</g>
				</g>
			</g>
			<g>
				<g>
					<g>
						<g>
							<g>
								<path class="st9" d="M490,439.6c0.1,1.6,1.5,2.7,3,2.6c1.6-0.1,2.7-1.5,2.6-3c-0.1-1.6-1.5-2.7-3-2.6
									C491.1,436.7,489.9,438.1,490,439.6z"/>
							</g>
						</g>
					</g>
				</g>
			</g>
		</g>
		<g>
			<g>
				<g>
					<g>
						<g>
							<g>
								<g>
									<path class="st9" d="M449.4,520c-0.4-0.9,0-2.1,0.9-2.5c2.7-1.4,5.4-2.9,8-4.4c2.6-1.5,5.2-3.1,7.6-4.7
										c2.4-1.7,4.7-3.4,6.7-5.3c2-1.9,3.7-4,5.1-6.3c2.7-4.6,4.2-10,5.4-15.7c0.1-0.7,0.3-1.4,0.4-2.2l0.4-2.2
										c0.2-1.5,0.5-2.9,0.7-4.4c0.4-3,0.8-5.9,1.2-9c0.5-3.8,4.2-6.4,8-5.7c3.8,0.7,6.3,4.4,5.4,8.3c-0.8,3-1.6,6-2.4,9
										c-0.4,1.5-0.9,3-1.3,4.5l-0.7,2.3c-0.2,0.8-0.5,1.5-0.8,2.3c-1,3-2.2,6.1-3.7,9.1c-1.5,3-3.2,6-5.4,8.7
										c-2.2,2.7-4.7,5.1-7.4,7c-2.7,2-5.5,3.6-8.4,5c-2.8,1.4-5.7,2.7-8.6,3.8c-2.9,1.2-5.8,2.3-8.6,3.4
										C450.9,521.4,449.8,520.9,449.4,520z"/>
								</g>
							</g>
						</g>
					</g>
				</g>
			</g>
			<g>
				<g>
					<g>
						<g>
							<g>
								<path class="st5" d="M497.3,482.6l3.2-15.3c1-4.6-1.7-9.2-6.3-10.2l0,0c-4.6-1-9.5,2.1-10.5,6.7l-3.2,15.3L497.3,482.6z"/>
							</g>
						</g>
					</g>
				</g>
			</g>
			<g>
				<g>
					<g>
						<g>
							<g>
								<path class="st8" d="M483.4,463.8l-0.3,1.3l0.3,0.1l0.3-1.3c0.8-3.8,4.2-6.5,8-6.8l0-0.3c-1.5,0.1-3,0.6-4.3,1.4
									C485.3,459.4,483.9,461.5,483.4,463.8z M482.3,470.7l-0.3-0.1l-1.8,8.7l14,2.9l0.1-0.3l-13.6-2.8L482.3,470.7z M495.7,457.6
									c3.3,1.4,5.2,4.7,5,8.3l0.3,0c0.2-3.8-1.9-7.3-5.3-8.7L495.7,457.6z M499.4,474.2l-0.3,0l-1.5,7.4l0.3,0.1L499.4,474.2z"/>
							</g>
						</g>
					</g>
				</g>
			</g>
		</g>
	</g>
	<g>
		<path class="st4" d="M684,625.2c0,1.1-0.4,2.1-1.2,2.8c-0.7,0.7-1.7,1.2-2.8,1.2H35.5c-2.2,0-4-1.8-4-4c0-1.1,0.4-2.1,1.2-2.8
			c0.7-0.7,1.7-1.2,2.8-1.2H680C682.2,621.2,684,623,684,625.2z"/>
	</g>
	<g>
		<g>
			<polygon class="st5" points="89,102.8 135.1,103.9 145.9,115.6 130.7,113.6 131.2,108.4 			"/>
		</g>
		<g>
			<polygon class="st8" points="135.1,103.9 146.9,87.8 89,102.8 			"/>
		</g>
		<g>
			<polygon class="st8" points="131.2,108.4 129.2,129.7 89,102.8 			"/>
		</g>
	</g>
	<g>
		<g>
			<path class="st8" d="M657.8,167.6c0.1-0.6,0.2-1.3,0.2-1.9c0-6.2-5-11.2-11.2-11.2c-0.3,0-0.5,0-0.8,0c0-0.3,0-0.6,0-0.9
				c0-6.2-5-11.2-11.2-11.2c-4.3,0-8,2.4-9.9,5.9c-1.6,0-3.1,0.4-4.5,1.1c-1.4-0.7-3.1-1.1-4.8-1.1c-5.9,0-10.7,4.5-11.2,10.3
				c-1.4-0.6-2.8-0.9-4.4-0.9c-5.8,0-10.6,4.4-11.2,10H657.8z"/>
		</g>
		<g>
			<g>
				<path class="st8" d="M120.6,328.1c0.4-1,0.7-2.2,0.7-3.3c0-4.6-3.8-8.4-8.4-8.4c-1.2,0-2.4,0.3-3.5,0.7c0.3-0.9,0.4-1.9,0.4-2.9
					c0-5.9-4.7-10.6-10.6-10.6c-1.8,0-3.5,0.5-5,1.3c-1.9-6.3-7.8-10.8-14.7-10.8c-8.5,0-15.3,6.9-15.3,15.3c0,0.4,0,0.8,0.1,1.2
					c-0.4-0.1-0.8-0.1-1.1-0.1c-4.6,0-8.4,3.8-8.4,8.4c0,0.5,0,1,0.1,1.5c0,0-0.1,0-0.1,0c-4.4,0-8,3.4-8.4,7.7H120.6z"/>
			</g>
		</g>
		<g>
			<g>
				<path class="st8" d="M406.4,124.8c-0.3-0.6-0.4-1.2-0.4-1.9c0-2.7,2.2-4.8,4.8-4.8c0.7,0,1.4,0.2,2,0.4
					c-0.2-0.5-0.2-1.1-0.2-1.7c0-3.4,2.7-6.1,6.1-6.1c1.1,0,2,0.3,2.9,0.7c1.1-3.6,4.5-6.2,8.4-6.2c4.9,0,8.8,4,8.8,8.8
					c0,0.2,0,0.5,0,0.7c0.2,0,0.4,0,0.7,0c2.7,0,4.8,2.2,4.8,4.8c0,0.3,0,0.6-0.1,0.9c0,0,0.1,0,0.1,0c2.5,0,4.6,2,4.8,4.4H406.4z"
					/>
			</g>
		</g>
		<g>
			<path class="st8" d="M225.5,227c-1-2.6-2.9-4.7-5.3-5.9c0.5-1.3,0.8-2.6,0.8-4.1c0-6-4.9-10.9-10.9-10.9c-0.5,0-1.1,0-1.6,0.1
				c-1.7-7.6-8.5-13.2-16.6-13.2c-7.1,0-13.2,4.4-15.7,10.5c-1.4-0.6-2.9-1-4.6-1c-6,0-10.9,4.9-10.9,10.9c0,0.5,0,1.1,0.1,1.6
				c-0.7-0.2-1.5-0.2-2.3-0.2c-6,0-10.9,4.9-10.9,10.9c0,0.5,0,0.9,0.1,1.4H225.5z"/>
		</g>
		<g>
			<path class="st8" d="M650.4,321.6c-3.3,0-6.4,0.9-9.1,2.6c-2.2-3.9-6.3-6.5-11-6.5c-5.9,0-10.9,4.1-12.3,9.6
				c-2.9-4.5-7.9-7.5-13.6-7.5c-8.7,0-15.9,7-16.1,15.6c-4.7,2.3-7.9,7.1-7.9,12.7c0,0.4,0,0.8,0.1,1.3h15.1h17.7H664
				c2.3-2.9,3.6-6.6,3.6-10.6C667.7,329.4,660,321.6,650.4,321.6z"/>
		</g>
	</g>
	<g>
		<path class="st5" d="M453.6,190.2L453.6,190.2l0.3-1.2l0.1,0L453.6,190.2z M446,187.9c-2.5-0.7-5.1-1.3-7.7-1.9l0.3-1.2
			c2.6,0.6,5.2,1.2,7.7,1.9L446,187.9z M430.6,184.5c-2.5-0.4-5.1-0.8-7.8-1.2l0.2-1.2c2.7,0.4,5.3,0.8,7.9,1.2L430.6,184.5z
			 M414.9,182.4c-2.5-0.3-5.2-0.5-7.9-0.7l0.1-1.2c2.7,0.2,5.4,0.5,7.9,0.7L414.9,182.4z M399.1,181.1c-2.5-0.2-5-0.3-7.9-0.4
			l0.1-1.2c2.9,0.1,5.5,0.3,7.9,0.4L399.1,181.1z M383.3,180.3c-1.9-0.1-3.8-0.2-5.8-0.2l-2.2-0.1l0-1.2l2.2,0.1
			c1.9,0.1,3.8,0.2,5.8,0.2L383.3,180.3z M367.5,179.6c-2.9-0.1-5.5-0.3-7.9-0.4l0.1-1.2c2.4,0.1,5,0.3,7.9,0.4L367.5,179.6z
			 M351.7,178.7c-2.7-0.2-5.4-0.4-7.9-0.7l0.1-1.2c2.5,0.2,5.2,0.5,7.9,0.7L351.7,178.7z M335.8,177.2c-2.7-0.3-5.3-0.7-7.9-1.1
			l0.2-1.2c2.5,0.4,5.2,0.8,7.8,1.1L335.8,177.2z M320.2,174.6c-2.6-0.5-5.2-1.1-7.8-1.7l0.3-1.2c2.5,0.6,5.1,1.2,7.7,1.7
			L320.2,174.6z M304.7,170.8c-2.6-0.8-5.1-1.6-7.6-2.5l0.4-1.1c2.4,0.9,4.9,1.7,7.5,2.5L304.7,170.8z M289.8,165.4
			c-2.5-1.1-4.9-2.2-7.2-3.4l0.5-1.1c2.3,1.2,4.7,2.3,7.1,3.4L289.8,165.4z M275.7,158.1c-2.3-1.4-4.5-2.9-6.6-4.5l0.7-1
			c2.1,1.5,4.3,3,6.5,4.4L275.7,158.1z M262.9,148.6c-0.8-0.7-1.5-1.4-2.3-2.1c-1.2-1.1-2.3-2.3-3.4-3.5l0.9-0.8
			c1.1,1.2,2.2,2.3,3.4,3.4c0.7,0.7,1.5,1.4,2.3,2.1L262.9,148.6z M252.1,136.8c-1.6-2.2-3-4.5-4.3-6.8l1-0.6
			c1.2,2.2,2.6,4.5,4.2,6.6L252.1,136.8z M252.9,135.3l0-1.2c2.6,0,5.3-0.1,7.9-0.2l0.1,1.2C258.2,135.2,255.5,135.2,252.9,135.3z
			 M244.9,135.2c-2.6-0.1-5.3-0.2-7.9-0.3l0.1-1.2c2.6,0.1,5.3,0.3,7.9,0.3L244.9,135.2z M268.7,134.6l-0.1-1.2
			c0.7-0.1,1.4-0.1,2.1-0.2c2.1-0.2,4-0.4,5.8-0.6l0.2,1.2c-1.8,0.2-3.7,0.4-5.8,0.6C270.1,134.5,269.4,134.5,268.7,134.6z
			 M229.1,134.3c-2.6-0.2-5.3-0.5-7.9-0.8l0.1-1.2c2.6,0.3,5.2,0.6,7.9,0.8L229.1,134.3z M213.3,132.4c-2.6-0.4-5.2-0.9-7.8-1.4
			l0.2-1.2c2.6,0.5,5.2,0.9,7.8,1.3L213.3,132.4z M284.5,132.4l-0.3-1.2c2.7-0.6,5.2-1.4,7.5-2.3l0.4,1.1
			C289.8,131,287.2,131.7,284.5,132.4z M197.7,129.4c-2.6-0.6-5.2-1.2-7.7-1.9l0.3-1.2c2.5,0.7,5.1,1.3,7.7,1.9L197.7,129.4z
			 M299.3,126.5l-0.6-1c2.3-1.4,4.3-3.1,6-5l0.9,0.8C303.8,123.3,301.7,125,299.3,126.5z M182.3,125.4c-2.5-0.7-5.1-1.5-7.6-2.4
			l0.4-1.1c2.5,0.8,5,1.6,7.5,2.4L182.3,125.4z M244.5,122.8c-0.9-2.6-1.6-5.2-2-7.8l1.2-0.2c0.4,2.5,1.1,5,1.9,7.6L244.5,122.8z
			 M167.2,120.4c-2.5-0.9-5-1.9-7.4-2.9l0.4-1.1c2.4,1,4.9,2,7.4,2.9L167.2,120.4z M310,114.6l-1.1-0.5c1.1-2.3,1.8-4.8,2.2-7.4
			l1.2,0.2C311.9,109.6,311.1,112.2,310,114.6z M243.3,107l-1.2-0.1c0.1-2.6,0.6-5.3,1.3-7.9l1.1,0.3
			C243.8,101.9,243.4,104.5,243.3,107z M311.3,99c-0.3-2.6-0.9-5.1-1.8-7.5l1.1-0.4c0.9,2.5,1.6,5.1,1.9,7.8L311.3,99z M247.4,92.1
			l-1.1-0.5c1.2-2.4,2.7-4.6,4.4-6.7l0.9,0.7C250,87.6,248.6,89.8,247.4,92.1z M305.8,84.6c-0.6-0.9-1.3-1.7-2.1-2.5
			c-1-1.1-2.1-2.1-3.3-3l0.7-0.9c1.2,1,2.4,2,3.4,3.2c0.8,0.8,1.5,1.7,2.2,2.6L305.8,84.6z M257.2,80.1l-0.8-0.9
			c2.1-1.7,4.4-3.2,6.7-4.4l0.5,1.1C261.4,77,259.2,78.4,257.2,80.1z M293.8,75.1c-2.3-1-4.8-1.8-7.4-2.3l0.2-1.2
			c2.7,0.5,5.2,1.3,7.7,2.4L293.8,75.1z M270.9,73.1l-0.3-1.2c2.6-0.6,5.3-1,8-1l0,1.2C276,72.1,273.4,72.5,270.9,73.1z"/>
	</g>
</g>
</svg>
