<?xml version="1.0" encoding="utf-8"?>
<!-- Generator: Adobe Illustrator 24.2.0, SVG Export Plug-In . SVG Version: 6.00 Build 0)  -->
<svg version="1.1" id="图层_1" xmlns="http://www.w3.org/2000/svg" xmlns:xlink="http://www.w3.org/1999/xlink" x="0px" y="0px"
	 viewBox="0 0 700 700" style="enable-background:new 0 0 700 700;" xml:space="preserve">
<style type="text/css">
	.st0{fill:#155BCD;}
	.st1{fill:#050F64;}
	.st2{fill:#FFBD00;}
	.st3{fill:#FFFFFF;}
	.st4{fill:#84A9FF;}
	.st5{fill:#E5E6EB;}
	.st6{fill:#FF654F;}
	.st7{clip-path:url(#SVGID_2_);}
	.st8{fill:#F5BDC8;}
	.st9{fill:#EA8096;}
	.st10{clip-path:url(#SVGID_4_);}
	.st11{clip-path:url(#SVGID_6_);}
	.st12{opacity:0;}
	.st13{fill:#E9EBED;}
	.st14{fill:#DA5544;}
</style>
<g>
	<g>
		<g>
			<g>
				<g>
					<g>
						<path class="st0" d="M187,536.5c-0.3,1.3-0.5,2-0.5,2c-0.8-0.5-1.5-1-2.3-1.5c-129.9-89-78-249.6-78-249.6
							C230.5,359.6,192.3,517.1,187,536.5z"/>
					</g>
				</g>
				<g>
					<g>
						<path class="st1" d="M187,536.5c-0.3,1.3-0.5,2-0.5,2c-0.8-0.5-1.5-1-2.3-1.5c-10.9-32.1-21.6-64.2-32-96.5
							c-5.4-16.7-10.7-33.4-15.9-50.2l-3.9-12.6l-3.7-12.6c-1.2-4.2-2.4-8.4-3.6-12.7c-0.6-2.1-1.1-4.2-1.7-6.4l-1.7-6.4l1.8,6.3
							c0.6,2.1,1.2,4.2,1.8,6.3c1.3,4.2,2.5,8.4,3.8,12.6l3.9,12.6l4,12.5c5.4,16.7,11,33.3,16.6,49.9
							C164.5,472.2,175.6,504.4,187,536.5z"/>
					</g>
				</g>
				<g>
					<g>
						<g>
							<g>
								<path class="st1" d="M138.3,366.3c-0.1,0-0.3,0-0.4-0.1c-0.3-0.2-0.4-0.5-0.3-0.8c4-7.8,6.5-16.5,7.2-25.1
									c0-0.3,0.3-0.6,0.7-0.6c0.3,0,0.6,0.3,0.6,0.7c-0.8,8.8-3.3,17.7-7.4,25.6C138.7,366.1,138.5,366.3,138.3,366.3z"/>
							</g>
						</g>
					</g>
					<g>
						<g>
							<g>
								<path class="st1" d="M155.7,415.3c-0.1,0-0.2,0-0.3,0c-0.3-0.1-0.5-0.5-0.3-0.8c3.7-8.9,8.2-17.6,13.3-25.9
									c0.2-0.3,0.6-0.4,0.8-0.2c0.3,0.2,0.4,0.6,0.2,0.8c-5.1,8.2-9.5,16.8-13.2,25.7C156.1,415.1,156,415.3,155.7,415.3z"/>
							</g>
						</g>
					</g>
					<g>
						<g>
							<g>
								<path class="st1" d="M137.9,425.8c-0.1,0-0.3,0-0.4,0c-10.2-4.2-19.7-10-28-17.3c-0.3-0.2-0.3-0.6-0.1-0.9
									c0.2-0.3,0.6-0.3,0.9-0.1c8.2,7.2,17.6,12.9,27.7,17.1c0.3,0.1,0.5,0.5,0.3,0.8C138.2,425.6,138,425.8,137.9,425.8z"/>
							</g>
						</g>
					</g>
					<g>
						<g>
							<g>
								<path class="st1" d="M125.6,372.3c-0.2,0.1-0.4,0.1-0.6-0.1l-20.7-16.1c-0.3-0.2-0.3-0.6-0.1-0.9c0.2-0.3,0.6-0.3,0.9-0.1
									l20.7,16.1c0.3,0.2,0.3,0.6,0.1,0.9C125.7,372.2,125.6,372.3,125.6,372.3z"/>
							</g>
						</g>
					</g>
					<g>
						<g>
							<g>
								<path class="st1" d="M173.7,466.8c-0.1,0-0.2,0-0.3,0c-0.3-0.1-0.5-0.5-0.3-0.8l10.9-25.2c0.1-0.3,0.5-0.5,0.8-0.3
									c0.3,0.1,0.5,0.5,0.3,0.8l-10.9,25.2C174.1,466.6,173.9,466.7,173.7,466.8z"/>
							</g>
						</g>
					</g>
					<g>
						<g>
							<g>
								<path class="st1" d="M153.1,470.2c-0.1,0-0.2,0-0.3,0l-26.1-10.8c-0.3-0.1-0.5-0.5-0.3-0.8c0.1-0.3,0.5-0.5,0.8-0.3
									l26.1,10.8c0.3,0.1,0.5,0.5,0.3,0.8C153.5,470,153.3,470.2,153.1,470.2z"/>
							</g>
						</g>
					</g>
				</g>
			</g>
			<g>
				<g>
					<g>
						<path class="st2" d="M186.1,536.4c0.3,1.3,0.4,2,0.4,2c-0.9-0.1-1.8-0.2-2.7-0.4C27.8,516.9,2,350.1,2,350.1
							C145.5,358.9,182.1,516.8,186.1,536.4z"/>
					</g>
				</g>
				<g>
					<g>
						<path class="st3" d="M186.1,536.4c0.3,1.3,0.4,2,0.4,2c-0.9-0.1-1.8-0.2-2.7-0.4c-24.1-23.8-48.1-47.7-71.9-71.8
							c-12.3-12.5-24.6-25-36.8-37.7l-9.1-9.5l-9-9.6c-3-3.2-5.9-6.5-8.9-9.7c-1.5-1.6-2.9-3.3-4.4-4.9l-4.3-4.9l4.4,4.9
							c1.5,1.6,2.9,3.3,4.4,4.8c3,3.2,6,6.4,9,9.6l9.1,9.5l9.2,9.4c12.3,12.5,24.8,24.9,37.2,37.2
							C137.1,489.2,161.5,512.9,186.1,536.4z"/>
					</g>
				</g>
				<g>
					<g>
						<g>
							<g>
								<path class="st3" d="M66.2,406.2c-0.1,0.1-0.2,0.1-0.4,0.1c-0.3,0-0.6-0.3-0.6-0.6c0.1-8.7-1.6-17.6-4.8-25.7
									c-0.1-0.3,0-0.7,0.3-0.8c0.3-0.1,0.7,0,0.8,0.3c3.3,8.3,5,17.3,4.9,26.2C66.4,405.9,66.3,406.1,66.2,406.2z"/>
							</g>
						</g>
					</g>
					<g>
						<g>
							<g>
								<path class="st3" d="M103.7,442.2c-0.1,0.1-0.2,0.1-0.3,0.1c-0.3,0-0.6-0.2-0.7-0.6c-0.7-9.6-0.6-19.4,0.2-29.1
									c0-0.3,0.3-0.6,0.7-0.6c0.3,0,0.6,0.3,0.6,0.7c-0.9,9.6-0.9,19.3-0.2,28.9C104,441.9,103.9,442.1,103.7,442.2z"/>
							</g>
						</g>
					</g>
					<g>
						<g>
							<g>
								<path class="st3" d="M92.5,459.6c-0.1,0.1-0.2,0.1-0.3,0.1c-11,0.8-22.1-0.1-32.8-2.9c-0.3-0.1-0.5-0.4-0.4-0.7
									c0.1-0.3,0.4-0.5,0.7-0.4c10.6,2.7,21.5,3.7,32.4,2.8c0.3,0,0.6,0.2,0.7,0.6C92.7,459.3,92.6,459.5,92.5,459.6z"/>
							</g>
						</g>
					</g>
					<g>
						<g>
							<g>
								<path class="st3" d="M57.5,417.4c-0.1,0.2-0.4,0.2-0.6,0.2l-25.7-5.1c-0.3-0.1-0.5-0.4-0.5-0.7c0.1-0.3,0.4-0.5,0.7-0.5
									l25.7,5.1c0.3,0.1,0.5,0.4,0.5,0.7C57.6,417.2,57.5,417.3,57.5,417.4z"/>
							</g>
						</g>
					</g>
					<g>
						<g>
							<g>
								<path class="st3" d="M142.9,480.1c-0.1,0.1-0.2,0.1-0.3,0.1c-0.3,0-0.6-0.2-0.6-0.6l-1.6-27.4c0-0.3,0.2-0.6,0.6-0.6
									c0.3,0,0.6,0.2,0.6,0.6l1.6,27.4C143.1,479.8,143,480,142.9,480.1z"/>
							</g>
						</g>
					</g>
					<g>
						<g>
							<g>
								<path class="st3" d="M126,492.5c-0.1,0.1-0.2,0.1-0.3,0.1l-28.2,2.1c-0.3,0-0.6-0.2-0.7-0.6c0-0.3,0.2-0.6,0.6-0.7l28.2-2.1
									c0.3,0,0.6,0.2,0.7,0.6C126.3,492.1,126.2,492.3,126,492.5z"/>
							</g>
						</g>
					</g>
				</g>
			</g>
			<g>
				<g>
					<g>
						<path class="st4" d="M269.2,493.5c1.2,0.5,1.9,0.8,1.9,0.8c-0.6,0.7-1.2,1.4-1.8,2.1C166.5,615.6,12.7,546.3,12.7,546.3
							C98.3,430.7,250.6,486.2,269.2,493.5z"/>
					</g>
				</g>
				<g>
					<g>
						<path class="st3" d="M269.2,493.5c1.2,0.5,1.9,0.8,1.9,0.8c-0.6,0.7-1.2,1.4-1.8,2.1c-33.1,7.3-66.2,14.3-99.4,21.2
							c-17.2,3.5-34.4,7-51.6,10.3l-12.9,2.4l-13,2.3c-4.3,0.8-8.6,1.5-13,2.2c-2.2,0.4-4.3,0.7-6.5,1l-6.5,1l6.5-1
							c2.2-0.4,4.3-0.7,6.5-1.1c4.3-0.8,8.6-1.5,12.9-2.4l12.9-2.5l12.9-2.6c17.2-3.5,34.3-7.2,51.5-11
							C202.9,508.8,236.1,501.3,269.2,493.5z"/>
					</g>
				</g>
				<g>
					<g>
						<g>
							<g>
								<path class="st3" d="M94.7,523.1c0,0.1,0,0.3-0.1,0.4c-0.2,0.3-0.6,0.4-0.8,0.2c-7.3-4.8-15.6-8.3-24.2-10
									c-0.3-0.1-0.6-0.4-0.5-0.7c0.1-0.3,0.4-0.5,0.7-0.5c8.7,1.8,17.2,5.3,24.6,10.2C94.6,522.7,94.7,522.9,94.7,523.1z"/>
							</g>
						</g>
					</g>
					<g>
						<g>
							<g>
								<path class="st3" d="M145.3,511.2c0,0.1,0,0.2-0.1,0.3c-0.2,0.3-0.5,0.4-0.8,0.2c-8.5-4.7-16.6-10.1-24.2-16
									c-0.3-0.2-0.3-0.6-0.1-0.9c0.2-0.3,0.6-0.3,0.9-0.1c7.6,5.9,15.7,11.3,24.1,15.9C145.2,510.8,145.3,511,145.3,511.2z"/>
							</g>
						</g>
					</g>
					<g>
						<g>
							<g>
								<path class="st3" d="M153.8,530.1c0,0.1,0,0.3-0.1,0.4c-5.3,9.7-12.1,18.4-20.3,25.9c-0.2,0.2-0.6,0.2-0.9,0
									c-0.2-0.3-0.2-0.6,0-0.9c8-7.4,14.8-16,20-25.6c0.2-0.3,0.5-0.4,0.8-0.2C153.7,529.8,153.8,530,153.8,530.1z"/>
							</g>
						</g>
					</g>
					<g>
						<g>
							<g>
								<path class="st3" d="M99.3,536.5c0.1,0.2,0,0.4-0.2,0.6l-18.3,18.8c-0.2,0.2-0.6,0.2-0.9,0c-0.2-0.2-0.2-0.6,0-0.9
									l18.3-18.8c0.2-0.2,0.6-0.2,0.9,0C99.2,536.3,99.3,536.4,99.3,536.5z"/>
							</g>
						</g>
					</g>
					<g>
						<g>
							<g>
								<path class="st3" d="M198.5,499.1c0,0.1,0,0.2-0.1,0.3c-0.2,0.3-0.5,0.4-0.8,0.2L173.7,486c-0.3-0.2-0.4-0.5-0.2-0.8
									c0.2-0.3,0.5-0.4,0.8-0.2l23.9,13.6C198.4,498.7,198.5,498.9,198.5,499.1z"/>
							</g>
						</g>
					</g>
					<g>
						<g>
							<g>
								<path class="st3" d="M199.6,519.9c0,0.1,0,0.2-0.1,0.3l-13.6,24.8c-0.2,0.3-0.5,0.4-0.8,0.2c-0.3-0.2-0.4-0.5-0.2-0.8
									l13.6-24.8c0.2-0.3,0.5-0.4,0.8-0.2C199.5,519.5,199.6,519.7,199.6,519.9z"/>
							</g>
						</g>
					</g>
				</g>
			</g>
		</g>
		<g>
			<g>
				<g>
					<g>
						<path class="st4" d="M491.9,509.3c-1.2,0.6-1.8,0.9-1.8,0.9c-0.1-0.9-0.2-1.8-0.3-2.7c-18.3-156.4,136.7-222.9,136.7-222.9
							C653.8,425.8,510,500.5,491.9,509.3z"/>
					</g>
				</g>
				<g>
					<g>
						<path class="st3" d="M491.9,509.3c-1.2,0.6-1.8,0.9-1.8,0.9c-0.1-0.9-0.2-1.8-0.3-2.7c17-29.3,34.2-58.5,51.6-87.6
							c9-15.1,18.1-30.1,27.3-45l6.9-11.2l7-11.1c2.3-3.7,4.8-7.4,7.2-11c1.2-1.8,2.4-3.6,3.7-5.5l3.7-5.4l-3.6,5.5
							c-1.2,1.8-2.4,3.7-3.6,5.5c-2.3,3.7-4.7,7.4-7,11.1l-6.9,11.2l-6.8,11.3c-9,15.1-17.9,30.2-26.7,45.3
							C525.5,450,508.6,479.6,491.9,509.3z"/>
					</g>
				</g>
				<g>
					<g>
						<g>
							<g>
								<path class="st3" d="M588.1,360.7c-0.1-0.1-0.2-0.2-0.2-0.3c-0.1-0.3,0.1-0.7,0.4-0.7c8.5-2.1,16.7-5.9,23.7-11.1
									c0.3-0.2,0.7-0.1,0.9,0.1c0.2,0.3,0.1,0.7-0.1,0.9c-7.2,5.2-15.5,9.1-24.1,11.3C588.5,360.9,588.3,360.8,588.1,360.7z"/>
							</g>
						</g>
					</g>
					<g>
						<g>
							<g>
								<path class="st3" d="M562.7,406c-0.1-0.1-0.2-0.2-0.2-0.3c-0.1-0.3,0.1-0.7,0.4-0.8c9.2-3.1,18.6-5.5,28.2-7
									c0.3-0.1,0.6,0.2,0.7,0.5c0.1,0.3-0.2,0.6-0.5,0.7c-9.5,1.6-18.9,3.9-28,7C563,406.2,562.8,406.2,562.7,406z"/>
							</g>
						</g>
					</g>
					<g>
						<g>
							<g>
								<path class="st3" d="M543,399.5c-0.1-0.1-0.2-0.2-0.2-0.3c-3.6-10.5-5.4-21.4-5.4-32.5c0-0.3,0.3-0.6,0.6-0.6
									c0.3,0,0.6,0.3,0.6,0.6c0,10.9,1.8,21.7,5.3,32.1c0.1,0.3-0.1,0.7-0.4,0.8C543.3,399.6,543.1,399.6,543,399.5z"/>
							</g>
						</g>
					</g>
					<g>
						<g>
							<g>
								<path class="st3" d="M575.2,355c-0.2-0.1-0.3-0.3-0.3-0.5l-1.5-26.2c0-0.3,0.2-0.6,0.6-0.6c0.3,0,0.6,0.2,0.6,0.6l1.5,26.2
									c0,0.3-0.2,0.6-0.6,0.6C575.4,355.1,575.3,355.1,575.2,355z"/>
							</g>
						</g>
					</g>
					<g>
						<g>
							<g>
								<path class="st3" d="M535.7,453.4c-0.1-0.1-0.2-0.2-0.2-0.3c-0.1-0.3,0.1-0.7,0.4-0.8L562,444c0.3-0.1,0.7,0.1,0.8,0.4
									c0.1,0.3-0.1,0.7-0.4,0.8l-26.2,8.4C536.1,453.6,535.8,453.6,535.7,453.4z"/>
							</g>
						</g>
					</g>
					<g>
						<g>
							<g>
								<path class="st3" d="M519.5,440.2c-0.1-0.1-0.2-0.2-0.2-0.3l-9.1-26.8c-0.1-0.3,0.1-0.7,0.4-0.8c0.3-0.1,0.7,0.1,0.8,0.4
									l9.1,26.8c0.1,0.3-0.1,0.7-0.4,0.8C519.9,440.3,519.7,440.3,519.5,440.2z"/>
							</g>
						</g>
					</g>
				</g>
			</g>
			<g>
				<g>
					<g>
						<path class="st0" d="M464.5,499.5c-1.3-0.1-2-0.2-2-0.2c0.4-0.8,0.8-1.7,1.2-2.5c67.7-142.2,234.4-116,234.4-116
							C646,514.9,484.5,501.7,464.5,499.5z"/>
					</g>
				</g>
				<g>
					<g>
						<path class="st1" d="M464.5,499.5c-1.3-0.1-2-0.2-2-0.2c0.4-0.8,0.8-1.7,1.2-2.5c30-15.8,60.1-31.3,90.3-46.7
							c15.6-7.9,31.3-15.8,47.1-23.6l11.8-5.8l11.9-5.7c4-1.9,8-3.7,11.9-5.5c2-0.9,4-1.8,6-2.7l6-2.6l-6,2.7c-2,0.9-4,1.8-6,2.8
							c-3.9,1.9-7.9,3.8-11.9,5.7l-11.8,5.8l-11.7,5.9c-15.6,8-31.2,16-46.7,24.2C524.4,467.2,494.4,483.3,464.5,499.5z"/>
					</g>
				</g>
				<g>
					<g>
						<g>
							<g>
								<path class="st1" d="M625,424.9c0-0.1,0-0.3,0-0.4c0.1-0.3,0.5-0.5,0.8-0.4c8.3,2.7,17.3,3.8,26,3.2c0.3,0,0.6,0.2,0.7,0.6
									c0,0.3-0.2,0.6-0.6,0.7c-8.9,0.6-18-0.5-26.4-3.3C625.2,425.3,625.1,425.1,625,424.9z"/>
							</g>
						</g>
					</g>
					<g>
						<g>
							<g>
								<path class="st1" d="M579.3,449.8c0-0.1,0-0.2,0-0.3c0.1-0.3,0.4-0.5,0.7-0.5c9.4,2.3,18.7,5.3,27.6,9.1
									c0.3,0.1,0.5,0.5,0.3,0.8c-0.1,0.3-0.5,0.5-0.8,0.3c-8.9-3.7-18.1-6.8-27.4-9C579.6,450.1,579.4,450,579.3,449.8z"/>
							</g>
						</g>
					</g>
					<g>
						<g>
							<g>
								<path class="st1" d="M566.1,433.7c0-0.1-0.1-0.2,0-0.4c2.5-10.8,6.8-21,12.7-30.4c0.2-0.3,0.6-0.4,0.8-0.2
									c0.3,0.2,0.4,0.6,0.2,0.8c-5.8,9.3-10,19.4-12.5,30c-0.1,0.3-0.4,0.5-0.7,0.5C566.4,434.1,566.2,433.9,566.1,433.7z"/>
							</g>
						</g>
					</g>
					<g>
						<g>
							<g>
								<path class="st1" d="M617,413.2c-0.1-0.2-0.1-0.4,0-0.6l12.7-22.9c0.2-0.3,0.5-0.4,0.8-0.2c0.3,0.2,0.4,0.5,0.2,0.8
									l-12.7,22.9c-0.2,0.3-0.5,0.4-0.8,0.2C617.2,413.4,617.1,413.3,617,413.2z"/>
							</g>
						</g>
					</g>
					<g>
						<g>
							<g>
								<path class="st1" d="M531.3,475.5c0-0.1,0-0.2,0-0.3c0.1-0.3,0.4-0.5,0.7-0.4l26.6,6.8c0.3,0.1,0.5,0.4,0.4,0.7
									c-0.1,0.3-0.4,0.5-0.7,0.4l-26.6-6.8C531.5,475.9,531.3,475.7,531.3,475.5z"/>
							</g>
						</g>
					</g>
					<g>
						<g>
							<g>
								<path class="st1" d="M524.7,455.7c0-0.1,0-0.2,0-0.3l6.6-27.5c0.1-0.3,0.4-0.5,0.7-0.5c0.3,0.1,0.5,0.4,0.5,0.7l-6.6,27.5
									c-0.1,0.3-0.4,0.5-0.7,0.5C524.9,456.1,524.7,455.9,524.7,455.7z"/>
							</g>
						</g>
					</g>
				</g>
			</g>
			<g>
				<g>
					<g>
						<path class="st2" d="M405.6,496.2c-1-0.9-1.5-1.3-1.5-1.3c0.8-0.5,1.6-0.9,2.4-1.4c136-79.3,259,36.3,259,36.3
							C546.8,611.1,420.8,509.2,405.6,496.2z"/>
					</g>
				</g>
				<g>
					<g>
						<path class="st3" d="M405.6,496.2c-1-0.9-1.5-1.3-1.5-1.3c0.8-0.5,1.6-0.9,2.4-1.4c33.7,3.9,67.3,8,100.9,12.3
							c17.4,2.2,34.8,4.6,52.2,7.1l13,1.9l13,2c4.3,0.7,8.7,1.4,13,2.1c2.2,0.3,4.3,0.8,6.5,1.2l6.5,1.2l-6.5-1.1
							c-2.2-0.4-4.3-0.8-6.5-1.1c-4.3-0.7-8.7-1.4-13-2l-13-1.8l-13-1.7c-17.4-2.2-34.8-4.3-52.2-6.4
							C473.3,503.3,439.5,499.6,405.6,496.2z"/>
					</g>
				</g>
				<g>
					<g>
						<g>
							<g>
								<path class="st3" d="M580.2,525c0-0.1,0.1-0.2,0.2-0.3c0.3-0.2,0.7-0.2,0.9,0.1c5.3,6.9,12.1,12.9,19.6,17.3
									c0.3,0.2,0.4,0.5,0.2,0.8c-0.2,0.3-0.5,0.4-0.8,0.2c-7.7-4.5-14.6-10.6-20-17.6C580.2,525.4,580.2,525.2,580.2,525z"/>
							</g>
						</g>
					</g>
					<g>
						<g>
							<g>
								<path class="st3" d="M528.5,519.8c0-0.1,0.1-0.2,0.2-0.3c0.3-0.2,0.6-0.2,0.9,0c6.5,7.2,12.5,14.9,17.7,23
									c0.2,0.3,0.1,0.7-0.2,0.8c-0.3,0.2-0.7,0.1-0.8-0.2c-5.2-8.1-11.1-15.8-17.6-22.9C528.5,520.2,528.4,520,528.5,519.8z"/>
							</g>
						</g>
					</g>
					<g>
						<g>
							<g>
								<path class="st3" d="M526.6,499.1c0-0.1,0.1-0.2,0.2-0.3c8.2-7.5,17.5-13.5,27.6-17.9c0.3-0.1,0.7,0,0.8,0.3
									c0.1,0.3,0,0.7-0.3,0.8c-10,4.4-19.2,10.3-27.3,17.7c-0.2,0.2-0.6,0.2-0.9,0C526.6,499.5,526.6,499.3,526.6,499.1z"/>
							</g>
						</g>
					</g>
					<g>
						<g>
							<g>
								<path class="st3" d="M580.2,510.8c0-0.2,0.1-0.4,0.3-0.5l23.4-11.8c0.3-0.2,0.7,0,0.8,0.3c0.2,0.3,0,0.7-0.3,0.8l-23.4,11.8
									c-0.3,0.2-0.7,0-0.8-0.3C580.3,511,580.2,510.9,580.2,510.8z"/>
							</g>
						</g>
					</g>
					<g>
						<g>
							<g>
								<path class="st3" d="M474.3,514c0-0.1,0.1-0.2,0.2-0.3c0.3-0.2,0.6-0.2,0.9,0.1l18.1,20.6c0.2,0.3,0.2,0.6-0.1,0.9
									c-0.3,0.2-0.6,0.2-0.9-0.1l-18.1-20.6C474.3,514.4,474.2,514.1,474.3,514z"/>
							</g>
						</g>
					</g>
					<g>
						<g>
							<g>
								<path class="st3" d="M480,493.8c0-0.1,0.1-0.2,0.2-0.3l20.9-19c0.3-0.2,0.6-0.2,0.9,0c0.2,0.3,0.2,0.6,0,0.9l-20.9,19
									c-0.3,0.2-0.6,0.2-0.9,0C480,494.3,479.9,494,480,493.8z"/>
							</g>
						</g>
					</g>
				</g>
			</g>
		</g>
		<g>
			<g>
				<g>
					<path class="st0" d="M114.1,548.8L114.1,548.8c0,12.6,7.8,22.8,17.5,22.8h438c9.7,0,17.5-10.2,17.5-22.8l0,0H114.1z"/>
				</g>
			</g>
			<g>
				<g>
					<rect x="160.8" y="291.4" class="st4" width="379.5" height="238.3"/>
				</g>
			</g>
			<g>
				<g>
					<path class="st1" d="M547,266.2H154.2c-7.3,0-13.3,5.9-13.3,13.3v251.6c0,7.3,5.9,13.3,13.3,13.3H547c7.3,0,13.3-5.9,13.3-13.3
						V279.5C560.2,272.2,554.3,266.2,547,266.2z"/>
				</g>
			</g>
			<g>
				<g>
					<rect x="160.8" y="286.1" class="st3" width="379.5" height="238.3"/>
				</g>
			</g>
			<g>
				<g>
					<g>
						<polygon class="st5" points="295.8,548.8 200.4,548.8 200.7,544.5 201.2,539.3 295.1,539.3 						"/>
					</g>
				</g>
				<g>
					<g>
						<polygon class="st5" points="500.7,548.8 405.3,548.8 405.7,544.5 406.1,539.3 500,539.3 						"/>
					</g>
				</g>
			</g>
		</g>
		<g>
			<g>
				<g>
					<g>
						<g>
							<polygon class="st6" points="334.7,492.4 334.7,513.5 304.8,492.4 							"/>
						</g>
					</g>
					<g>
						<g>
							<rect x="104.3" y="414.6" class="st6" width="230.4" height="79.4"/>
						</g>
					</g>
					<g>
						<g>
							<g>
								<rect x="192.1" y="428.2" class="st3" width="71" height="6"/>
							</g>
						</g>
						<g>
							<g>
								<rect x="266.9" y="428.2" class="st3" width="40.2" height="6"/>
							</g>
						</g>
						<g>
							<g>
								<rect x="306.7" y="428.2" class="st3" width="11.3" height="6"/>
							</g>
						</g>
						<g>
							<g>
								<rect x="192.1" y="443.6" class="st3" width="48.9" height="6"/>
							</g>
						</g>
						<g>
							<g>
								<rect x="244.8" y="443.6" class="st3" width="46" height="6"/>
							</g>
						</g>
						<g>
							<g>
								<rect x="294.6" y="443.6" class="st3" width="23.5" height="6"/>
							</g>
						</g>
						<g>
							<g>
								<rect x="192.1" y="459" class="st3" width="43.2" height="6"/>
							</g>
						</g>
						<g>
							<g>
								<rect x="232" y="459" class="st3" width="21.2" height="6"/>
							</g>
						</g>
						<g>
							<g>
								<rect x="257" y="459" class="st3" width="43.5" height="6"/>
							</g>
						</g>
						<g>
							<g>
								<rect x="304.3" y="459" class="st3" width="13.7" height="6"/>
							</g>
						</g>
						<g>
							<g>
								<rect x="192.1" y="474.5" class="st3" width="48.6" height="6"/>
							</g>
						</g>
						<g>
							<g>
								<rect x="244.5" y="474.5" class="st3" width="50.1" height="6"/>
							</g>
						</g>
					</g>
				</g>
				<g>
					<g>
						
							<ellipse transform="matrix(0.2228 -0.9749 0.9749 0.2228 -326.2138 499.4803)" class="st3" cx="150.1" cy="454.3" rx="29.2" ry="29.2"/>
					</g>
				</g>
				<g>
					<defs>
						<path id="SVGID_1_" d="M186.5,440.9c-3.5,0-6.7,0.8-9.5,2.1c-4.4-10.5-14.8-17.9-26.9-17.9c-16.1,0-29.2,13.1-29.2,29.2
							c0,16.1,13.1,29.2,29.2,29.2c10,0,18.9-5.1,24.1-12.8c3.4,2.3,7.6,3.7,12.3,3.7c10.8,0,19.5-7.5,19.5-16.8
							S197.3,440.9,186.5,440.9z"/>
					</defs>
					<clipPath id="SVGID_2_">
						<use xlink:href="#SVGID_1_"  style="overflow:visible;"/>
					</clipPath>
					<g class="st7">
						<g>
							<g>
								<path class="st1" d="M160.5,562.4l12.8,0c0-0.4-0.1-0.9-0.4-1.2c-0.3-0.4-0.8-0.6-1.3-0.7c-0.5-0.1-1-0.1-1.5-0.1
									c-1.2-0.1-2.4-0.4-3.5-1c-0.6-0.3-1.1-0.7-1.7-0.9l-3.5,0.1c-0.5,0.5-0.8,1.2-0.9,1.9C160.5,561.1,160.5,561.7,160.5,562.4z
									"/>
							</g>
						</g>
						<g>
							<g>
								<polygon class="st8" points="160.6,554.8 161.5,558.6 165,558.5 164.8,554.4 								"/>
							</g>
						</g>
						<g>
							<g>
								<path class="st0" d="M166,522.4c0.1-2.4-0.2-4.9-0.6-7.3c-1.7-8.2-4.8-24.1-4.8-24.1c-0.5-3.4-3.3-4.4-6.7-3.9
									c-2,0.3-20.7,4.1-20.6,4.3l4.1,63.3l5.2-0.2l5.6-49.9l8.5,15.7l0,0l3.6,34.5l5-0.3L166,522.4z"/>
							</g>
						</g>
						<g>
							<g>
								<path class="st1" d="M137.1,562.4h12.8c0-0.4-0.1-0.9-0.4-1.2c-0.3-0.4-0.8-0.6-1.3-0.7c-0.5-0.1-1-0.1-1.5-0.1
									c-1.2-0.1-2.4-0.4-3.5-1c-0.6-0.3-1.1-0.7-1.7-0.9l-3.5,0.1c-0.5,0.5-0.8,1.2-0.9,1.9C137.1,561.1,137,561.7,137.1,562.4z"
									/>
							</g>
						</g>
						<g>
							<g>
								<polygon class="st8" points="137.7,554.7 138.1,558.6 141.6,558.5 142.2,554.5 								"/>
							</g>
						</g>
						<g>
							<g>
								<g>
									<g>
										<path class="st9" d="M189.3,442.5c-0.7-0.1-1.3,0.3-1.5,0.9c-0.5,1.8-1.1,3.5-1.9,5.1c-0.8,1.6-1.7,3.1-2.8,4.3
											c-1.1,1.2-2.4,2.1-3.8,2.6c-0.7,0.3-1.4,0.4-2.2,0.5c-0.8,0.1-1.5,0.1-2.3,0.1c-1.6-0.1-3.2-0.4-4.9-0.9
											c-1.6-0.5-3.3-1.1-4.9-1.9c-1.6-0.7-3.2-1.6-4.8-2.5c-1.6-0.9-3.1-1.8-4.6-2.9c-1-0.6-2.1-0.7-3.2-0.4
											c-1.1,0.3-2.1,1-2.8,2.1l0,0c-0.7,1.1-0.8,2.4-0.5,3.5c0.3,1.1,1,2.1,2.2,2.7c1.8,0.8,3.6,1.6,5.5,2.4
											c1.9,0.7,3.8,1.4,5.7,2c2,0.6,4,1.1,6.1,1.4c2.1,0.3,4.2,0.4,6.5,0.2c1.1-0.1,2.2-0.3,3.3-0.6c1.1-0.3,2.2-0.8,3.2-1.3
											c2-1.1,3.7-2.7,4.9-4.5c1.2-1.8,2.1-3.7,2.7-5.7c0.6-1.9,1-3.9,1.2-5.8C190.5,443.2,190,442.6,189.3,442.5z"/>
									</g>
								</g>
							</g>
							<g>
								<g>
									<path class="st6" d="M163.1,463.7l-10.6-5.5c-3.2-1.6-4.7-5.4-3-8.6l0,0c1.6-3.2,5.8-4.6,9-3l10.6,5.5L163.1,463.7z"/>
								</g>
							</g>
						</g>
						<g>
							<g>
								<path class="st6" d="M147.4,446L147.4,446c7-0.6,13.1,4.9,13.1,11.9l0.2,33.1c-11.2,5.4-17.5,3.6-27.4,0.4l0.7-31.1
									C134.1,452.8,139.9,446.7,147.4,446z"/>
							</g>
						</g>
						<g>
							<g>
								<path class="st3" d="M160.7,457.9c0-6.7-5.5-12.2-12.2-12.2c-0.4,0-0.7,0-1.1,0c-0.2,0-0.4,0-0.5,0.1c0,0.1,0,0.2,0,0.2
									c0.2,0,0.4,0,0.6-0.1c0.4,0,0.7,0,1.1,0c6.5,0,12,5.3,12,12l0.1,12.1h0.2L160.7,457.9z M145.5,494.4l0,0.2
									c0.7,0.1,1.3,0.1,2,0.1c1.5,0,2.9-0.1,4.4-0.4l-0.1-0.2C149.6,494.5,147.5,494.6,145.5,494.4z M133.7,460.3l-0.2,7.5h0.2
									l0.2-7.5c0.1-3.8,1.7-7.3,4.2-9.9c-0.1-0.1-0.1-0.1-0.2-0.2C135.4,452.9,133.8,456.4,133.7,460.3z M133.4,484.4l-0.2,0
									l-0.2,7.2l0.2,0.1c1.2,0.4,2.4,0.8,3.5,1.1c0-0.1,0-0.2,0-0.2c-1.1-0.3-2.2-0.7-3.4-1.1L133.4,484.4z M160.8,479.2h-0.2
									l0.1,11.8c-0.8,0.4-1.5,0.7-2.2,1l0.1,0.2c0.7-0.3,1.5-0.7,2.3-1l0.1-0.1L160.8,479.2z"/>
							</g>
						</g>
						<g>
							<g>
								<g>
									<path class="st8" d="M150.8,442.2l-0.3,8.6c-1.9,1.2-3.8,1.1-5.6-0.2l0.3-8.6L150.8,442.2z"/>
								</g>
							</g>
							<g>
								<g>
									<path class="st9" d="M150.8,442.2l-0.1,3.9c-0.4,0.1-0.8,0.2-1.3,0.2c-0.1,0-0.3,0-0.4,0c-1.5,0-3-0.8-3.8-2l0.1-2.3
										L150.8,442.2z"/>
								</g>
							</g>
							<g>
								<g>
									<path class="st8" d="M153.5,437.1l-0.3,5c-0.1,2-1.7,3.6-3.7,3.7l0,0c-1.8,0.1-3.5-0.9-4.3-2.6c-0.5-1.1-0.9-2.4-1.3-3.7
										c-0.7-2.1-0.1-4.5,1.5-6.1c1.4-1.3,3-1.7,5-1.1C152.3,433,153.7,435,153.5,437.1z"/>
								</g>
							</g>
						</g>
						<g>
							<g>
								<g>
									<g>
										<path class="st8" d="M147.1,503c0.5-0.5,0.7-1.1,0.4-1.7c-0.9-1.6-1.6-3.3-2.1-5.1c-0.6-1.8-1-3.6-1.3-5.4
											c-0.1-0.5-0.2-0.9-0.2-1.4l-0.2-1.4l-0.1-1.4c0-0.5-0.1-0.9-0.1-1.4l0-0.7l0-0.7c0-0.5,0-0.9,0-1.4c0-0.9,0-1.9,0-2.8
											c0.1-7.5,1.3-15,3.1-22.3c0.1-0.3,0.1-0.6,0.1-0.9c0-0.3,0-0.6-0.1-0.8c-0.1-0.6-0.3-1.1-0.7-1.6c-0.7-0.9-1.7-1.7-3-1.9
											l0,0c-1.3-0.3-2.5,0-3.5,0.7c-0.5,0.3-0.9,0.8-1.2,1.3c-0.2,0.3-0.3,0.5-0.4,0.8c-0.1,0.3-0.2,0.6-0.2,0.9
											c-0.8,8-1,16.1,0,24.1c0.1,1,0.3,2,0.4,3c0.1,0.5,0.2,1,0.3,1.5l0.1,0.7l0.2,0.7c0.1,0.5,0.2,1,0.3,1.5l0.4,1.5l0.4,1.5
											c0.1,0.5,0.3,1,0.4,1.5c0.6,1.9,1.3,3.8,2.2,5.7c0.9,1.8,1.9,3.6,3.2,5.3C145.7,503.3,146.6,503.4,147.1,503z"/>
									</g>
								</g>
							</g>
							<g>
								<g>
									<path class="st6" d="M134.7,469.7l1.1-11.8c0.3-3.6,3.3-6.3,6.9-6l0,0c3.6,0.3,6.4,3.6,6.1,7.2l-1.1,11.8L134.7,469.7z"/>
								</g>
							</g>
							<g>
								<g>
									<path class="st3" d="M142.7,451.7c-0.2,0-0.4,0-0.6,0c-2.1,0-4.1,1.1-5.3,2.8l0.2,0.1c1.2-1.8,3.3-2.9,5.7-2.7
										c1.7,0.2,3.3,1,4.4,2.3l0.2-0.1C146.1,452.7,144.4,451.8,142.7,451.7z M148.5,461.6l-0.6,6h0.2l0.6-6L148.5,461.6z
										 M147.6,471l-7-0.7l0,0.2l7.3,0.7l0.1-1.1l-0.2,0L147.6,471z M135.2,461.4l-0.7,6.8l0.2,0l0.7-6.9H135.2z"/>
								</g>
							</g>
						</g>
						<g>
							<g>
								<g>
									<path class="st1" d="M152.5,434.4c0,0,1,1.7,0.9,4.7c0,0,0.6-3.1,0-5.5L152.5,434.4z"/>
								</g>
							</g>
							<g>
								<g>
									<path class="st1" d="M142,439.5c0,0-2.8-4,0-7.2c3-3.4,5-3.1,7.2-2.6c2.7,0.7,4.2,1.6,5.3,1.3c0.6-0.1,1-0.6,1.1-0.3
										c0.1,0.3,0.3,2.2-1.3,3.6c-1.5,1.4-3.6,1.3-5.6,0.3c-2-1-3-0.8-3.8,0.4c-0.9,1.3,0.4,3.7,0.4,3.7l-0.6,0.2
										C144.6,439.1,142.3,437.8,142,439.5z"/>
								</g>
							</g>
						</g>
						<g>
							<g>
								<path class="st8" d="M145.9,439.1c0,1-1,1.8-2.1,1.8c-1.2,0-2.1-0.9-2-1.9s1-1.8,2.1-1.8S146,438.1,145.9,439.1z"/>
							</g>
						</g>
					</g>
				</g>
			</g>
			<g>
				<g>
					<g>
						<g>
							<polygon class="st4" points="334.7,377.5 334.7,398.6 304.8,377.5 							"/>
						</g>
					</g>
					<g>
						<g>
							<rect x="104.3" y="299.7" class="st4" width="230.4" height="79.4"/>
						</g>
					</g>
					<g>
						<g>
							<g>
								<rect x="192.1" y="313.3" class="st3" width="71" height="6"/>
							</g>
						</g>
						<g>
							<g>
								<rect x="266.9" y="313.3" class="st3" width="40.2" height="6"/>
							</g>
						</g>
						<g>
							<g>
								<rect x="306.7" y="313.3" class="st3" width="11.3" height="6"/>
							</g>
						</g>
						<g>
							<g>
								<rect x="192.1" y="328.7" class="st3" width="48.9" height="6"/>
							</g>
						</g>
						<g>
							<g>
								<rect x="244.8" y="328.7" class="st3" width="46" height="6"/>
							</g>
						</g>
						<g>
							<g>
								<rect x="294.6" y="328.7" class="st3" width="23.5" height="6"/>
							</g>
						</g>
						<g>
							<g>
								<rect x="192.1" y="344.2" class="st3" width="43.2" height="6"/>
							</g>
						</g>
						<g>
							<g>
								<rect x="232" y="344.2" class="st3" width="21.2" height="6"/>
							</g>
						</g>
						<g>
							<g>
								<rect x="257" y="344.2" class="st3" width="43.5" height="6"/>
							</g>
						</g>
						<g>
							<g>
								<rect x="304.3" y="344.2" class="st3" width="13.7" height="6"/>
							</g>
						</g>
						<g>
							<g>
								<rect x="192.1" y="359.6" class="st3" width="48.6" height="6"/>
							</g>
						</g>
						<g>
							<g>
								<rect x="244.5" y="359.6" class="st3" width="50.1" height="6"/>
							</g>
						</g>
					</g>
				</g>
				<g>
					<g>
						
							<ellipse transform="matrix(0.7071 -0.7071 0.7071 0.7071 -196.0387 205.5777)" class="st3" cx="150.1" cy="339.4" rx="29.2" ry="29.2"/>
					</g>
				</g>
				<g>
					<defs>
						<path id="SVGID_3_" d="M186.5,326.1c-3.5,0-6.7,0.8-9.5,2.1c-4.4-10.5-14.8-17.9-26.9-17.9c-16.1,0-29.2,13.1-29.2,29.2
							c0,16.1,13.1,29.2,29.2,29.2c10,0,18.9-5.1,24.1-12.8c3.4,2.3,7.6,3.7,12.3,3.7c10.8,0,19.5-7.5,19.5-16.8
							C206,333.6,197.3,326.1,186.5,326.1z"/>
					</defs>
					<clipPath id="SVGID_4_">
						<use xlink:href="#SVGID_3_"  style="overflow:visible;"/>
					</clipPath>
					<g class="st10">
						<g>
							<g>
								<path class="st1" d="M158,321.6c0.2-2.4-1.4-4.7-3.8-5.2c-1.3-0.3-2.5,0-3.6,0.6c-0.6-0.5-1.4-0.9-2.2-1.1
									c-2.3-0.5-4.6,0.7-5.5,2.8c-1.9,0.3-3.5,1.8-3.9,3.8c-0.2,1.1-0.1,2.1,0.3,3c-1.4,0.6-2.5,1.9-2.9,3.5
									c-0.5,2.4,0.8,4.7,2.9,5.6c0,0.1-0.1,0.3-0.1,0.5c-0.6,2.6,1.1,5.3,3.7,5.8c1.4,0.3,2.9,0,4-0.8c0.1,0,0.1,0,0.2,0
									c0.8,0.2,1.6,0.1,2.4-0.1c0.6,0.5,1.3,0.9,2.1,1c2.6,0.6,5.3-1.1,5.8-3.7c0.2-0.7,0.1-1.5,0-2.2c0.4-0.6,0.8-1.2,0.9-2
									c0.3-1.3,0-2.5-0.6-3.6c1-0.7,1.7-1.7,2-3C160.1,324.6,159.4,322.7,158,321.6z"/>
							</g>
						</g>
						<g>
							<g>
								<g>
									<g>
										<path class="st9" d="M184.5,371.2c-0.2-0.7-0.8-1.1-1.4-1c-3.6,0.5-7.4,0.2-10.7-0.9c-1.6-0.6-3.1-1.4-4.4-2.5
											c-0.7-0.5-1.3-1.1-1.8-1.7c-0.6-0.6-1.1-1.3-1.5-2c-0.5-0.7-0.9-1.4-1.2-2.2l-0.1-0.3l-0.1-0.3c-0.1-0.2-0.2-0.4-0.3-0.6
											c-0.2-0.4-0.3-0.8-0.4-1.2c-0.6-1.6-1-3.3-1.3-5c-0.6-3.5-0.6-7.1-0.4-10.7c0-0.6-0.1-1.1-0.3-1.6
											c-0.1-0.3-0.2-0.5-0.4-0.7c-0.2-0.2-0.3-0.4-0.5-0.7c-0.8-0.8-1.9-1.4-3.2-1.4c-1.3,0-2.5,0.4-3.3,1.3
											c-0.2,0.2-0.4,0.4-0.6,0.7c-0.2,0.3-0.3,0.5-0.4,0.8c-0.2,0.6-0.3,1.2-0.3,1.8c0.2,2.1,0.4,4.1,0.8,6.2
											c0.4,2.1,0.8,4.1,1.5,6.1c0.6,2,1.4,4,2.4,6c0.2,0.5,0.5,1,0.8,1.4c0.1,0.2,0.3,0.5,0.4,0.7l0.2,0.3l0.2,0.3
											c0.6,0.9,1.3,1.8,2,2.6c1.5,1.7,3.2,3.1,5.1,4.2c1.9,1.1,4,1.9,6.1,2.3c2.1,0.4,4.2,0.6,6.3,0.5c2.1-0.1,4.1-0.5,6.1-1
											C184.3,372.6,184.7,371.9,184.5,371.2z"/>
									</g>
								</g>
							</g>
							<g>
								<g>
									<path class="st4" d="M163.1,353.9l-0.8-10.3c-0.2-3.1-2.7-5.5-5.8-5.3l0,0c-3.1,0.2-5.7,3-5.4,6.2l0.8,10.3L163.1,353.9z"
										/>
								</g>
							</g>
						</g>
						<g>
							<g>
								<path class="st1" d="M149.6,447.2c-0.2-0.3-0.6-0.4-0.9-0.5c-0.4-0.1-0.7,0-1.1-0.1c-0.9,0-1.8-0.3-2.6-0.7
									c-0.4-0.2-0.8-0.5-1.2-0.7l-2.6,0.1c-0.4,0.4-0.6,0.9-0.7,1.4c-0.1,0.5-0.1,0.9-0.1,1.4v0.5h9.4v-0.5h0
									C149.8,447.8,149.8,447.5,149.6,447.2z"/>
							</g>
						</g>
						<g>
							<g>
								<polygon class="st8" points="140.9,442.5 141.2,445.3 143.8,445.2 144,442.6 								"/>
							</g>
						</g>
						<g>
							<g>
								<path class="st0" d="M151.7,387.4c2.5,6.4,5.8,12.2,9.4,16.4l3.9,39.4l12.7-0.7l-5.9-38.5c-0.3-1.7-0.7-3.4-1.2-5.1
									c0,0-9.1-28.2-9.1-28.2c-1-3.7-20.9-1-20.9-1c-5.5,7.6-2,32-2,32l-2.9,40.9l13.5,0.2l-0.1-40.5L151.7,387.4z"/>
							</g>
						</g>
						<g>
							<g>
								<polygon class="st8" points="170,442.9 170.8,445.3 173.3,445.2 172.9,442.7 								"/>
							</g>
						</g>
						<g>
							<g>
								<path class="st1" d="M179.1,447.2c-0.2-0.3-0.6-0.4-0.9-0.5c-0.4-0.1-0.7,0-1.1-0.1c-0.9,0-1.8-0.3-2.6-0.7
									c-0.4-0.2-0.8-0.5-1.2-0.7l-2.6,0.1c-0.4,0.4-0.6,0.9-0.7,1.4c-0.1,0.5-0.1,0.9-0.1,1.4l0,0.5l9.4,0l0-0.5h0
									C179.4,447.8,179.3,447.5,179.1,447.2z"/>
							</g>
						</g>
						<g>
							<g>
								<path class="st4" d="M148.6,335.9L148.6,335.9c7.8-0.5,14.2,6.1,13.5,14l-0.5,20.7c-8.5,3.6-15.2,1.8-20.9-1l-2-21.6
									C137.8,341.8,142.4,336.3,148.6,335.9z"/>
							</g>
						</g>
						<g>
							<g>
								<path class="st0" d="M140.8,339.6c-0.8,0.9-1.3,1.9-1.8,3c0.1,0,0.2,0,0.2,0c1.1-2.8,3.3-5,6.1-6.1l0-0.2
									C143.6,337,142,338.1,140.8,339.6z M160,371.2c-4.8,1.7-9,1.7-12.7,0.8l0,0.2c1.7,0.4,3.3,0.6,5,0.6c2.6,0,5.2-0.5,7.8-1.4
									L160,371.2z M159,339.9c-1.4-1.5-3-2.6-4.9-3.4l0,0.2c5.1,2,8.6,7.2,8.1,13.1l0,1.8l0.2,0l0-1.8
									C162.7,346.2,161.5,342.6,159,339.9z M161.6,367.7h0.2l0.2-6.7h-0.2L161.6,367.7z M140.7,369.6l-0.5-5l-0.2,0.1l0.5,5
									l0.1,0.1c0.8,0.4,1.5,0.7,2.2,1v-0.2C142.1,370.2,141.4,369.9,140.7,369.6z"/>
							</g>
						</g>
						<g>
							<g>
								<g>
									<path class="st8" d="M152.5,331.5l0,7.9c-1.7,1.1-3.4,1.1-5.1,0l0-7.9L152.5,331.5z"/>
								</g>
							</g>
							<g>
								<g>
									<path class="st9" d="M152.5,332.2l0,2c-0.8,0.5-1.7,0.7-2.6,0.8c-0.1,0-0.1,0-0.2,0c-0.9,0-1.7-0.3-2.4-0.9l0-1.8
										L152.5,332.2z"/>
								</g>
							</g>
							<g>
								<g>
									<path class="st8" d="M154.6,324.1l-0.1,4.6l0,1c-0.1,2.5-2.1,4.6-4.7,4.7c-0.3,0-0.5,0-0.8-0.1c-0.1,0-0.2-0.1-0.3-0.1
										c0,0,0,0-0.1,0c-0.4-0.1-0.7-0.4-1-0.6c-0.6-0.6-1-1.3-1.4-2.1c-0.3-0.6-0.6-1.3-0.8-1.9c-0.2-0.8-0.4-1.6-0.3-2.4l0.1-4
										l7.8-1L154.6,324.1z"/>
								</g>
							</g>
							<g>
								<g>
									<path class="st1" d="M156.2,325.3c0-0.5-0.5-1.7-0.5-1.7s-0.4-0.5-1-0.8c-0.2-0.1-0.4-0.1-0.6-0.1
										c-0.3-0.3-0.6-0.6-0.9-0.7c-1.8-1-4.3-1.1-5.6-0.5c-0.9,0.4-2.7,0.6-2.4,1c-0.6,0-0.2,0.8-0.7,2.4
										c-0.4,1.5-0.3,3.9,0.4,4.4c0.7,0.5,1.8,0.3,1.1-1.5c0,0,0-0.1,0-0.2c0.3-0.1,0.6-0.3,0.8-0.5c0.3-0.4,0.4-0.8,0.5-1.3
										s0.1-0.9,0.2-1.4c0.2-0.6,0.6-1.1,1-1.4c0.1,0,0.1-0.1,0.2-0.1c0.2,0.1,0.3,0.2,0.4,0.2c0.5,0.4,0.8,1,1.2,1.6
										c0.8,1.1,1.9,1.8,3.2,2.2c0.3,0.1,0.6,0.1,0.9,0.1c0,0.1,0,0.2,0,0.2c0,0,1-0.1,1.3-0.6
										C156.2,326.2,156.2,325.8,156.2,325.3z"/>
								</g>
							</g>
							<g>
								<g>
									
										<ellipse transform="matrix(0.2121 -0.9772 0.9772 0.2121 -206.3313 400.2772)" class="st8" cx="145.1" cy="328.1" rx="1.9" ry="1.9"/>
								</g>
							</g>
						</g>
						<g>
							<g>
								<g>
									<g>
										<path class="st8" d="M191.2,349.8c-0.3-0.6-0.9-1-1.5-0.8c-0.9,0.2-1.7,0.4-2.6,0.6c-0.4,0.1-0.9,0.1-1.3,0.2
											c-0.5,0.1-0.9,0.1-1.4,0.2c-1.8,0.2-3.6,0.3-5.4,0.2c-3.6,0-7.2-0.5-10.8-1.2l-0.7-0.1l-0.7-0.1l-1.3-0.3l-1.3-0.3
											c-0.4-0.1-0.9-0.2-1.3-0.4c-0.9-0.3-1.7-0.5-2.6-0.8l-1.3-0.4c-0.4-0.1-0.9-0.3-1.3-0.5c-3.4-1.2-6.7-2.7-9.9-4.3
											c-1-0.5-2.2-0.5-3.2,0c-1,0.4-2,1.3-2.5,2.5l0,0c-0.5,1.2-0.6,2.4-0.2,3.5c0.4,1.1,1.3,2,2.5,2.4
											c3.7,1.3,7.5,2.3,11.4,3.1c0.5,0.1,1,0.2,1.4,0.3l1.5,0.3c1,0.2,1.9,0.3,2.9,0.4c0.5,0.1,1,0.1,1.5,0.2l1.5,0.2l1.5,0.1
											l0.7,0.1l0.7,0c3.9,0.2,7.9,0.1,11.8-0.4c1.9-0.3,3.9-0.6,5.8-1.1c0.5-0.1,0.9-0.3,1.4-0.4c0.5-0.1,0.9-0.3,1.4-0.4
											c0.9-0.3,1.9-0.6,2.8-1C191.2,351.2,191.5,350.4,191.2,349.8z"/>
									</g>
								</g>
							</g>
							<g>
								<g>
									<path class="st4" d="M155,355.2l-9.6-3.7c-2.9-1.1-4.5-4.2-3.4-7.1l0,0c1.1-2.9,4.5-4.5,7.5-3.4l9.6,3.7L155,355.2z"/>
								</g>
							</g>
							<g>
								<g>
									<path class="st0" d="M154.1,342.8l4.9,1.9l-0.6,1.6l0.2,0.1l0.7-1.8l-5.2-2L154.1,342.8z M144.9,341
										c-1.5,0.7-2.6,1.9-3.2,3.3c-0.1,0.4-0.2,0.8-0.3,1.1l0.2,0c0.1-0.4,0.2-0.7,0.3-1.1c1-2.7,4-4.3,6.7-3.7l0-0.2
										C147.4,340.3,146.1,340.4,144.9,341z M145.3,351.7l3.4,1.3l0-0.2l-3.3-1.3c-1-0.4-1.8-1-2.4-1.7l-0.2,0.1
										C143.3,350.7,144.2,351.4,145.3,351.7z M152.4,354.3l-0.1,0.2l2.7,1l2.4-6.2l-0.2-0.1l-2.3,6L152.4,354.3z"/>
								</g>
							</g>
						</g>
					</g>
				</g>
			</g>
		</g>
		<g>
			<g>
				<g>
					<g>
						<polygon class="st0" points="366.5,444.8 366.5,465.9 396.4,444.8 						"/>
					</g>
				</g>
				<g>
					<g>
						
							<rect x="366.5" y="367" transform="matrix(-1 -1.224647e-16 1.224647e-16 -1 963.305 813.3732)" class="st0" width="230.4" height="79.4"/>
					</g>
				</g>
				<g>
					<g>
						<g>
							<rect x="383.1" y="380.6" class="st3" width="71" height="6"/>
						</g>
					</g>
					<g>
						<g>
							<rect x="457.9" y="380.6" class="st3" width="40.2" height="6"/>
						</g>
					</g>
					<g>
						<g>
							<rect x="497.7" y="380.6" class="st3" width="11.3" height="6"/>
						</g>
					</g>
					<g>
						<g>
							<rect x="383.1" y="396" class="st3" width="48.9" height="6"/>
						</g>
					</g>
					<g>
						<g>
							<rect x="435.8" y="396" class="st3" width="46" height="6"/>
						</g>
					</g>
					<g>
						<g>
							<rect x="485.6" y="396" class="st3" width="23.5" height="6"/>
						</g>
					</g>
					<g>
						<g>
							<rect x="383.1" y="411.4" class="st3" width="43.2" height="6"/>
						</g>
					</g>
					<g>
						<g>
							<rect x="423" y="411.4" class="st3" width="21.2" height="6"/>
						</g>
					</g>
					<g>
						<g>
							<rect x="448" y="411.4" class="st3" width="43.5" height="6"/>
						</g>
					</g>
					<g>
						<g>
							<rect x="495.3" y="411.4" class="st3" width="13.7" height="6"/>
						</g>
					</g>
					<g>
						<g>
							<rect x="383.1" y="426.8" class="st3" width="48.6" height="6"/>
						</g>
					</g>
					<g>
						<g>
							<rect x="435.5" y="426.8" class="st3" width="50.1" height="6"/>
						</g>
					</g>
				</g>
			</g>
			<g>
				<g>
					
						<ellipse transform="matrix(0.9732 -0.2298 0.2298 0.9732 -78.6971 137.4773)" class="st3" cx="551" cy="406.7" rx="29.2" ry="29.2"/>
				</g>
			</g>
			<g>
				<defs>
					<path id="SVGID_5_" d="M509,376c3.5,0,12.3,18.1,15.1,19.5c4.4-10.5,14.8-17.9,26.9-17.9c16.1,0,29.2,13.1,29.2,29.2
						c0,16.1-13.1,29.2-29.2,29.2c-4.4,0-8.6-1-12.4-2.7c-0.6-0.3-16.7,8.2-17.3,7.9c-4-2.2,8.1-14.1,5.6-17.9
						c-3.4,2.3-7.6,3.7-12.3,3.7c-10.8,0-19.5-7.5-19.5-16.8C495.1,400.8,498.3,376,509,376z"/>
				</defs>
				<clipPath id="SVGID_6_">
					<use xlink:href="#SVGID_5_"  style="overflow:visible;"/>
				</clipPath>
				<g class="st11">
					<g class="st12">
						<g>
							<polygon class="st4" points="547.2,436 547.2,436 547.2,436 547.2,436 							"/>
						</g>
					</g>
					<g>
						<g>
							<path class="st1" d="M536,505.9c0.2-0.3,0.6-0.5,0.9-0.5c0.4-0.1,0.7-0.1,1.1-0.1c0.9-0.1,1.8-0.4,2.5-0.8
								c0.4-0.2,0.8-0.5,1.2-0.7l2.6,0c0.4,0.4,0.6,0.9,0.7,1.4c0.1,0.5,0.1,0.9,0.1,1.4l0,0.5l-9.4,0.3l0-0.5l0,0
								C535.7,506.5,535.8,506.2,536,505.9z"/>
						</g>
					</g>
					<g>
						<g>
							<path class="st8" d="M534.5,463.5l1.5-7.4l12.1,3l-3.2,6.7l-0.5,35.5l-0.1,2.3l-2.6,0l-0.4-2.1l-6.9-36l0,0l0,0
								c0-0.2-0.1-0.3-0.1-0.5l0,0C534.3,464.6,534.4,464.1,534.5,463.5z"/>
						</g>
					</g>
					<g>
						<g>
							<path class="st1" d="M536,456.1c0,0,4.8-22.8,4.8-22.8c0.6-3.8,19.7-0.2,19.7-0.2c3.1,3.9,3.8,9.7,3.9,16.5
								c0.1,2.6-0.1,5.2-0.4,7.6l-14,2.1l-0.1-1.8c-0.3,0.6-0.6,1.2-0.9,1.8L536,456.1z"/>
						</g>
					</g>
					<g class="st12">
						<g>
							<polygon class="st4" points="554,436 554,436 554,436 554,436 							"/>
						</g>
					</g>
					<g>
						<g>
							<path class="st1" d="M552.2,506.7c0.2-0.3,0.6-0.4,0.9-0.5c0.4-0.1,0.7,0,1.1-0.1c0.9,0,1.8-0.3,2.5-0.7
								c0.4-0.2,0.8-0.5,1.2-0.7l2.6,0.1c0.4,0.4,0.6,0.9,0.7,1.4c0.1,0.5,0.1,0.9,0.1,1.4l0,0.5l-9.4,0l0-0.5l0,0
								C551.9,507.2,552,506.9,552.2,506.7z"/>
						</g>
					</g>
					<g>
						<g>
							<polygon class="st8" points="550.7,459.3 563,457.5 560.5,504.7 558,504.7 							"/>
						</g>
					</g>
					<g>
						<g>
							<path class="st1" d="M550.7,398.5c0,0,5.6,1.8,6.2-7.4c0,0-2-2-2.2-2.1c-0.1-0.1-3.3,5.7-3.3,5.7L550.7,398.5z"/>
						</g>
					</g>
					<g>
						<g>
							<g>
								<g>
									<path class="st9" d="M506.9,384.3c0.5-0.4,1.3-0.5,1.7,0l1,1l1,0.9c0.6,0.6,1.3,1.2,2,1.8c1.3,1.2,2.7,2.4,4.1,3.5
										c1.4,1.1,2.8,2.1,4.3,3c1.5,0.9,2.9,1.6,4.5,2.2c1.5,0.6,3.1,1,4.7,1.3c1.6,0.3,3.3,0.5,5.1,0.6c1.8,0.2,3.6,0.3,5.4,0.4
										c1.8,0.1,3.7,0.3,5.6,0.5c1.2,0.1,2.2,0.8,2.8,1.8c0.6,1,0.9,2.2,0.6,3.4v0c-0.3,1.3-1,2.3-1.9,3c-0.9,0.7-2,1-3.1,0.7
										c-1.7-0.4-3.5-0.8-5.2-1.2c-1.8-0.4-3.6-0.8-5.4-1.2c-1.8-0.4-3.7-0.9-5.6-1.6c-1.9-0.6-3.8-1.4-5.5-2.4
										c-1.8-1-3.4-2.1-4.9-3.4c-1.5-1.2-2.9-2.6-4.2-3.9c-1.3-1.4-2.5-2.8-3.7-4.2c-0.6-0.7-1.2-1.4-1.7-2.2l-0.8-1.1l-0.8-1.1
										C506.2,385.5,506.3,384.7,506.9,384.3z"/>
								</g>
							</g>
						</g>
						<g>
							<g>
								<path class="st0" d="M532.8,407.3l10.1,1.9c3.1,0.6,6.1-1.2,6.6-4.3l0,0c0.6-3.1-1.5-6.2-4.6-6.8l-10.1-1.9L532.8,407.3z"/>
							</g>
						</g>
					</g>
					<g>
						<g>
							<path class="st0" d="M552.7,397.4L552.7,397.4c-7.8-0.5-14.3,6.1-13.6,13.9l1.7,22c5.5,2.4,13.1,1.2,19.7-0.2l2-23.7
								C563.4,403.4,558.9,397.8,552.7,397.4z"/>
						</g>
					</g>
					<g>
						<g>
							<path class="st4" d="M541.2,402.6l0.2,0.1c1.5-2.1,3.6-3.7,6-4.6l-0.1-0.2c-1.9,0.7-3.7,1.9-5.1,3.4
								C541.9,401.8,541.5,402.2,541.2,402.6z M540,426.3l0.6,7.2l0.1,0.1c0.9,0.4,1.8,0.7,2.8,0.9v-0.2c-1-0.2-1.9-0.5-2.7-0.9
								l-0.5-7L540,426.3z M560.5,433.2c-2.7,0.6-5.6,1.1-8.4,1.4v0.2c2.9-0.3,5.9-0.8,8.5-1.4l0.2,0l0.5-5.6l-0.2-0.1L560.5,433.2z
								 M562.5,409.5l-0.6,7.2l0.2,0.1l0.6-7.3c0.1-0.7,0.1-1.4,0.1-2.1l-0.2,0.1C562.6,408.2,562.6,408.8,562.5,409.5z
								 M538.9,411.3l0.4,5.3h0.2l-0.4-5.3c-0.2-2.5,0.3-4.8,1.3-6.9l-0.2-0.1C539.1,406.5,538.7,408.9,538.9,411.3z M557.2,398.7
								c2,1.2,3.6,3,4.6,5.1l0.2,0c-0.4-1-0.9-1.9-1.6-2.7c-0.9-1.1-1.9-2-3.1-2.6L557.2,398.7z"/>
						</g>
					</g>
					<g>
						<g>
							<g>
								<path class="st8" d="M548.4,395.3l0.3,5.9c1.8,1,3.5,0.9,5.1-0.3l-0.3-5.9L548.4,395.3z"/>
							</g>
						</g>
						<g>
							<g>
								<path class="st9" d="M548.5,396l0.1,1.9c0.8,0.4,1.7,0.6,2.7,0.6c0.1,0,0.1,0,0.2,0c0.9-0.1,1.7-0.5,2.3-1.1l-0.1-1.8
									L548.5,396z"/>
							</g>
						</g>
						<g>
							<g>
								<path class="st8" d="M545.4,390.7l0.5,1.9l0.4,1c0.3,2.5,2.4,4.4,4.9,4.4c0.3,0,0.5,0,0.8-0.1c0.1,0,0.2-0.1,0.3-0.1
									c0,0,0,0,0.1,0c0.4-0.2,0.7-0.4,0.9-0.7c0.6-0.7,0.9-1.4,1.2-2.2c0.3-0.7,0.5-1.3,0.7-2c0.2-0.8,0.3-1.6,0.2-2.4l-0.3-4.8
									l-7.6,1.7L545.4,390.7z"/>
							</g>
						</g>
						<g>
							<g>
								<path class="st1" d="M546.1,389.1c0,0,0.1-1.6,1-3.3c0.8-1.4,3.6-3.2,6.1-1.7c0.1-0.8,0.5-1.6,1.2-2.1
									c1.4-0.9,3.3-0.5,4.2,0.9c1,1.4,0.7,3.3-0.7,4.3c-0.4,0.3-0.9,0.4-1.3,0.5c0,0.1,0.1,0.2,0.1,0.2c0.4,1.3,0.7,4-0.9,5
									c-0.5,0.3-1.8-0.1-1.9-1.8c0-0.1,0.2-3-0.1-3.8c-0.2,0.3-0.9,0.9-2.7,0.6c-0.9-0.2-1.7-0.1-2.4,0.1c-1,0.8-1.7,1.7-2.5,2.5
									c-0.8,0.7-0.3,1.5,0.2,2.2c0.7,1,0,2.5-0.8,2.9c0,0,1.4-1.4-0.1-2.7C544.4,391.7,545.1,389.4,546.1,389.1z"/>
							</g>
						</g>
						<g>
							<g>
								<path class="st8" d="M553.7,391.5c0.1,1,1,1.8,2,1.7c1-0.1,1.8-1,1.7-2s-1-1.8-2-1.7C554.4,389.6,553.6,390.5,553.7,391.5z"
									/>
							</g>
						</g>
					</g>
					<g>
						<g>
							<g>
								<g>
									<path class="st8" d="M523.9,435.6c-0.2-0.6,0-1.3,0.6-1.6l1.2-0.5l1.2-0.6c0.8-0.4,1.6-0.8,2.4-1.2
										c1.6-0.8,3.2-1.6,4.7-2.5c1.5-0.9,3-1.8,4.3-2.9c1.4-1,2.6-2.1,3.7-3.4c1.1-1.2,2.1-2.5,2.9-3.9c0.9-1.4,1.7-2.9,2.5-4.5
										c0.8-1.6,1.6-3.2,2.4-4.9c0.8-1.7,1.6-3.3,2.5-5c0.6-1,1.6-1.7,2.7-1.9c1.1-0.2,2.4,0,3.4,0.7s1.8,1.7,2.1,2.8
										c0.3,1.1,0.2,2.2-0.5,3.1c-1,1.4-2.1,2.9-3.1,4.4c-1,1.5-2,3-3.1,4.6c-1.1,1.5-2.2,3.1-3.5,4.6c-1.3,1.5-2.7,3-4.3,4.2
										c-1.6,1.3-3.2,2.4-4.9,3.3c-1.7,0.9-3.5,1.7-5.2,2.4c-1.8,0.7-3.5,1.3-5.3,1.9c-0.9,0.3-1.8,0.6-2.7,0.8l-1.3,0.4l-1.3,0.4
										C524.8,436.6,524.2,436.2,523.9,435.6z"/>
								</g>
							</g>
						</g>
						<g>
							<g>
								<path class="st0" d="M554.9,420l5.5-8.7c1.7-2.6,1.1-6.1-1.6-7.7l0,0c-2.6-1.7-6.4-0.9-8,1.7l-5.5,8.7L554.9,420z"/>
							</g>
						</g>
						<g>
							<g>
								<path class="st4" d="M545,414.1l1.7,1.1l0.1-0.2l-1.6-1l1.3-2l-0.2-0.2L545,414.1z M548.1,409.6l2.3-3.6l-0.2-0.1l-2.3,3.6
									L548.1,409.6z M552.2,403.5l0.1,0.2c1.9-1.3,4.5-1.4,6.5-0.2c1.2,0.7,1.9,1.8,2.3,3.1l0.2,0c-0.4-1.3-1.2-2.5-2.4-3.2
									c-0.3-0.2-0.6-0.4-1-0.5C556,402.1,553.9,402.4,552.2,403.5z M548.5,416l-0.1,0.2l3.4,2.1l0.1-0.2L548.5,416z M560,411.9
									l-4.3,6.8l0.2,0.1l4.3-6.9L560,411.9z"/>
							</g>
						</g>
					</g>
				</g>
			</g>
		</g>
		<g>
			<g>
				<g>
					
						<rect x="104.3" y="214.3" transform="matrix(-1 -1.224647e-16 1.224647e-16 -1 260.2754 466.1902)" class="st4" width="51.7" height="37.6"/>
				</g>
			</g>
			<g>
				<g>
					<polygon class="st0" points="104.3,251.9 104.3,266.2 124.7,251.9 					"/>
				</g>
			</g>
			<g>
				<g>
					<g>
						
							<rect x="142.4" y="230.9" transform="matrix(-1 -1.224647e-16 1.224647e-16 -1 289.2367 466.1902)" class="st3" width="4.3" height="4.3"/>
					</g>
				</g>
				<g>
					<g>
						
							<rect x="132.8" y="230.9" transform="matrix(-1 -1.224647e-16 1.224647e-16 -1 269.9292 466.1902)" class="st3" width="4.3" height="4.3"/>
					</g>
				</g>
				<g>
					<g>
						
							<rect x="123.1" y="230.9" transform="matrix(-1 -1.224647e-16 1.224647e-16 -1 250.6216 466.1902)" class="st3" width="4.3" height="4.3"/>
					</g>
				</g>
				<g>
					<g>
						
							<rect x="113.5" y="230.9" transform="matrix(-1 -1.224647e-16 1.224647e-16 -1 231.3141 466.1902)" class="st3" width="4.3" height="4.3"/>
					</g>
				</g>
			</g>
		</g>
		<g>
			<g>
				<g>
					<rect x="545.2" y="214.3" class="st0" width="51.7" height="37.6"/>
				</g>
			</g>
			<g>
				<g>
					<polygon class="st1" points="596.8,251.9 596.8,266.2 576.5,251.9 					"/>
				</g>
			</g>
			<g>
				<g>
					<g>
						<path class="st13" d="M580.5,238.5c-0.1-0.4-0.3-0.9-0.5-1.3c-0.9-1.2-2.5-1.5-3.8-1.8c-1.7-0.4-2.9-1.4-4-2.7
							c-0.9-1.2-1.8-2.6-2.2-4c-0.5-1.7-0.6-3.5-0.6-5.2c0-0.7,0-2.1-1.1-1.7c-0.6,0.2-1,0.8-1.4,1.3c-0.4,0.6-0.6,1.3-0.7,2.1
							c-0.1,0.6-0.1,1.2,0,1.8c0.2,0.7,0.6,1.7,0.1,2.3c-0.4,0.5-2.1,0.9-2.8,0.8c-0.8-0.1-1.6-0.2-2.2,0c-1.3,0.3-1.5,1.8-0.3,3.2
							c1.2,1.5-0.9,2-0.6,3.9c0.3,1.9,1.9,2.4,1,4.5c-1.4,3.4,14.9,1.3,16.3,0.9C579.6,242.2,580.8,240.3,580.5,238.5z"/>
					</g>
				</g>
				<g>
					<g>
						<rect x="578.3" y="233.6" class="st4" width="3.4" height="10.8"/>
					</g>
				</g>
			</g>
		</g>
		<g>
			<g>
				<g>
					<g>
						<rect x="419.2" y="461.6" class="st6" width="51.7" height="37.6"/>
					</g>
				</g>
				<g>
					<g>
						<polygon class="st14" points="470.8,499.2 470.8,513.5 450.5,499.2 						"/>
					</g>
				</g>
				<g>
					<g>
						<g>
							<path class="st3" d="M435.8,481.8l9,9.2l9.2-9c8-7.8-1.1-17-9-9.2C437.2,464.9,428.1,474,435.8,481.8z"/>
						</g>
					</g>
				</g>
			</g>
			<g>
				<g>
					<g>
						<g>
							
								<rect x="471.9" y="299.7" transform="matrix(-1 -1.224647e-16 1.224647e-16 -1 995.4175 637.0706)" class="st6" width="51.7" height="37.6"/>
						</g>
					</g>
					<g>
						<g>
							<polygon class="st14" points="471.9,337.3 471.9,351.7 492.2,337.3 							"/>
						</g>
					</g>
					<g>
						<g>
							<polygon class="st3" points="508.4,323.3 503.6,318.5 508.4,313.7 502.5,307.8 497.7,312.6 492.9,307.8 487,313.7 
								491.8,318.5 487,323.3 492.9,329.2 497.7,324.4 502.5,329.2 							"/>
						</g>
					</g>
				</g>
				<g>
					<g>
						<g>
							
								<rect x="366.5" y="299.7" transform="matrix(-1 -1.224647e-16 1.224647e-16 -1 784.5795 637.0706)" class="st0" width="51.7" height="37.6"/>
						</g>
					</g>
					<g>
						<g>
							<polygon class="st1" points="366.5,337.3 366.5,351.7 386.8,337.3 							"/>
						</g>
					</g>
					<g>
						<g>
							<polygon class="st3" points="405.4,312.9 398.6,308.1 391.1,318.7 384.6,314 379.8,320.8 393,330.3 397.9,323.5 397.9,323.5 
															"/>
						</g>
					</g>
				</g>
			</g>
		</g>
		<g>
			<g>
				<g>
					<polygon class="st0" points="309.4,187.2 271.7,202.4 266.5,215.4 278.3,209.1 276.3,204.9 					"/>
				</g>
			</g>
			<g>
				<g>
					<polygon class="st4" points="271.7,202.4 257,192.9 309.4,187.2 					"/>
				</g>
			</g>
			<g>
				<g>
					<polygon class="st4" points="276.3,204.9 284.6,221.9 309.4,187.2 					"/>
				</g>
			</g>
		</g>
		<g>
			<g>
				<g>
					<polygon class="st0" points="359.1,120.5 386.3,150.7 385.4,164.7 377.4,153.8 381.1,150.9 					"/>
				</g>
			</g>
			<g>
				<g>
					<polygon class="st4" points="386.3,150.7 403.7,148.5 359.1,120.5 					"/>
				</g>
			</g>
			<g>
				<g>
					<polygon class="st4" points="381.1,150.9 366.3,162.6 359.1,120.5 					"/>
				</g>
			</g>
		</g>
		<g>
			<g>
				<g>
					<path class="st4" d="M255.5,224.4l-0.8-0.9c1-0.8,1.9-1.8,2.7-2.8l0.9,0.8C257.5,222.6,256.5,223.5,255.5,224.4z"/>
				</g>
			</g>
			<g>
				<g>
					<path class="st4" d="M53.4,460.2l-0.7-0.9c2-1.6,4.1-3.4,6-5.1l0.8,0.9C57.5,456.8,55.5,458.6,53.4,460.2z M65.1,449.4
						l-0.9-0.8c1.8-1.9,3.5-3.9,5.1-6l0.9,0.7C68.7,445.4,66.9,447.4,65.1,449.4z M75,436.8l-1-0.7c1.5-2.2,2.9-4.4,4.2-6.7l1,0.6
						C77.9,432.3,76.5,434.6,75,436.8z M82.9,422.9l-1.1-0.5c1.1-2.4,2.1-4.8,3.1-7.3l1.1,0.4C85.1,418,84,420.5,82.9,422.9z
						 M88.5,408l-1.1-0.3c0.7-2.5,1.3-5.1,1.9-7.7l1.2,0.2C89.8,402.8,89.2,405.4,88.5,408z M91.6,392.3l-1.2-0.1
						c0.3-2.6,0.5-5.2,0.6-7.9l1.2,0.1C92.2,387,91.9,389.7,91.6,392.3z M91.1,376.4c-0.1-2.6-0.3-5.3-0.6-7.9l1.2-0.1
						c0.3,2.6,0.5,5.3,0.6,8L91.1,376.4z M89.4,360.7c-0.5-2.6-1.1-5.2-1.8-7.7l1.2-0.3c0.7,2.6,1.3,5.2,1.8,7.8L89.4,360.7z
						 M85.3,345.5c-0.7-1.9-1.4-3.7-2.2-5.5c-0.3-0.6-0.5-1.2-0.8-1.8l1.1-0.5c0.3,0.6,0.5,1.2,0.8,1.8c0.8,1.8,1.5,3.7,2.2,5.6
						L85.3,345.5z M78.8,331c-1.1-2.2-2.4-4.4-3.8-6.9l1-0.6c1.5,2.5,2.7,4.8,3.9,7L78.8,331z M70.9,317.3c-0.7-1.2-1.4-2.3-2.1-3.5
						c-0.7-1.1-1.3-2.2-2-3.3l1-0.6c0.7,1.1,1.3,2.2,2,3.3c0.7,1.2,1.4,2.3,2.1,3.5L70.9,317.3z M62.7,303.7c-1.5-2.5-2.7-4.8-3.9-7
						l1.1-0.6c1.1,2.2,2.4,4.4,3.9,6.9L62.7,303.7z M55.3,289.6c-1.1-2.5-2.1-5-3-7.4l1.1-0.4c0.8,2.4,1.8,4.8,2.9,7.3L55.3,289.6z
						 M50.1,274.5c-0.6-2.6-1.1-5.2-1.4-7.9l1.2-0.1c0.3,2.6,0.8,5.2,1.4,7.8L50.1,274.5z M48.1,258.6c0-0.5,0-1,0-1.6
						c0-2.1,0.1-4.3,0.3-6.4l1.2,0.1c-0.2,2.1-0.3,4.2-0.3,6.3c0,0.5,0,1,0,1.5L48.1,258.6z M50.5,242.9l-1.2-0.2
						c0.5-2.6,1.1-5.2,1.8-7.8l1.1,0.3C51.6,237.7,51,240.3,50.5,242.9z M232.9,231.7c-2.6-0.1-5.1-0.4-7.6-1l-0.4-0.1l0.3-1.2
						l0.4,0.1c2.4,0.6,4.9,0.9,7.4,1L232.9,231.7z M240.9,231.1l-0.2-1.2c2.6-0.5,5.1-1.2,7.4-2.3l0.5,1.1
						C246.3,229.8,243.7,230.6,240.9,231.1z M217.3,228c-2.3-1-4.8-2.2-7.2-3.6l0.6-1c2.4,1.4,4.7,2.6,7,3.5L217.3,228z M54.8,227.7
						l-1.1-0.4c1-2.5,2.1-4.9,3.3-7.3l1.1,0.5C56.9,222.9,55.8,225.3,54.8,227.7z M203.4,220.1c-2-1.5-4.1-3.1-6.3-4.9l0.8-0.9
						c2.2,1.8,4.3,3.4,6.3,4.8L203.4,220.1z M62,213.7l-1-0.6c1.4-2.3,3-4.4,4.6-6.5l0.9,0.7C64.9,209.3,63.4,211.5,62,213.7z
						 M191,210c-1.2-1.1-2.4-2.1-3.6-3.2c-0.8-0.7-1.6-1.4-2.3-2.1l0.8-0.9c0.8,0.7,1.6,1.4,2.3,2.1c1.2,1.1,2.4,2.1,3.6,3.2
						L191,210z M71.8,201.4l-0.9-0.8c1.9-1.9,3.9-3.7,5.9-5.4l0.8,0.9C75.6,197.7,73.6,199.5,71.8,201.4z M179.1,199.5
						c-2.2-1.9-4.2-3.5-6.2-4.9l0.7-1c2,1.5,4,3.1,6.2,5L179.1,199.5z M83.9,191.4l-0.6-1c2.2-1.4,4.6-2.8,7-4l0.5,1.1
						C88.4,188.7,86.1,190,83.9,191.4z M166.4,190.2c-2.2-1.4-4.6-2.6-6.9-3.7l0.5-1.1c2.4,1.1,4.8,2.4,7.1,3.8L166.4,190.2z
						 M98,184.4l-0.4-1.1c2.5-0.9,5-1.8,7.6-2.4l0.3,1.2C103,182.6,100.5,183.4,98,184.4z M152.2,183.5c-2.5-0.8-5-1.6-7.6-2.2
						l0.3-1.2c2.6,0.6,5.2,1.3,7.7,2.2L152.2,183.5z M113.2,180.3l-0.2-1.2c2.6-0.4,5.3-0.7,8-0.9l0.1,1.2
						C118.5,179.6,115.8,179.9,113.2,180.3z M136.8,179.9c-2.6-0.3-5.2-0.5-7.9-0.6l0-1.2c2.7,0.1,5.3,0.3,8,0.6L136.8,179.9z"/>
				</g>
			</g>
			<g>
				<g>
					<path class="st4" d="M43.6,467.1l-0.6-1c1.1-0.7,2.2-1.4,3.3-2.1l0.7,1C45.8,465.7,44.7,466.5,43.6,467.1z"/>
				</g>
			</g>
		</g>
		<g>
			<g>
				<path class="st4" d="M360.6,245.7l-0.1-1.2c2.6-0.1,5.2-0.4,7.8-1l0.2,1.2C366,245.3,363.3,245.6,360.6,245.7z M352.6,245.4
					c-0.4-0.1-0.9-0.1-1.3-0.2c-2.2-0.3-4.4-0.9-6.6-1.6l0.4-1.1c2.1,0.7,4.2,1.2,6.4,1.5c0.4,0.1,0.8,0.1,1.3,0.2L352.6,245.4z
					 M500.4,243.7c-2.5-0.6-5.1-1.4-7.7-2.2l0.4-1.1c2.5,0.8,5.1,1.6,7.6,2.2L500.4,243.7z M376.3,242.6l-0.4-1.1
					c2.5-0.9,4.9-2,7.1-3.3l0.6,1C381.3,240.5,378.9,241.6,376.3,242.6z M337.3,240.5c-2.5-1.4-4.6-3-6.5-4.8l0.8-0.9
					c1.8,1.7,3.9,3.3,6.3,4.6L337.3,240.5z M485.2,238.7c-2.4-1-4.8-2-7.3-3.2l0.5-1.1c2.5,1.2,4.9,2.2,7.3,3.2L485.2,238.7z
					 M390.3,234.6l-0.8-0.9c2-1.7,3.9-3.5,5.6-5.5l0.9,0.8C394.3,230.9,392.4,232.8,390.3,234.6z M470.7,231.9
					c-2.3-1.2-4.5-2.4-7-3.8l0.6-1c2.5,1.4,4.7,2.6,7,3.8L470.7,231.9z M325.9,229.2c-0.9-1.7-1.5-3.4-1.9-5.2
					c-0.2-0.8-0.3-1.7-0.4-2.6l1.2-0.1c0.1,0.8,0.2,1.6,0.4,2.4c0.4,1.7,1,3.4,1.8,4.9L325.9,229.2z M456.8,224
					c-2-1.2-4.2-2.5-6.8-4.1l0.6-1c2.6,1.6,4.8,2.9,6.8,4.1L456.8,224z M400.5,222.2l-1.1-0.6c1.2-2.3,2.2-4.7,2.9-7.3l1.2,0.3
					C402.8,217.3,401.8,219.9,400.5,222.2z M443.2,215.7c-2-1.2-4.4-2.7-6.8-4.2l0.6-1c2.4,1.4,4.8,2.9,6.8,4.2L443.2,215.7z
					 M325.5,213.6l-1.1-0.3c0.7-2.5,1.8-5,3.4-7.4l1,0.6C327.3,208.8,326.2,211.2,325.5,213.6z M429.6,207.5
					c-2.3-1.4-4.7-2.7-6.9-3.9l0.6-1.1c2.3,1.2,4.6,2.5,7,3.9L429.6,207.5z M404.9,206.8l-1.2-0.1c0.1-1,0.1-2,0.1-3
					c0-1.6-0.1-3.2-0.3-4.8l1.2-0.1c0.2,1.6,0.3,3.3,0.3,5C405,204.7,405,205.7,404.9,206.8z M333.7,200.5l-0.8-0.9
					c1.9-1.8,4-3.5,6.3-5l0.6,1C337.7,197.1,335.6,198.7,333.7,200.5z M415.5,200c-2.4-1.2-4.9-2.3-7.2-3.3l0.5-1.1
					c2.4,1,4.8,2.1,7.3,3.3L415.5,200z M400.9,193.9c-2.5-0.9-5.1-1.7-7.5-2.4l0.3-1.1c2.5,0.7,5.1,1.5,7.6,2.4L400.9,193.9z
					 M346.8,192l-0.5-1.1c0.6-0.3,1.3-0.5,1.9-0.7c1.9-0.7,3.8-1.2,5.7-1.7l0.3,1.2c-1.9,0.5-3.8,1-5.6,1.7
					C348.1,191.5,347.5,191.8,346.8,192z M401.9,191.2c-0.8-2.5-1.9-4.9-3.2-7.2l1-0.6c1.3,2.3,2.4,4.8,3.3,7.4L401.9,191.2z
					 M385.7,189.6c-2.6-0.5-5.3-0.9-7.8-1.2l0.1-1.2c2.6,0.3,5.2,0.7,7.9,1.2L385.7,189.6z M362.1,188.3l-0.1-1.2
					c2.5-0.3,5-0.4,7.6-0.4l0.4,0l0,1.2l-0.4,0C367,187.9,364.5,188,362.1,188.3z M394.1,177.7c-1.8-1.9-3.8-3.6-6-5l0.6-1
					c2.3,1.4,4.3,3.2,6.2,5.2L394.1,177.7z"/>
			</g>
		</g>
		<g>
			<g>
				<path class="st1" d="M648.7,579.5H52.5c-2.2,0-4-1.8-4-4l0,0c0-2.2,1.8-4,4-4h596.2c2.2,0,4,1.8,4,4l0,0
					C652.7,577.7,650.9,579.5,648.7,579.5z"/>
			</g>
		</g>
	</g>
	<g>
		<g>
			<g>
				<path class="st5" d="M515.4,204.6c-5.4,0-9.8-4.4-9.8-9.8s4.4-9.8,9.8-9.8c5.4,0,9.8,4.4,9.8,9.8S520.8,204.6,515.4,204.6z
					 M515.4,188.4c-3.5,0-6.4,2.9-6.4,6.4c0,3.5,2.9,6.4,6.4,6.4c3.5,0,6.4-2.9,6.4-6.4C521.8,191.3,518.9,188.4,515.4,188.4z"/>
			</g>
		</g>
		<g>
			<g>
				<path class="st4" d="M36.2,308.1c-3.5,0-6.4-2.9-6.4-6.4c0-3.5,2.9-6.4,6.4-6.4c3.5,0,6.4,2.9,6.4,6.4
					C42.6,305.2,39.7,308.1,36.2,308.1z M36.2,297.5c-2.3,0-4.2,1.9-4.2,4.2c0,2.3,1.9,4.2,4.2,4.2c2.3,0,4.2-1.9,4.2-4.2
					C40.4,299.4,38.5,297.5,36.2,297.5z"/>
			</g>
		</g>
		<g>
			<g>
				<path class="st5" d="M225.9,175.4h-12.8v-12.8h12.8V175.4z M215.3,173.2h8.4v-8.4h-8.4V173.2z"/>
			</g>
		</g>
		<g>
			<g>
				<path class="st4" d="M675.6,351.7l-10.3-10.3l10.3-10.3l10.3,10.3L675.6,351.7z M668.9,341.4l6.8,6.8l6.8-6.8l-6.8-6.8
					L668.9,341.4z"/>
			</g>
		</g>
		<g>
			<g>
				
					<rect x="313.3" y="122.5" transform="matrix(0.7071 -0.7071 0.7071 0.7071 3.1921 262.164)" class="st4" width="9.5" height="9.5"/>
			</g>
		</g>
	</g>
</g>
</svg>
