<?xml version="1.0" standalone="no"?><!DOCTYPE svg PUBLIC "-//W3C//DTD SVG 1.1//EN" "http://www.w3.org/Graphics/SVG/1.1/DTD/svg11.dtd"><svg t="1617287897344" class="icon" viewBox="0 0 1025 1024" version="1.1" xmlns="http://www.w3.org/2000/svg" p-id="2213" xmlns:xlink="http://www.w3.org/1999/xlink" width="200.1953125" height="200"><defs><style type="text/css"></style></defs><path d="M0 509.612635c0 281.503735 225.285134 509.663976 503.143645 509.663976s503.143645-228.160241 503.143645-509.663976S781.156179 0 503.246327 0s-503.143645 228.160241-503.143645 509.612635z m0 0" fill="#E07F28" p-id="2214"></path><path d="M0 481.066934c0 265.74199 225.285134 481.118275 503.143645 481.118275s503.143645-215.632991 503.143645-481.118275S781.156179 0 503.246327 0s-503.143645 215.632991-503.143645 481.066934z m0 0" fill="#F4C43D" p-id="2215"></path><path d="M250.59634 791.475758l-12.065179 24.438406c-0.513412 0-0.513412-0.513412-0.975483-1.026824L171.274204 214.554826v-0.513412l11.911156-22.436099c0.513412-0.513412 1.026824-0.513412 1.026824 0.513411l66.743544 597.816797c0 1.026824-0.513412 1.026824-0.513412 1.540235z m0 0" fill="#A53737" p-id="2216"></path><path d="M238.531161 817.967811a3.285836 3.285836 0 0 1-3.02913-3.080471l-66.743545-599.819102c0-1.026824 0-1.540236 0.462071-2.053648l12.11652-22.436099c0.513412-1.026824 2.002306-2.053648 3.02913-1.540236a3.285836 3.285836 0 0 1 2.515718 3.080471l66.53818 597.816797a3.850589 3.850589 0 0 1-0.513412 2.567059l-0.46207 0.462071-11.911156 25.003158zM173.635899 214.554826l65.922085 593.144748 9.03605-18.328804L183.18536 197.714916z m0 0" fill="#222222" p-id="2217"></path><path d="M235.502031 808.264327l12.11652-16.275157c0-0.513412 0.462071-0.513412 0.975483-1.026824l403.593081-45.899022h0.513411l-9.08739 15.813086c0.513412 0.513412 0.513412 1.026824-0.513412 1.026824l-406.622211 46.874505c-0.513412 0-1.026824 0-1.026824-0.513412z m0 0" fill="#A53737" p-id="2218"></path><path d="M236.015442 811.344798a3.747907 3.747907 0 0 1-3.542542-3.080471v-1.026824l12.116521-16.275157 0.975482-1.026823a11.962497 11.962497 0 0 1 2.515719-1.540236l403.644422-45.847681a3.02913 3.02913 0 0 1 2.002306 0.513412l2.515718 0.975482-10.268237 16.83991v1.026824a3.183154 3.183154 0 0 1-3.02913 2.515718l-407.135623 46.925846z m13.092003-17.353321l-9.036049 12.270544 400.461269-45.385611 7.033743-11.705791z m0 0" fill="#222222" p-id="2219"></path><path d="M184.263525 189.757032l400.461268-45.590975 66.743545 601.667385-400.461269 45.590975z m0 0" fill="#DB4944" p-id="2220"></path><path d="M249.620857 793.478065v-2.002307L182.158536 188.011431l404.106493-45.847681 66.743545 605.466634zM186.21449 191.605315l66.435497 597.816796 396.559339-45.385611-65.922086-597.816796z m0 0" p-id="2221"></path><path d="M541.598195 148.889446l5.134119-0.564753 66.076109 597.098019-5.134119 0.564754z m0 0" fill="#F7D2A1" p-id="2222"></path><path d="M548.888644 191.862021l40.508197-4.569366 0.564753 5.134119-40.508197 4.569365z m12.065179 85.99649l37.992479-4.31266 0.564753 5.134119-37.992479 4.31266z m7.033743 86.817949l40.508197-4.620707 0.564753 5.134119-40.508197 4.569366z m12.11652 86.458561l37.99248-4.31266 0.564753 5.134119-37.99248 4.31266z m9.549461 104.99273l40.508198-4.569365 0.564753 5.134118-40.508198 4.569366z m11.603109 86.561244l37.992479-4.31266 0.564753 5.134119-37.992479 4.31266z m0 0" fill="#F7D2A1" p-id="2223"></path><path d="M215.478967 222.872098l157.514766-17.918074 51.341188 460.325094-157.566107 17.918074z m0 0" fill="#F7E1C6" p-id="2224"></path><path d="M273.956581 660.966458l-46.977188-421.973227 137.851091-15.813086 46.823164 422.024568z m-38.249186-415.350213l45.33427 407.238305 122.756781-13.759438-45.488293-407.238306z m0 0" fill="#5F2A26" p-id="2225"></path><path d="M333.666383 321.601203V323.449486c0 0.256706-1.129506 0.462071-2.56706 0.513412a18.482828 18.482828 0 0 0-4.31266 1.180847 80.153863 80.153863 0 0 0-12.373226 6.006919 45.539634 45.539634 0 0 0-5.134119 3.388519c-1.488894 1.232189-2.15633 2.361695-2.053647 3.491201a4.723389 4.723389 0 0 0 2.002306 3.131812q5.59619-2.413036 8.471296-3.850589a27.929606 27.929606 0 0 0 4.107295-2.413036 13.862121 13.862121 0 0 1 1.591577-1.129506 5.750213 5.750213 0 0 1 1.232188-0.513412 2.310353 2.310353 0 0 1 1.180848 0l1.591577 0.462071a13.964803 13.964803 0 0 1 5.852895 3.542542 4.261319 4.261319 0 0 1 0.924141 4.31266c-0.359388 1.026824-0.821459 2.259012-1.437553 3.645224a52.624718 52.624718 0 0 1-2.413036 5.134119 2.053648 2.053648 0 0 0-0.359388 1.386212c0 0.308047 0.41073 0.667435 1.129506 1.180847s1.28353 1.386212 1.026824 2.207671-1.180847 1.180847-2.618401 1.026824a24.284382 24.284382 0 0 0-3.850589 0 28.134971 28.134971 0 0 0-3.799248 0.564753 18.174781 18.174781 0 0 0-3.080471 0.975483 4.826072 4.826072 0 0 0-1.899624 1.129506 9.806167 9.806167 0 0 1-3.080471 2.567059 2.977789 2.977789 0 0 1-2.310354 0 6.006919 6.006919 0 0 1-2.15633-2.567059 44.204763 44.204763 0 0 1-2.413036-5.134119 46.566458 46.566458 0 0 1-2.053647-5.647531 26.440712 26.440712 0 0 1-1.129506-4.723389 16.634545 16.634545 0 0 1 0-2.669742 6.366307 6.366307 0 0 1 0.359388-2.053647 5.59619 5.59619 0 0 1 0.975483-1.69426 16.583204 16.583204 0 0 1 1.642918-1.694259c2.104989-1.7456 3.90193-3.183154 5.493507-4.364001a39.019303 39.019303 0 0 1 5.134119-3.285836c0.616094-0.308047 0.8728-0.564753 0.718776-0.718776s-1.026824 0-2.567059 0a10.268238 10.268238 0 0 0-2.310354 0.924141l-3.285836 1.950965c-1.129506 0.616094-2.207671 1.232189-3.234494 1.899624a10.678967 10.678967 0 0 0-2.104989 1.642918 15.402356 15.402356 0 0 1-2.515718 2.361695 5.134119 5.134119 0 0 1-2.104989 0.975482c-0.616094 3.696566-1.232189 6.982402-1.796942 9.857508a61.609426 61.609426 0 0 1-2.053647 7.495814 26.081324 26.081324 0 0 1-2.721083 5.493507 13.40005 13.40005 0 0 1-3.593883 3.799248q-2.413036 1.694259-3.388519 1.232189c-0.667435-0.308047-0.8728-0.975483-0.718776-1.950966a27.878265 27.878265 0 0 1 0.616094-2.823765 6.263625 6.263625 0 0 1 0.564753-1.437553c0-0.308047 0.359388-0.41073 0.462071-0.359389s0.308047 0 0.359388 0.462071 0.308047 0 0.667435 0a7.239108 7.239108 0 0 0 1.28353-1.642918 30.804713 30.804713 0 0 0 1.488894-3.285836 32.139584 32.139584 0 0 0 1.437554-5.134119c0-1.078165 0.462071-2.310353 0.667435-3.593883s0.41073-2.618401 0.564753-3.850589 0.308047-2.515718 0.359389-3.645224a18.534169 18.534169 0 0 0 0-2.875107c-1.642918-0.975483-2.464377-1.796942-2.515719-2.515718s0.8728-1.694259 2.721083-2.926448v-4.518025a19.252946 19.252946 0 0 0 0-2.772424 6.006919 6.006919 0 0 0-0.513412-1.694259 4.826072 4.826072 0 0 0-0.924141-1.232188 6.93106 6.93106 0 0 1-1.540236-2.053648 5.134119 5.134119 0 0 1-0.667435-2.002306 1.694259 1.694259 0 0 1 0.462071-1.232189h0.975482a3.696566 3.696566 0 0 0 2.464377 0.770118h3.285836l0.872801 0.256706c0.564753-0.616094 1.386212-1.334871 2.361694-2.259012l3.131813-2.823766 3.02913-2.823765a21.717323 21.717323 0 0 0 2.207671-2.259012 6.006919 6.006919 0 0 0 1.540236-2.926448v-1.591577c0-0.205365-1.129506-0.308047-0.821459-0.308047a3.183154 3.183154 0 0 1 1.694259-0.256706 14.991627 14.991627 0 0 1 5.134119 0.564753 10.730308 10.730308 0 0 1 3.080471 1.591577 3.850589 3.850589 0 0 1 1.28353 1.437553 4.466683 4.466683 0 0 1 0.667435 1.642918 3.131812 3.131812 0 0 1 0 1.386212c0 0.462071 0 0.667435-0.564753 0.770118-1.334871 0.564753-2.413036 1.078165-3.183154 1.488895a5.493507 5.493507 0 0 0-1.848283 1.540235 6.520331 6.520331 0 0 1-1.488894 1.129506c-0.8728 0.513412-1.899624 1.180847-3.234495 1.899624l-4.620707 2.515719-5.750213 2.977789a4.004613 4.004613 0 0 1 0.41073 2.053647 3.02913 3.02913 0 0 1-0.41073 1.694259 5.442166 5.442166 0 0 0-0.616094 2.104989 19.45831 19.45831 0 0 0 0 2.926448 40.559539 40.559539 0 0 0 4.466683-1.129506l5.698872-2.053648 6.212284-2.361695 4.055954-1.642918 2.361694-1.026823 1.180848-0.513412a5.801554 5.801554 0 0 1 2.823765-0.975483 7.34179 7.34179 0 0 1 2.977789 0.359388 5.955578 5.955578 0 0 1 2.361695 1.488895 3.850589 3.850589 0 0 1 0.770118 2.567059z m-7.957885 20.177087v-1.950965c0-0.256706-0.667435 0-1.180847 0a34.55262 34.55262 0 0 1-3.183154 1.642918q-2.002306 1.026824-4.004612 1.848283l-3.696566 1.540236a16.480521 16.480521 0 0 1-2.361695 0.821459 30.342642 30.342642 0 0 0 0.718777 3.4912 19.766357 19.766357 0 0 0 1.334871 3.491201 27.878265 27.878265 0 0 0 4.672048-0.924141 12.886638 12.886638 0 0 0 3.542542-1.848283 9.344096 9.344096 0 0 0 2.56706-3.183154 18.174781 18.174781 0 0 0 1.591576-4.928754zM350.300928 414.939484V418.379343c0 0.8728 0 2.464377-0.308048 3.43986a14.067486 14.067486 0 0 1-0.667435 2.721083 14.426874 14.426874 0 0 1-1.129506 2.6184 26.029982 26.029982 0 0 1-1.848283 2.823766 4.055954 4.055954 0 0 1-1.950965 1.642918 2.310353 2.310353 0 0 1-2.310354 0c-0.513412 0-0.924141-0.564753-1.386212-0.770118l-1.283529-0.718777-1.488895-0.667435-2.361694-1.026824c-0.359388 1.078165-0.718777 2.002306-1.026824 2.772424a12.52725 12.52725 0 0 1-0.975483 1.745601q-0.718777 0.924141-1.232188 0.616094c-0.359388 0-0.616094-0.821459-0.667436-1.796942a17.250639 17.250639 0 0 1 0-2.310353 26.697418 26.697418 0 0 1 0.359389-3.131813 8.419955 8.419955 0 0 0-2.361695-1.283529 8.009225 8.009225 0 0 0-1.694259 0 9.446779 9.446779 0 0 1-0.41073 3.080471 2.772424 2.772424 0 0 1-0.8728 1.386212 0.975483 0.975483 0 0 1-0.975483 0 1.848283 1.848283 0 0 1-0.770117-0.8728 14.888945 14.888945 0 0 1-1.386213-4.107295 26.748759 26.748759 0 0 1-0.308047-4.364001 7.393131 7.393131 0 0 1-2.053647 0.770118l-1.488895 0.359388a2.669742 2.669742 0 0 0-0.924141 0.359388s-0.41073 0.41073-0.513412 0.821459c0 1.386212 0.308047 2.515718 0.41073 3.388519s0.308047 2.002306 0.564753 3.388518a5.134119 5.134119 0 0 1 0 1.488895 0.667435 0.667435 0 0 1-0.616095 0.667435 2.464377 2.464377 0 0 1-1.437553-0.564753 15.402356 15.402356 0 0 1-2.567059-2.15633 2.515718 2.515718 0 0 1-0.513412-0.821459 7.239108 7.239108 0 0 1-0.513412-1.591577c0-0.718777-0.41073-1.591577-0.616094-2.669742s-0.41073-2.361695-0.667436-3.953271a19.560993 19.560993 0 0 0-2.053647 1.180847 12.681274 12.681274 0 0 0-1.950965 1.437554 21.460617 21.460617 0 0 0-2.053648 1.848282c-0.718777 0.718777-1.488894 1.591577-2.310353 2.56706a5.852895 5.852895 0 0 1-3.234495 2.15633 13.092003 13.092003 0 0 1-4.826072 0l-1.386212-0.770118a2.721083 2.721083 0 0 1-1.026824-0.564753 0.462071 0.462071 0 0 1 0-0.667436 2.15633 2.15633 0 0 1 0.924142-0.8728 25.670594 25.670594 0 0 0 2.413035-1.642918c0.924141-0.667435 1.899624-1.437553 2.823766-2.259012l2.721083-2.56706c0.8728-0.8728 1.642918-1.642918 2.310353-2.413036s1.078165-2.721083 1.694259-4.055953 1.180847-2.618401 1.796942-3.901931a6.417649 6.417649 0 0 0 0.718777-2.310353 2.926448 2.926448 0 0 0 0-1.28353 0.718777 0.718777 0 0 0-0.667436-0.410729 0.718777 0.718777 0 0 0-0.616094 0.410729c-0.718777 1.28353-1.28353 2.413036-1.796942 3.43986s-0.924141 2.002306-1.334871 2.977789-0.821459 1.796942-1.129506 2.669741-0.718777 1.7456-1.180847 2.669742c-1.078165 2.15633-2.515718 2.053648-4.261319-0.308047a6.828378 6.828378 0 0 1-0.924141-1.591577 8.830684 8.830684 0 0 1-0.462071-1.848283 5.390825 5.390825 0 0 1 0-1.591576 1.078165 1.078165 0 0 1 0.667436-0.924142 5.134119 5.134119 0 0 0 1.796941-1.283529 14.940286 14.940286 0 0 0 1.745601-2.669742v-0.821459l-2.464377-0.513412a10.884332 10.884332 0 0 1-1.848283-0.667436l-1.899624-0.975482a13.40005 13.40005 0 0 1-1.591577-1.488895 2.515718 2.515718 0 0 1-0.770118-2.259012 1.026824 1.026824 0 0 1 0.308047-0.718777h0.564753a1.386212 1.386212 0 0 0 1.334871 0.616095 3.285836 3.285836 0 0 0 1.642918-0.718777l3.388519-2.464377 2.875106-2.15633c0-0.667435-0.718777-0.924141-1.848282-0.718776a2.669742 2.669742 0 0 1-1.437554 0v-0.41073a7.906543 7.906543 0 0 0 2.413036-2.618401q0.359388-1.026824 0-1.386212a9.292755 9.292755 0 0 1-2.515718-2.361694 19.817699 19.817699 0 0 1-1.7456-2.977789c-0.359388-0.564753-0.41073-0.8728-0.308048-0.975483s0.564753 0 1.232189 0a8.419955 8.419955 0 0 0 2.053647 0.616094 13.040662 13.040662 0 0 0 2.104989 0 9.600802 9.600802 0 0 1 3.285836 0.513412 10.987014 10.987014 0 0 1 2.56706 1.334871 5.134119 5.134119 0 0 1 1.694259 1.694259 2.875107 2.875107 0 0 1 0.667435 1.69426 8.265931 8.265931 0 0 1-0.718776 3.02913 1.540236 1.540236 0 0 1 1.488894 0 2.875107 2.875107 0 0 1 1.232189 1.129506 2.926448 2.926448 0 0 1 0.46207 1.642918 2.515718 2.515718 0 0 1-0.718776 1.642918c-0.821459 0.975483-1.488894 1.7456-1.950965 2.413036a7.906543 7.906543 0 0 0-0.924142 1.488894 0.975483 0.975483 0 0 0 0 0.975483 1.899624 1.899624 0 0 0 0.924142 0.513412 6.263625 6.263625 0 0 1 2.361694 1.283529 5.134119 5.134119 0 0 1 1.437553 2.207672 5.134119 5.134119 0 0 1 0 2.823765 6.982402 6.982402 0 0 1-1.694259 3.02913 1.642918 1.642918 0 0 0-0.46207 1.078165c0 0.359388 0.359388 0.564753 0.924141 0.513412a5.647531 5.647531 0 0 1 2.15633 0 2.875107 2.875107 0 0 1 1.28353 0.924141 1.540236 1.540236 0 0 1 0 1.334871 3.542542 3.542542 0 0 1-1.386213 1.437553 2.310353 2.310353 0 0 0 1.334871 2.15633l2.15633-1.950965 2.361695-2.053647a4.261319 4.261319 0 0 1-1.848283 0c-0.256706 0-0.256706 0 0-0.359389a30.804713 30.804713 0 0 0 4.261319-2.772424 10.78165 10.78165 0 0 0 2.053647-2.002306c0.718777-1.28353 0.924141-2.15633 0.564753-2.515718s-1.180847-0.41073-2.413035 0a15.761745 15.761745 0 0 0-1.950966 1.129506 9.446779 9.446779 0 0 0-1.950965 1.591577 2.361695 2.361695 0 0 1-2.361694 0.8728 3.285836 3.285836 0 0 1-1.848283-1.232189 3.02913 3.02913 0 0 1-0.667436-2.104989c0-0.770118 0.462071-1.232189 1.334871-1.488894a4.466683 4.466683 0 0 0 1.129506-0.564753 5.852895 5.852895 0 0 0 1.129507-0.821459l2.361694-2.002306c0.718777-0.564753 1.488894-1.078165 2.259012-1.591577l2.515719-1.437554c0.8728-0.513412 1.950965-1.026824 3.131812-1.642918a14.888945 14.888945 0 0 0 2.310354-2.926447c0.667435-1.129506 1.334871-2.361695 2.053647-3.645225a13.143344 13.143344 0 0 0-2.6184 1.180848 26.697418 26.697418 0 0 0-3.337178 2.053647 38.557232 38.557232 0 0 0-3.337177 2.56706 26.029982 26.029982 0 0 0-2.669742 2.515718 9.908849 9.908849 0 0 1-2.361694 2.207671 2.772424 2.772424 0 0 1-1.796942 0.410729 3.285836 3.285836 0 0 1-1.488894-0.975482 9.960191 9.960191 0 0 1-1.334871-1.950965 8.060567 8.060567 0 0 1-0.975483-2.259013 5.134119 5.134119 0 0 1 0.462071-2.515718 10.627626 10.627626 0 0 0 0.8728-3.131812 20.536475 20.536475 0 0 0 0-3.183154c0-1.950965 0-2.977789 0.770118-3.131812s1.129506 0 1.950965 1.078165a7.136425 7.136425 0 0 1 1.437553 2.413035c0.359388 1.026824 0.770118 2.310353 1.180848 3.747907l1.180847-0.667435 1.386212-0.770118q-1.026824-1.488894 0.616094-1.232189h1.180848a2.618401 2.618401 0 0 0 0.308047-1.591577 51.751918 51.751918 0 0 0 0-5.596189 3.747907 3.747907 0 0 0-0.821459-2.413036 14.786262 14.786262 0 0 1-2.207671-2.259012 19.560993 19.560993 0 0 1-1.796942-2.977789 3.02913 3.02913 0 0 1-0.513412-1.437553h0.975483a2.259012 2.259012 0 0 0 1.232188 0.359388h1.28353a6.417649 6.417649 0 0 1 3.43986 0 7.033743 7.033743 0 0 1 2.567059 1.591577 4.672048 4.672048 0 0 1 1.386212 5.134119 3.388518 3.388518 0 0 0 0 1.437553v6.623013l2.413036-0.616094a5.134119 5.134119 0 0 1 2.104989 0 8.62532 8.62532 0 0 0 0.718776-3.285836 4.672048 4.672048 0 0 0-0.821459-2.361695c-0.924141-1.437553-1.232189-2.413036-0.975482-2.977789s1.129506-0.564753 2.721083 0a8.676661 8.676661 0 0 1 2.6184 1.642918 9.703485 9.703485 0 0 1 1.745601 2.207671 7.393131 7.393131 0 0 1 0.770117 2.259013 2.772424 2.772424 0 0 1-0.46207 1.848282 6.520331 6.520331 0 0 0-0.924142 1.386213l-0.975482 1.899624q-0.975483 2.002306-2.002307 3.696565a19.201604 19.201604 0 0 0-1.642918 3.234495c1.28353 0.975483 1.899624 1.848283 1.950966 2.618401s-0.770118 1.334871-2.515719 1.7456l-2.310353 0.667435a11.500426 11.500426 0 0 0-2.259012 0.872801c0.462071 1.129506 0.924141 2.464377 1.386212 3.953271a7.701178 7.701178 0 0 1 2.053647 0 5.134119 5.134119 0 0 1 1.950965 0.308047l2.515719-0.8728a12.11652 12.11652 0 0 1 2.207671-0.462071h2.15633c0.770118 0 1.642918 0 2.669741 0.359389a7.547155 7.547155 0 0 1 4.518025 2.515718 5.904237 5.904237 0 0 1 0.975483 5.647531z m-18.380146 0l-1.488894 1.026823a17.866734 17.866734 0 0 0-1.796942 0.975483 5.544848 5.544848 0 0 0-0.513412 1.386212 3.337177 3.337177 0 0 0 0 1.591577 20.125746 20.125746 0 0 1 0.308047 2.053647 11.089697 11.089697 0 0 1 0 1.848283l1.796942 0.462071 2.207671 0.667435a38.557232 38.557232 0 0 0 0.41073-5.852895 15.402356 15.402356 0 0 0-0.924142-3.953272z m11.962497 3.542542a14.478215 14.478215 0 0 0 0-4.466684 4.415342 4.415342 0 0 0-1.026824-2.310353l-0.513412-0.359389a1.796942 1.796942 0 0 0-0.821459 0l-1.386212 0.308048a17.30198 17.30198 0 0 0-2.207671 0.8728v3.234495a31.728854 31.728854 0 0 1-0.410729 3.285836l-0.41073 1.950965c0 0.564753 0 1.078165-0.308047 1.488894l-0.256706 1.437554c0 0.462071 0 0.975483-0.359388 1.540235a17.353322 17.353322 0 0 0 3.285836 0 4.209977 4.209977 0 0 0 2.15633-0.975482 5.750213 5.750213 0 0 0 1.334871-2.207671 26.440712 26.440712 0 0 0 0.924141-3.593884zM347.169115 469.258461a1.796942 1.796942 0 0 1-0.410729 1.232188 10.268238 10.268238 0 0 1-2.413036 1.334871 29.880572 29.880572 0 0 0-4.415342 2.823766 36.811632 36.811632 0 0 0-4.466684 4.107295 37.427726 37.427726 0 0 0-3.953271 5.134118 26.851441 26.851441 0 0 0-2.875107 5.493508c-0.513412 3.90193-1.026824 7.136425-1.488894 9.703484a18.226122 18.226122 0 0 1-2.15633 6.263625 10.268238 10.268238 0 0 1-4.261319 3.696566 28.545701 28.545701 0 0 1-7.598496 2.002306c-2.207671 0.41073-3.593883 0-4.209977-0.564753a2.515718 2.515718 0 0 1 0-2.875107c1.026824-2.15633 1.899624-3.337177 2.669742-3.542542s1.078165 0 0.8728 1.232189 0 1.950965 1.232188 1.334871a15.915768 15.915768 0 0 0 3.542542-3.388519 17.096616 17.096616 0 0 0 2.361695-4.107295 31.831537 31.831537 0 0 0 1.540236-4.723389c0.359388-1.642918 0.718777-3.337177 1.078165-5.134119a12.681274 12.681274 0 0 1-6.571673 0.616094 7.239108 7.239108 0 0 1-4.261318-2.772424c-0.821459-0.975483-1.180847-1.694259-1.078165-2.104988s0.359388-0.616094 0.8728-0.718777a18.020757 18.020757 0 0 0 6.623013-2.669742 38.659915 38.659915 0 0 0 6.520331-5.134119q0.308047-2.413036 0.616095-5.698872c0-2.259012 0.41073-5.134119 0.616094-8.882025a30.137278 30.137278 0 0 1-2.926448-3.542542 6.674354 6.674354 0 0 1-1.232188-2.56706 1.950965 1.950965 0 0 1 0.821459-2.053647 3.337177 3.337177 0 0 1 2.515718-0.462071 11.192379 11.192379 0 0 1 6.46899 2.053648 5.134119 5.134119 0 0 1 1.540235 4.466683v2.721083c0 1.129506 0 2.002306-0.359388 2.772424a8.111908 8.111908 0 0 0 1.386212 0.821459 3.953271 3.953271 0 0 0 1.334871 0.359389 8.368614 8.368614 0 0 0 1.848283 0c0.770118 0 1.694259 0 2.823765-0.513412a9.292755 9.292755 0 0 1 2.669742-0.359389 6.160943 6.160943 0 0 1 2.413036 0.513412 5.134119 5.134119 0 0 1 1.796941 1.386212 4.004613 4.004613 0 0 1 0.513412 1.745601z m-21.871346-9.960191c0-1.7456-0.462071-2.413036-1.078165-2.104988s-0.256706 0.41073 0 0.821459a2.721083 2.721083 0 0 0 1.078165 1.283529z m32.961043 42.356481c0.308047 1.848283 0 3.02913-0.513412 3.4912a3.02913 3.02913 0 0 1-2.875107 0c-2.567059-1.129506-5.134119-2.464377-7.957884-3.953271a80.092254 80.092254 0 0 1-8.779343-5.647531l-1.488895-1.026824a5.647531 5.647531 0 0 0-1.488894-0.564753h-5.18546c-1.334871 0-1.180847-0.308047 0.359388-0.821459a23.052194 23.052194 0 0 1 2.413036-0.667435l2.618401-0.564753 2.259012-0.359389h1.437553a82.813337 82.813337 0 0 1 8.830685 1.386213 20.536475 20.536475 0 0 1 5.698872 2.002306 8.265931 8.265931 0 0 1 3.285836 2.875106 11.089697 11.089697 0 0 1 1.386212 3.85059z m-23.924994-33.525796a5.698872 5.698872 0 0 0-1.28353-0.872801l-1.283529-0.410729a10.268238 10.268238 0 0 1 0 1.7456v1.69426a13.040662 13.040662 0 0 1 1.232188-1.026824zM367.808273 576.099474c0 1.078165-0.718777 1.7456-1.437554 1.899624a1.7456 1.7456 0 0 1-1.642918 0 17.71271 17.71271 0 0 1-2.6184-2.464378 16.172474 16.172474 0 0 1-2.104989-3.439859 56.115919 56.115919 0 0 0-8.163249 3.542542 68.848533 68.848533 0 0 0-7.495813 4.466683 5.134119 5.134119 0 0 1-1.591577 0.770118 2.310353 2.310353 0 0 1-1.437553 0 6.571672 6.571672 0 0 1-1.69426-1.078165c-0.564753-0.564753-1.232189-1.28353-2.053647-2.259012a4.261319 4.261319 0 0 1-1.078165-3.645225 6.263625 6.263625 0 0 1 2.053647-3.747906q2.413036-2.464377 5.134119-5.698872c1.848283-2.104989 3.593883-4.158636 5.134119-6.109602 0.462071-0.770118 0.308047-1.026824-0.359388-0.821459a11.449085 11.449085 0 0 0-4.774731 2.56706 3.799248 3.799248 0 0 1-2.464377 1.386212c-0.718777 0-1.488894-0.667435-2.361694-2.15633a9.806167 9.806167 0 0 1-1.540236-3.234495 2.515718 2.515718 0 0 1 0.718777-2.15633c0.616094-0.667435 0.975483-1.129506 0.975482-1.334871s0-0.359388-0.667435-0.410729a11.089697 11.089697 0 0 0-3.696566 0.513412 7.495813 7.495813 0 0 0-3.131812 2.207671 14.68358 14.68358 0 0 0-2.464377 4.415342 33.217749 33.217749 0 0 0-1.69426 7.136425 51.341188 51.341188 0 0 0-0.513411 7.598496v10.935673a1.7456 1.7456 0 0 1-1.026824 1.745601 5.134119 5.134119 0 0 1-3.285836-0.359389 9.241414 9.241414 0 0 1-2.772424-1.848283 23.462923 23.462923 0 0 1-2.977789-3.285836 26.184006 26.184006 0 0 1-2.56706-4.107295 14.067486 14.067486 0 0 1-1.386212-4.055954c0-1.334871-0.359388-2.926448-0.462071-4.723389s0-3.645224-0.256706-5.493507 0-3.645224 0-5.134119v-4.209977a23.976335 23.976335 0 0 1 0.462071-3.131813 14.067486 14.067486 0 0 1 0.770118-2.6184 14.529556 14.529556 0 0 1 1.437553-2.56706 27.724242 27.724242 0 0 1 2.15633-2.823765 2.618401 2.618401 0 0 0 0.718777-1.540236 1.899624 1.899624 0 0 0-0.616094-1.386212 26.440712 26.440712 0 0 1-2.053648-2.259012 28.237654 28.237654 0 0 0-2.104989-2.413036 0.924141 0.924141 0 0 1-0.308047-0.821459 1.180847 1.180847 0 0 1 0.513412-0.616094 3.080471 3.080471 0 0 1 0.975483-0.308047 1.796942 1.796942 0 0 1 0.924141 0 32.704337 32.704337 0 0 0 3.593883 1.232188 25.670594 25.670594 0 0 0 3.850589 0.770118 9.190073 9.190073 0 0 1 4.158637 1.437553 8.060567 8.060567 0 0 1 2.413035 2.515718 1.694259 1.694259 0 0 1 0 2.104989 2.310353 2.310353 0 0 1-2.053647 0.975483 6.160943 6.160943 0 0 0-1.848283 0.410729 5.698872 5.698872 0 0 0-1.899624 1.437554 15.402356 15.402356 0 0 1-3.696565 2.875106c-0.667435 0-0.975483 0-1.026824-0.410729s-0.308047-0.256706-0.924142 0a3.542542 3.542542 0 0 0-1.488894 1.283529 8.419955 8.419955 0 0 0 1.129506 9.344097 11.911156 11.911156 0 0 1 2.002306 3.90193 1.848283 1.848283 0 0 1-0.564753 1.848283 5.134119 5.134119 0 0 0-0.770117 2.413035c0 1.232189-0.308047 2.618401-0.359389 4.158637s0 2.977789 0 4.518024a14.68358 14.68358 0 0 0 0.718777 3.645225c0.718777 1.180847 1.437553 1.334871 2.207671 0.308047a6.212284 6.212284 0 0 0 1.180847-2.310354c0.308047-2.207671 0.564753-4.158636 0.924142-5.904236s0.616094-3.388518 0.975482-4.877413 0.770118-2.926448 1.180848-4.261319 0.975483-2.669742 1.540235-4.055954a16.069792 16.069792 0 0 1 1.591577-2.823765 28.545701 28.545701 0 0 1 2.15633-2.772424 19.920381 19.920381 0 0 1 2.361695-2.310354 14.426874 14.426874 0 0 1 2.15633-1.540235 39.892103 39.892103 0 0 0 3.645224-1.848283c1.026824-0.564753 2.104989-1.28353 3.234495-2.053648s0.770118-2.618401 1.078165-4.004612a40.559539 40.559539 0 0 0 0.821459-4.055954c0-1.334871 0.359388-2.567059 0.513412-3.645225s0-1.950965 0-2.6184a1.180847 1.180847 0 0 0-0.462071-0.975483 7.239108 7.239108 0 0 0-2.618401-0.46207c-0.8728 0-1.129506-0.41073-0.8728-0.924142a7.033743 7.033743 0 0 1 4.415342-2.310353 8.060567 8.060567 0 0 1 3.131813 0 7.855202 7.855202 0 0 1 3.593883 1.283529 5.852895 5.852895 0 0 1 1.591577 2.002307 3.43986 3.43986 0 0 1 0 2.259012 15.402356 15.402356 0 0 0-0.616094 2.875107 25.0545 25.0545 0 0 0-0.308048 2.669741 8.111908 8.111908 0 0 0 3.953272 0.41073 10.268238 10.268238 0 0 1 2.515718 0 15.402356 15.402356 0 0 1 3.234495 0.821459c0.770118 0.308047 1.180847 0.564753 1.28353 0.770118s0 0.564753-0.564753 1.026823a6.520331 6.520331 0 0 1-2.002307 1.540236 11.500426 11.500426 0 0 1-2.413036 0.718777 20.947205 20.947205 0 0 0-5.134118 1.642918 18.226122 18.226122 0 0 0-4.620707 3.285836 27.005465 27.005465 0 0 0-1.180848 3.645224c0 1.078165-0.513412 2.207671-0.718776 3.388519l3.593883-0.872801a19.612334 19.612334 0 0 1 2.515718-0.359388 7.598496 7.598496 0 0 1 1.950965 0l2.053648 0.616094a8.368614 8.368614 0 0 1 3.234495 2.207671q0.359388 0.821459-0.924142 2.618401a72.442417 72.442417 0 0 1-14.529556 14.991627c-0.462071 0.513412-0.718777 0.821459-0.718777 1.026824s0.308047 0 0.821459 0l3.901931-1.232189 3.183153-1.078165 2.823766-1.129506c0.924141-0.41073 1.848283-0.821459 2.823765-1.334871a23.873653 23.873653 0 0 1-1.28353-2.464377 6.879719 6.879719 0 0 1-0.410729-1.334871 0.462071 0.462071 0 0 1 0.410729-0.46207h1.026824a10.730308 10.730308 0 0 1 2.721083 0.564753 14.324192 14.324192 0 0 1 2.721083 1.232188 20.228428 20.228428 0 0 1 2.464377 1.591577 14.529556 14.529556 0 0 1 2.053648 1.7456 6.109601 6.109601 0 0 1 0.924141 1.28353 5.134119 5.134119 0 0 1 0.462071 1.334871 6.314966 6.314966 0 0 1 0 1.7456c0.256706 1.180847 0.154024 2.002306 0 3.029131z" p-id="2226"></path><path d="M339.211231 762.930058l-18.12344 20.536475c-0.513412 0-0.513412-0.513412-0.513411-1.026824L415.65826 186.009125a0.513412 0.513412 0 0 1 0.513412-0.513412l17.610028-18.380145c0.513412-0.513412 1.026824 0 1.026823 1.026824L339.673302 762.416646c0 0.513412 0 1.026824-0.462071 0.513412z m0 0" fill="#A53737" p-id="2227"></path><path d="M322.063274 786.34164h-1.488894a4.158636 4.158636 0 0 1-2.515719-1.488895 3.080471 3.080471 0 0 1-0.513412-2.053647L412.577789 186.471196a3.799248 3.799248 0 0 1 0.975482-2.053648l17.71271-18.482828a3.080471 3.080471 0 0 1 3.542542-0.513411 2.618401 2.618401 0 0 1 1.488895 3.542542L342.18902 762.930058a2.721083 2.721083 0 0 1-1.488895 2.515718l-0.513412 0.513412zM418.173978 187.035949L324.06558 776.176084l13.605415-15.402356L431.265981 173.27651z m0 0" fill="#222222" p-id="2228"></path><path d="M320.16365 775.662672l15.402357-12.219202c0-0.513412 0.513412-0.513412 1.026823-0.513412l401.180045 65.305991a0.513412 0.513412 0 0 1 0.513412 0.513412l-13.092003 12.732615c0.513412 0.513412 0 1.026824-1.026823 1.026823l-403.593081-65.614038c0-0.513412-0.513412-0.513412-0.513412-1.026824z m0 0" fill="#A53737" p-id="2229"></path><path d="M724.680872 844.973277h-0.513411l-403.593081-65.768063a2.772424 2.772424 0 0 1-2.515719-1.488894l-0.513412-1.026824v-2.567059l16.121134-12.629933a3.799248 3.799248 0 0 1 3.4912-1.540235l401.128704 65.25465a3.953271 3.953271 0 0 1 2.002307 1.026824l2.002306 2.002306-14.118827 13.759439c0 0.513412 0 0.513412-0.46207 1.026823a2.772424 2.772424 0 0 1-3.029131 2.053648z m-399.075056-70.337428l398.048233 65.25465 9.600802-9.190073-396.097268-65.25465z m0 0" fill="#222222" p-id="2230"></path><path d="M435.167912 165.523991l397.894209 64.997944-95.135222 597.714114-397.94555-64.997944z m0 0" fill="#DB4944" p-id="2231"></path><path d="M739.26177 830.187014l-401.590775-65.768062L433.114264 163.059614l401.642116 66.281474z m-397.534821-68.28378l394.300326 64.227826 94.313763-593.760842-394.04362-64.227826z m0 0" p-id="2232"></path><path d="M695.570419 816.530258L790.654299 223.436851l5.134119 0.821459-95.289245 593.093407z m0 0" fill="#F7D2A1" p-id="2233"></path><path d="M785.05811 272.21098l0.821459-5.134119 40.251491 6.674355-0.821459 5.134119z m-11.603109 86.355879l0.770118-5.134119 37.787115 6.160943-0.821459 5.134118z m-16.01845 85.431737l0.821459-5.134119 40.251491 6.571672-0.821459 5.134119z m26.594735 92.414139l-37.735773-5.955578 0.513412-5.134119 38.249185 6.109602z m-16.583204 103.965906l-40.251491-6.623013 0.975482-5.134119 40.302833 6.623013z m-13.605415 86.150514l-38.351867-6.109601 1.026823-5.134119 37.735774 6.109601z m0 0" fill="#F7D2A1" p-id="2234"></path><path d="M456.115117 206.237553l156.487941 25.670594-72.853146 457.347305-156.487942-25.670594z m0 0" fill="#F7E1C6" p-id="2235"></path><path d="M533.434946 666.613988l-136.875608-22.436099 66.435498-419.457508 136.875608 22.436099z m-128.352971-29.059112l122.24337 19.86904 64.484532-404.209175-122.29471-19.817699z m0 0" fill="#5F2A26" p-id="2236"></path><path d="M542.67636 329.815793a2.259012 2.259012 0 0 1-0.359388 2.413036 2.515718 2.515718 0 0 1-2.823766 0 2.002306 2.002306 0 0 0-0.770118 0 7.547155 7.547155 0 0 0-1.642918 0h-3.02913l-5.134118 0.564753-5.134119 0.616095-3.080472 0.513411-1.694259 0.359389a1.796942 1.796942 0 0 0-0.770118 0.462071 8.779343 8.779343 0 0 1 1.642918 2.567059 12.732615 12.732615 0 0 1 0.872801 3.02913 5.134119 5.134119 0 0 1 2.567059 0 5.904237 5.904237 0 0 1 2.515718 1.28353c0.359388-0.821459 0.770118-1.591577 1.180848-2.413036s0.8728-1.694259 1.386212-2.56706c0-1.7456 0.564753-2.618401 2.207671-2.567059a2.926448 2.926448 0 0 1 2.567059 1.950965 8.830684 8.830684 0 0 1 0.667436 4.620707c0 2.618401-0.462071 5.134119-0.821459 7.906543s-0.718777 5.134119-1.026824 8.163249a43.434645 43.434645 0 0 1-0.8728 5.134119 41.689045 41.689045 0 0 1-3.234495 8.984708q-1.129506 2.207671-2.618401 4.77473c-0.718777 1.026824-1.232189 1.437553-1.591577 1.28353s-0.41073-1.026824 0-2.515718 0.513412-2.515718 0.821459-3.90193 0.564753-2.721083 0.872801-4.004613 0.564753-2.515718 0.821459-3.645225 0.564753-2.15633 0.821459-2.977788a59.812484 59.812484 0 0 0 2.104988-8.779344c0.564753-3.388518 1.026824-7.085084 1.28353-10.987014 0-0.975483 0-1.488894-0.308047-1.642918s-0.770118 0-1.28353 0.718777a10.268238 10.268238 0 0 0-1.386212 2.053647 6.263625 6.263625 0 0 0-0.513412 1.745601 7.136425 7.136425 0 0 1 1.026824 5.64753 19.715016 19.715016 0 0 1-3.43986 8.009226c-0.718777 1.129506-1.28353 1.540236-1.591576 1.283529a8.728002 8.728002 0 0 1-1.026824-3.696565 4.672048 4.672048 0 0 1 0-2.053648 3.234495 3.234495 0 0 1 0.513412-1.540235 11.859814 11.859814 0 0 0 0.924141-2.413036 7.752519 7.752519 0 0 0 0.359388-2.823766 4.158636 4.158636 0 0 0 0-1.848282 3.850589 3.850589 0 0 0-0.667435-1.129506 2.259012 2.259012 0 0 0-0.8728-0.616095 1.540236 1.540236 0 0 0-0.821459 0c0 1.386212-0.462071 2.875107-0.770118 4.415342s-0.564753 3.080471-0.8728 4.620707-0.667435 3.080471-1.026824 4.569366-0.718777 2.823765-1.078165 4.055954l-1.078165 3.43986a15.402356 15.402356 0 0 1-1.129506 2.6184 12.013838 12.013838 0 0 1-1.488895 2.104989 18.226122 18.226122 0 0 1-2.259012 1.950965c-0.770118 0.564753-1.232189 0.308047-1.28353-0.718776s0-2.977789 0-4.72339a47.798646 47.798646 0 0 0-0.410729-5.134119s-0.513412-0.41073-0.821459-1.078165a10.78165 10.78165 0 0 1-0.616094-2.156329 9.292755 9.292755 0 0 1 0-2.669742 4.261319 4.261319 0 0 1 0.975482-2.361695 22.89817 22.89817 0 0 0 1.386212-1.899624c0-0.462071 0.41073-0.770118 0.359389-1.026824s0-0.359388-0.41073-0.410729h-1.026824a13.246027 13.246027 0 0 0-1.232188 2.669742c-0.41073 1.129506-0.821459 2.361695-1.180848 3.696565s-0.667435 2.669742-1.026823 4.107295-0.564753 2.823765-0.821459 4.107295-0.718777 2.772424-1.232189 2.977789-0.975483 0-1.232188-1.180847a25.670594 25.670594 0 0 1-0.616095-3.285836 14.426874 14.426874 0 0 1 0-2.977789 20.536475 20.536475 0 0 1 0.718777-3.43986c0.41073-1.334871 0.924141-2.926448 1.591577-4.826071s0.975483-2.721083 1.386212-3.696566a19.920381 19.920381 0 0 1 1.026824-2.413036 6.674354 6.674354 0 0 1 0.821459-1.437553 5.442166 5.442166 0 0 1 0.770118-0.770118 14.991627 14.991627 0 0 0 2.156329-1.642918 18.636851 18.636851 0 0 0 2.413036-3.234495 4.826072 4.826072 0 0 1 2.053648-1.694259 3.747907 3.747907 0 0 1 2.567059 0 12.937979 12.937979 0 0 1 3.183154-1.386212l3.43986-1.026824a2.618401 2.618401 0 0 0-1.540236-0.410729 12.373226 12.373226 0 0 0-3.080471 0.667435c-1.334871 0.462071-3.131812 1.129506-5.134119 2.104989s-5.134119 2.207671-8.573979 3.799248a66.743545 66.743545 0 0 1-5.64753 2.361694 19.150263 19.150263 0 0 1-3.593884 1.026824 3.953271 3.953271 0 0 1-2.156329 0 3.43986 3.43986 0 0 1-1.28353-1.129506 11.141038 11.141038 0 0 0-2.515718-2.721083c-0.41073-0.359388-0.513412-0.667435-0.359389-0.975483s0.616094-0.308047 1.386212 0a2.875107 2.875107 0 0 0 1.488895 0.308048 3.02913 3.02913 0 0 0 1.488894-0.718777 24.284382 24.284382 0 0 1 3.183154-1.796942 41.945751 41.945751 0 0 1 5.134119-2.002306c1.950965-0.667435 4.31266-1.437553 7.085084-2.207671l9.600802-2.618401a11.65445 11.65445 0 0 1-2.310354-5.493507 13.554074 13.554074 0 0 1 0.667436-6.571672q0.718777-1.899624 0-2.464377c-0.359388-0.256706-0.462071-0.564753-0.359388-0.821459a0.564753 0.564753 0 0 1 0.616094-0.410729 2.15633 2.15633 0 0 1 1.540236 1.437553 11.295061 11.295061 0 0 0 0.46207 1.078165 8.317272 8.317272 0 0 0 0.513412 0.924141 3.131812 3.131812 0 0 0 0.667436 0.770118 3.90193 3.90193 0 0 0 1.129506 0.718777l1.950965-1.437554 1.437553-1.026823 1.180847-0.821459a12.270544 12.270544 0 0 0 1.129507-0.821459c0.667435-0.41073 1.078165-0.41073 1.33487 0s0 1.078165-0.667435 1.950965a23.976335 23.976335 0 0 0-2.464377 3.337177 32.704337 32.704337 0 0 0-1.899624 3.593883 28.751065 28.751065 0 0 1-1.694259 3.131813 12.989321 12.989321 0 0 1-2.207671 2.567059q1.540236-1.232189 3.234495-2.772424c1.129506-1.078165 2.207671-2.15633 3.234494-3.285836s2.002306-2.310353 2.926448-3.43986a33.474455 33.474455 0 0 0 2.207671-3.285836c0.718777-1.180847 0.975483-2.002306 0.718777-2.464377s-0.8728-0.616094-1.796942-0.410729-1.026824 0-1.026823 0l0.667435-0.462071a2.772424 2.772424 0 0 1 1.899624-0.359388 3.388518 3.388518 0 0 1 1.796942 0.821459 4.774731 4.774731 0 0 1 1.386212 1.950965 6.571672 6.571672 0 0 1 0.564753 2.977789 16.788569 16.788569 0 0 1-0.256706 2.926447 10.268238 10.268238 0 0 1-0.924142 2.464377 9.138732 9.138732 0 0 1-1.848282 2.310354 19.047581 19.047581 0 0 1-3.131813 2.361695h5.134119c1.694259 0 3.234495 0 4.723389 0.308047a3.747907 3.747907 0 0 1 1.745601 0.8728 5.134119 5.134119 0 0 1 0.359388 2.053647z m-26.286688 14.837604a10.987014 10.987014 0 0 0 0.308047-4.620707 1.848283 1.848283 0 0 0-1.694259-1.386212 2.977789 2.977789 0 0 0-1.745601 0 5.134119 5.134119 0 0 0-1.591577 1.129506 6.006919 6.006919 0 0 0-1.129506 1.7456 6.46899 6.46899 0 0 0-0.410729 2.207671 4.107295 4.107295 0 0 1 3.234494-0.718776 2.515718 2.515718 0 0 1 2.002307 2.002306c0 0.41073 0 0.564753 0.462071 0.513412s0.41073-0.205365 0.564753-0.8728z m-1.540236 6.571672a20.895864 20.895864 0 0 1-1.591577 3.080471 22.128052 22.128052 0 0 1-1.642918 2.053648 2.515718 2.515718 0 0 0-0.359388 3.183153c0.359388 0.564753 0.667435 0.8728 0.8728 0.924142s0.41073 0 0.616094-0.667436a31.882878 31.882878 0 0 0 1.386212-4.261318 27.005465 27.005465 0 0 0 0.718777-4.31266zM525.528403 425.310404l-0.513412 1.283529c0 0.41073-0.308047 0.975483-0.564753 1.745601s-0.770118 2.207671-1.129506 3.02913a14.478215 14.478215 0 0 1-1.180847 2.361694 14.27285 14.27285 0 0 1-1.488895 2.104989 26.954124 26.954124 0 0 1-2.104988 2.15633 3.234495 3.234495 0 0 1-1.899624 0.975483 1.694259 1.694259 0 0 1-1.69426-0.770118l-0.821459-1.078165-0.821459-0.975483-0.924141-0.975482-1.334871-1.232189c-0.513412 0.924141-1.026824 1.642918-1.437553 2.259013a8.984708 8.984708 0 0 1-1.180848 1.386212c-0.513412 0.462071-0.8728 0.513412-1.078165 0s0-0.924141 0-1.848283a20.998546 20.998546 0 0 1 0.616095-2.104989 23.924994 23.924994 0 0 1 1.026823-2.772424 6.674354 6.674354 0 0 0-1.488894-1.7456 4.004613 4.004613 0 0 0-1.180847-0.667436 11.346403 11.346403 0 0 1-1.078165 2.721083 3.43986 3.43986 0 0 1-1.026824 1.078165 0.564753 0.564753 0 0 1-0.718777 0A1.386212 1.386212 0 0 1 503.143645 431.265981a15.402356 15.402356 0 0 1 0-4.055953 31.318125 31.318125 0 0 1 0.8728-4.107295 4.466683 4.466683 0 0 1-1.7456 0h-2.413036a1.28353 1.28353 0 0 0-0.564753 0.667435c-0.256706 1.28353-0.41073 2.361695-0.564753 3.183154s-0.308047 1.950965-0.41073 3.234494a7.033743 7.033743 0 0 1-0.308047 1.386213q0 0.513412-0.616094 0.46207s-0.616094-0.308047-0.975483-0.8728a26.697418 26.697418 0 0 1-1.386212-2.618401 2.053648 2.053648 0 0 1-0.308047-0.770117 8.111908 8.111908 0 0 1 0-1.591577v-2.56706c0-1.026824 0.308047-2.310353 0.513412-3.799248l-1.899624 0.564754a10.987014 10.987014 0 0 0-1.796942 0.821459 22.333417 22.333417 0 0 0-2.002306 1.180847 26.33803 26.33803 0 0 0-2.361695 1.796941 4.569366 4.569366 0 0 1-3.02913 1.129507 8.933367 8.933367 0 0 1-3.593883-1.334871l-1.078165-0.821459a2.977789 2.977789 0 0 1-0.154023-0.513412 0.667435 0.667435 0 0 1 0-0.667436 1.899624 1.899624 0 0 1 0.924141-0.564753 12.886638 12.886638 0 0 0 2.207671-0.8728l2.721083-1.386212 2.669742-1.642918a26.33803 26.33803 0 0 0 2.361695-1.642918c0.770118-1.078165 1.488894-2.207671 2.259012-3.234495l2.361695-3.131812a9.138732 9.138732 0 0 0 1.129506-1.950966 2.875107 2.875107 0 0 0 0-1.232188s0-0.462071-0.359389-0.513412a0.616094 0.616094 0 0 0-0.616094 0l-2.207671 2.669742-1.7456 2.361695-1.540236 2.207671c-0.462071 0.718777-0.975483 1.386212-1.540236 2.104988-1.334871 1.694259-2.413036 1.28353-3.131812-1.334871a5.852895 5.852895 0 0 1 0-1.694259 6.93106 6.93106 0 0 1 0-1.796941 4.261319 4.261319 0 0 1 0.410729-1.437554 0.8728 0.8728 0 0 1 0.770118-0.616094 4.826072 4.826072 0 0 0 1.642918-0.770118 11.962497 11.962497 0 0 0 2.002307-2.002306c0.308047-0.41073 0.41073-0.667435 0-0.770118s-1.28353-0.770118-1.745601-1.078165a6.212284 6.212284 0 0 1-1.232188-1.078165 7.393131 7.393131 0 0 1-0.924142-1.283529 7.957884 7.957884 0 0 1-0.821459-1.745601 2.669742 2.669742 0 0 1 0-2.259012c0-0.308047 0.256706-0.513412 0.41073-0.564753s0.308047 0 0.410729 0.359388a0.975483 0.975483 0 0 0 0.821459 0.8728 2.104989 2.104989 0 0 0 1.437553 0l3.131813-1.437553 2.721083-1.180847c0-0.667435-0.308047-1.026824-1.232189-1.180848a2.207671 2.207671 0 0 1-1.078165-0.256706v-0.359388a7.34179 7.34179 0 0 0 3.183154-1.694259 1.129506 1.129506 0 0 0 0-1.28353 8.419955 8.419955 0 0 1-1.28353-2.772424 23.360241 23.360241 0 0 1-0.616094-3.183154v-0.975482c0-0.051341 0.41073 0 0.8728 0.513412a6.366307 6.366307 0 0 0 1.386212 1.078165 16.634545 16.634545 0 0 0 1.591577 0.667435 6.366307 6.366307 0 0 1 2.310354 1.28353 8.933367 8.933367 0 0 1 1.591577 1.848283 6.006919 6.006919 0 0 1 0.8728 1.950965 3.388518 3.388518 0 0 1 0 1.7456 7.701178 7.701178 0 0 1-1.334871 2.567059 1.232189 1.232189 0 0 1 1.180847 0.462071 2.669742 2.669742 0 0 1 0.616095 1.334871 4.209977 4.209977 0 0 1 0 1.591577 2.515718 2.515718 0 0 1-0.975483 1.334871 22.590123 22.590123 0 0 0-2.053648 1.694259l-1.129506 1.129506a1.078165 1.078165 0 0 0 0 0.8728 1.642918 1.642918 0 0 0 0.564753 0.718777 5.134119 5.134119 0 0 1 1.437554 1.7456 5.134119 5.134119 0 0 1 0.513411 2.413036 5.904237 5.904237 0 0 1-0.616094 2.56706 7.34179 7.34179 0 0 1-2.053647 2.361694 1.334871 1.334871 0 0 0-0.616095 0.872801c0 0.359388 0 0.564753 0.564754 0.718776a3.337177 3.337177 0 0 1 1.540235 0.770118 2.104989 2.104989 0 0 1 0.718777 1.129506 1.488894 1.488894 0 0 1 0 1.232189 2.669742 2.669742 0 0 1-1.386212 0.975482 2.413036 2.413036 0 0 0 0.410729 2.310354l2.15633-1.232189 2.310354-1.28353c-0.821459 0-1.334871 0-1.488895-0.359388s0-0.256706 0-0.308047a23.514264 23.514264 0 0 0 3.90193-1.437553 7.34179 7.34179 0 0 0 2.053648-1.334871c0.924141-1.026824 1.232189-1.7456 1.078165-2.15633s-0.770118-0.718777-1.796942-0.718777a13.708097 13.708097 0 0 0-1.7456 0.564753 6.05826 6.05826 0 0 0-1.899624 0.975483 1.7456 1.7456 0 0 1-2.002306 0 2.926448 2.926448 0 0 1-1.540236-1.848283 3.491201 3.491201 0 0 1 0-2.053647 1.28353 1.28353 0 0 1 1.386212-1.026824 2.464377 2.464377 0 0 0 0.975483 0l1.078165-0.41073a20.536475 20.536475 0 0 1 2.259012-1.232188 18.739534 18.739534 0 0 1 2.104989-0.924142l2.259012-0.718776 2.772424-0.667436a11.705791 11.705791 0 0 0 2.464377-2.104988c0.821459-0.8728 1.642918-1.796942 2.464377-2.823766a9.652143 9.652143 0 0 0-2.259012 0.41073c-0.924141 0.256706-1.950965 0.616094-3.02913 1.026824s-2.104989 0.975483-3.131813 1.540235a20.228428 20.228428 0 0 0-2.669742 1.642918 6.46899 6.46899 0 0 1-2.310353 1.386212 1.848283 1.848283 0 0 1-1.488894 0 2.567059 2.567059 0 0 1-0.872801-1.232188 16.737227 16.737227 0 0 1-0.513412-2.15633 9.49812 9.49812 0 0 1 0-2.310354 5.544848 5.544848 0 0 1 0.975483-2.156329 13.246027 13.246027 0 0 0 1.437553-2.618401c0.359388-0.924141 0.667435-1.848283 0.975483-2.875107s0.975483-2.669742 1.334871-2.721083 0.821459 0.462071 1.232188 1.488895a8.830684 8.830684 0 0 1 0.462071 2.567059v3.747907l1.078165-0.359388 1.232188-0.359389q-0.41073-1.540236 0.770118-0.924141t0.924142 0a2.875107 2.875107 0 0 0 0.616094-1.386212c0.616094-2.259012 1.026824-3.953271 1.28353-5.134119a3.953271 3.953271 0 0 0 0-2.413036 12.886638 12.886638 0 0 1-1.078165-2.6184 30.804713 30.804713 0 0 1-0.616095-3.131813 6.417649 6.417649 0 0 1 0-1.488894s0.308047 0 0.667436 0.46207a2.15633 2.15633 0 0 0 0.821459 0.616095 3.337177 3.337177 0 0 0 1.026824 0 4.261319 4.261319 0 0 1 2.567059 1.026823 6.520331 6.520331 0 0 1 1.540236 2.053648 5.134119 5.134119 0 0 1 0 5.134119 9.292755 9.292755 0 0 0-0.513412 1.283529c0 0.616094-0.359388 1.232189-0.564753 1.950966s-0.462071 1.437553-0.667436 2.15633-0.359388 1.386212-0.513412 1.950965h2.002307a2.823765 2.823765 0 0 1 1.591577 0.410729 8.728002 8.728002 0 0 0 1.386212-2.823765 6.109601 6.109601 0 0 0 0-2.361695c-0.359388-1.540236-0.359388-2.567059 0-2.977789s0.975483 0 2.002306 0.718777a7.34179 7.34179 0 0 1 1.591577 2.15633 9.49812 9.49812 0 0 1 0.718776 2.464377 6.777037 6.777037 0 0 1 0 2.259012 2.772424 2.772424 0 0 1-0.821459 1.540236l-1.026823 1.026824-1.232189 1.540235-2.464377 2.875107a21.460617 21.460617 0 0 0-2.002306 2.515718 4.672048 4.672048 0 0 1 0.821459 2.875106c0 0.718777-0.975483 1.026824-2.361695 0.975483h-1.899624a10.832991 10.832991 0 0 0-1.950965 0 33.782502 33.782502 0 0 1 0 4.004613 3.696566 3.696566 0 0 1 1.591577 0 4.209977 4.209977 0 0 1 1.437553 0.770118h2.104989a6.520331 6.520331 0 0 1 1.7456 0 6.109601 6.109601 0 0 1 1.642918 0.513411l1.899624 0.975483a6.314966 6.314966 0 0 1 2.823766 3.43986 6.674354 6.674354 0 0 1-0.41073 5.442166z m-13.862121-4.466684a8.573978 8.573978 0 0 1-1.540235 0.359389 10.935673 10.935673 0 0 0-1.642918 0.410729 7.906543 7.906543 0 0 0-0.718777 1.180847 3.953271 3.953271 0 0 0-0.41073 1.437554c0 0.718777 0 1.386212-0.308047 1.899624s0 1.078165-0.410729 1.694259l1.180847 0.8728 1.540236 1.180847c0.821459-2.15633 1.386212-3.90193 1.7456-5.134118a21.255252 21.255252 0 0 0 0.308047-3.901931z m8.060567 6.263625a14.27285 14.27285 0 0 0 1.180847-4.107295 5.390825 5.390825 0 0 0 0-2.361695l-0.308047-0.46207a1.386212 1.386212 0 0 0-0.616094-0.308047h-2.977789c-0.256706 1.129506-0.513412 2.104989-0.770118 2.977789a17.969416 17.969416 0 0 1-1.180847 2.875106l-0.770118 1.694259-0.616094 1.334871a12.321885 12.321885 0 0 1-0.564753 1.180848 14.27285 14.27285 0 0 1-0.616095 1.33487 8.111908 8.111908 0 0 0 2.464377 0.821459 2.567059 2.567059 0 0 0 1.848283-0.359388 4.209977 4.209977 0 0 0 1.540236-1.694259 17.096616 17.096616 0 0 0 1.129506-2.926448zM509.253246 473.98185a2.15633 2.15633 0 0 1-0.616094 1.078165 8.882026 8.882026 0 0 1-2.15633 0.616094 20.536475 20.536475 0 0 0-4.055954 1.437554 36.811632 36.811632 0 0 0-4.415342 2.6184 39.019303 39.019303 0 0 0-4.209977 3.593883 24.797794 24.797794 0 0 0-3.542542 4.261319c-1.386212 3.491201-2.567059 6.314966-3.542542 8.573978a18.072098 18.072098 0 0 1-3.234495 5.134119 7.34179 7.34179 0 0 1-4.107295 2.310354 19.663675 19.663675 0 0 1-6.263625 0c-1.7456 0-2.721083-0.718777-3.02913-1.540236a2.875107 2.875107 0 0 1 0.667435-2.669742q2.002306-2.515718 2.926448-2.6184c0.616094 0 0.770118 0.462071 0.359388 1.386212s-0.308047 1.848283 0.564753 1.540235a12.475909 12.475909 0 0 0 3.542542-2.207671 16.942592 16.942592 0 0 0 2.823766-3.183153 35.528102 35.528102 0 0 0 2.310353-3.901931c0.718777-1.437553 1.437553-2.875107 2.104989-4.466683a8.522637 8.522637 0 0 1-5.134119-1.078165 6.212284 6.212284 0 0 1-2.515718-3.542542 3.90193 3.90193 0 0 1-0.308047-2.207671 0.770118 0.770118 0 0 1 0.8728-0.462071 12.732615 12.732615 0 0 0 5.698872-0.770118 32.807019 32.807019 0 0 0 6.212284-3.234494c0.564753-1.386212 1.232189-3.080471 1.899624-5.134119s1.642918-4.672048 2.721083-7.957884a25.670594 25.670594 0 0 1-1.334871-3.953272 6.520331 6.520331 0 0 1 0-2.669742 2.002306 2.002306 0 0 1 1.129506-1.694259 2.567059 2.567059 0 0 1 2.002306 0 8.62532 8.62532 0 0 1 4.364001 3.542542 5.59619 5.59619 0 0 1 0 4.466683c0 0.616094-0.513412 1.437553-0.8728 2.361695l-0.924141 2.464377a3.696566 3.696566 0 0 0 0.821459 1.078165 2.361695 2.361695 0 0 0 0.924141 0.667435 3.43986 3.43986 0 0 0 1.437553 0.359389h2.259012a4.672048 4.672048 0 0 1 2.053648 0.308047 4.774731 4.774731 0 0 1 1.694259 1.078165 4.055954 4.055954 0 0 1 1.026824 1.7456 4.518025 4.518025 0 0 1-0.154024 2.669742z m0 32.39629c-0.256706 1.796942-0.718777 2.823765-1.283529 3.080471s-1.334871 0-2.104989-0.8728c-1.642918-1.642918-3.337177-3.542542-5.134119-5.59619a69.002557 69.002557 0 0 1-5.134119-7.187766 9.549461 9.549461 0 0 0-0.8728-1.28353 3.953271 3.953271 0 0 0-0.975482-0.8728 13.554074 13.554074 0 0 0-1.488895-0.718776c-0.616094 0-1.386212-0.564753-2.361695-0.872801s-0.821459-0.564753 0.462071-0.616094a13.040662 13.040662 0 0 1 2.002306 0 14.016144 14.016144 0 0 1 2.104989 0h1.796942l1.129506 0.308047a51.341188 51.341188 0 0 1 6.263625 3.43986 18.174781 18.174781 0 0 1 3.850589 3.234495 8.163249 8.163249 0 0 1 1.694259 3.491201 11.808473 11.808473 0 0 1 0.256706 4.569365z m-14.170168-46.925846c0.359388-1.591577 0-2.361695 0-2.207671s-0.308047 0.308047-0.308047 0.770118a2.361695 2.361695 0 0 0 0.513412 1.540235z m4.569366 10.268237a5.134119 5.134119 0 0 0-0.718776-1.078164 3.850589 3.850589 0 0 0-0.872801-0.718777c0 0.513412-0.359388 1.026824-0.564753 1.540236l-0.616094 1.488894 1.232189-0.616094zM497.855503 576.920933q-0.616094 1.386212-1.540236 1.386212a1.232189 1.232189 0 0 1-1.180847-0.616095 18.277463 18.277463 0 0 1-1.386212-2.926447 16.634545 16.634545 0 0 1-0.667436-3.645225 38.711256 38.711256 0 0 0-7.033743 1.180848 53.13813 53.13813 0 0 0-6.828378 2.207671 3.747907 3.747907 0 0 1-1.334871 0.308047 1.437553 1.437553 0 0 1-1.078165-0.41073 3.696566 3.696566 0 0 1-0.975482-1.386212 24.027676 24.027676 0 0 1-1.026824-2.567059 4.723389 4.723389 0 0 1 0-3.645225 5.904237 5.904237 0 0 1 2.464377-2.875106c1.642918-1.129506 3.43986-2.413036 5.134119-3.90193s3.799248-2.926448 5.493507-4.31266c0.513412-0.564753 0.462071-0.8728 0-0.821459a8.21459 8.21459 0 0 0-4.209977 1.129506 2.926448 2.926448 0 0 1-2.207671 0.667435c-0.564753 0-0.975483-1.026824-1.28353-2.567059a10.268238 10.268238 0 0 1-0.308047-3.337177 2.361695 2.361695 0 0 1 1.078165-1.745601 5.134119 5.134119 0 0 0 1.078165-1.026823s0-0.359388-0.41073-0.513412a7.136425 7.136425 0 0 0-2.926448-0.462071 5.134119 5.134119 0 0 0-2.926447 1.232189 12.424568 12.424568 0 0 0-2.926448 3.388518 35.271396 35.271396 0 0 0-3.080471 6.109601 54.935071 54.935071 0 0 0-2.310354 6.828378c-0.770118 2.721083-1.642918 6.109601-2.567059 10.268238 0 0.770118-0.616094 1.232189-1.180848 1.28353s-1.386212 0-2.413035-1.129506a8.009225 8.009225 0 0 1-1.642918-2.361695 24.797794 24.797794 0 0 1-1.386213-3.799248 23.462923 23.462923 0 0 1-0.8728-4.364001 15.402356 15.402356 0 0 1 0-4.055954c0-1.28353 0.462071-2.721083 0.821459-4.415342s0.770118-3.388518 1.180848-5.134119 0.8728-3.337177 1.334871-5.134119 0.821459-2.772424 1.129506-3.799248 0.770118-1.950965 1.129506-2.772424a14.68358 14.68358 0 0 1 1.232188-2.15633 19.509652 19.509652 0 0 1 1.69426-2.002306c0.667435-0.616094 1.488894-1.334871 2.361694-2.002306a2.515718 2.515718 0 0 0 0.924142-1.28353 1.642918 1.642918 0 0 0 0-1.386212 20.536475 20.536475 0 0 1-0.975483-2.618401c0-0.821459-0.564753-1.7456-0.975483-2.721083s0-0.564753 0-0.770118a0.770118 0.770118 0 0 1 0.513412-0.46207 2.15633 2.15633 0 0 1 0.821459 0 0.975483 0.975483 0 0 1 0.667436 0.359388c0.718777 0.667435 1.540236 1.334871 2.413036 2.002306a24.233041 24.233041 0 0 0 2.721083 1.69426 7.906543 7.906543 0 0 1 2.772424 2.310353 8.573978 8.573978 0 0 1 1.180847 2.926448 1.899624 1.899624 0 0 1-0.513412 1.899624 1.694259 1.694259 0 0 1-1.796941 0.410729 3.850589 3.850589 0 0 0-1.488895 0 4.826072 4.826072 0 0 0-1.796941 0.821459 11.911156 11.911156 0 0 1-3.491201 1.694259c-0.564753 0-0.770118 0-0.667436-0.616094s0-0.308047-0.718776 0a3.593883 3.593883 0 0 0-1.488895 0.821459 9.600802 9.600802 0 0 0-1.488894 8.830685 13.605415 13.605415 0 0 1 0.564753 4.055953 2.002306 2.002306 0 0 1-0.924142 1.591577 5.134119 5.134119 0 0 0-1.180847 2.002307 34.039208 34.039208 0 0 0-1.28353 3.696565q-0.616094 2.002306-1.078165 4.158636a16.223815 16.223815 0 0 0-0.410729 3.491201c0 1.28353 0.770118 1.591577 1.591577 0.8728a6.212284 6.212284 0 0 0 1.488894-1.848282c0.770118-1.950965 1.488894-3.645224 2.15633-5.134119s1.334871-2.875107 2.002306-4.158636a38.967962 38.967962 0 0 1 1.950966-3.593884c0.667435-1.129506 1.386212-2.207671 2.15633-3.337177a23.103535 23.103535 0 0 1 1.899624-2.207671 28.648383 28.648383 0 0 1 2.361694-2.002306 16.891251 16.891251 0 0 1 2.361695-1.540236 9.703485 9.703485 0 0 1 2.002306-0.821459 22.282076 22.282076 0 0 0 3.183154-0.770118l2.977789-1.078165q0.924141-1.591577 1.848283-3.388518c0.564753-1.180847 1.129506-2.361695 1.642918-3.542542s0.924141-2.207671 1.283529-3.183154 0.616094-1.7456 0.770118-2.310353a1.129506 1.129506 0 0 0 0-1.026824 5.801554 5.801554 0 0 0-1.899624-1.078165c-0.616094-0.308047-0.718777-0.667435-0.410729-1.078165a5.134119 5.134119 0 0 1 6.212283 0 5.647531 5.647531 0 0 1 1.642918 1.848283 5.134119 5.134119 0 0 1 0.667436 2.207671 3.491201 3.491201 0 0 1-0.41073 2.15633 26.902783 26.902783 0 0 0-1.180847 2.464377c-0.308047 0.770118-0.616094 1.591577-0.8728 2.361695a5.134119 5.134119 0 0 0 2.823765 1.33487 8.522637 8.522637 0 0 1 1.899624 0.718777 17.250639 17.250639 0 0 1 2.207671 1.591577 2.721083 2.721083 0 0 1 0.821459 1.026824s0 0.513412-0.718776 0.821459a5.698872 5.698872 0 0 1-1.899624 0.924141h-2.002307a11.346403 11.346403 0 0 0-4.055954 0.256706 12.475909 12.475909 0 0 0-4.312659 1.848283 21.820005 21.820005 0 0 0-1.796942 2.977789q-0.770118 1.437553-1.386212 2.926447h2.926448a9.138732 9.138732 0 0 1 1.950965 0.308048 5.134119 5.134119 0 0 1 1.437553 0.616094l1.386212 1.078165a6.571672 6.571672 0 0 1 1.848283 2.875106c0 0.564753-0.359388 1.28353-1.334871 2.104989a58.991025 58.991025 0 0 1-6.674354 5.134119 60.839308 60.839308 0 0 1-8.060567 4.723389 2.053648 2.053648 0 0 0-0.770118 0.718777s0 0.308047 0.616095 0h5.904236l2.413036-0.359388 2.464377-0.462071c0-1.129506-0.308047-2.002306-0.359388-2.618401a4.518025 4.518025 0 0 1 0-1.283529c0-0.256706 0-0.359388 0.410729-0.308048a1.899624 1.899624 0 0 1 0.770118 0 9.960191 9.960191 0 0 1 1.899624 1.232189 14.529556 14.529556 0 0 1 1.7456 1.796942 18.482828 18.482828 0 0 1 1.437554 2.053647 21.768664 21.768664 0 0 1 1.129506 2.104989 8.419955 8.419955 0 0 1 0.359388 1.437553 5.801554 5.801554 0 0 1 0 1.334871 8.111908 8.111908 0 0 1-0.410729 1.591577 21.203911 21.203911 0 0 1-0.821459 2.669742z" p-id="2237"></path></svg>