<?xml version="1.0" encoding="utf-8"?>
<!-- Generator: Adobe Illustrator 24.2.0, SVG Export Plug-In . SVG Version: 6.00 Build 0)  -->
<svg version="1.1" id="图层_1" xmlns="http://www.w3.org/2000/svg" xmlns:xlink="http://www.w3.org/1999/xlink" x="0px" y="0px"
	 viewBox="0 0 700 700" style="enable-background:new 0 0 700 700;" xml:space="preserve">
<style type="text/css">
	.st0{fill:#050F64;}
	.st1{fill:#EA8096;}
	.st2{fill:#FFFFFF;}
	.st3{fill:#84A9FF;}
	.st4{fill:#FF654F;}
	.st5{fill:#F4BCC7;}
	.st6{fill:#155BCC;}
	.st7{fill:#155BCD;}
	.st8{fill:#E6E6E6;}
	.st9{fill:#DA5544;}
	.st10{fill:#FFBD00;}
	.st11{fill:#DCA000;}
	.st12{fill:#F5BDC8;}
	.st13{fill:#E5E6EB;}
	.st14{clip-path:url(#SVGID_2_);}
	.st15{clip-path:url(#SVGID_4_);}
	.st16{clip-path:url(#SVGID_6_);}
	.st17{clip-path:url(#SVGID_8_);}
</style>
<g>
	<g>
		<g>
			<g>
				<path class="st0" d="M218.9,460.2l21.9,0.7c0-0.7-0.1-1.5-0.5-2.1c-0.5-0.7-1.3-1.1-2.2-1.2c-0.8-0.2-1.7-0.2-2.5-0.2
					c-2.1-0.2-4.1-0.8-5.9-1.9c-0.9-0.6-1.8-1.2-2.8-1.6l-6,0c-0.8,0.9-1.4,2-1.7,3.2C218.9,458,218.9,459.1,218.9,460.2z"/>
			</g>
		</g>
		<g>
			<g>
				<path class="st0" d="M152.2,447.4l19.9,9.1c0.3-0.7,0.5-1.4,0.3-2.1c-0.2-0.8-0.8-1.5-1.5-2c-0.7-0.5-1.5-0.8-2.2-1.2
					c-1.8-1-3.5-2.4-4.7-4c-0.6-0.9-1.2-1.8-1.9-2.6l-5.5-2.3c-1.1,0.5-2.1,1.3-2.8,2.3C153.1,445.3,152.6,446.3,152.2,447.4z"/>
			</g>
		</g>
		<g>
			<g>
				<path class="st0" d="M227.1,387.5c0-3.4-0.3-6.8-0.7-10.2c-1.6-11.8-5.6-41.9-5.6-41.9c0,0-47.2,0-47.2,0l0.7,44L156,442.2
					l6.9,3.3l27.2-62.2c0.1-0.2,8-24.8,8-24.8l12.3,26.3l9.3,69l8.1,0L227.1,387.5z"/>
			</g>
		</g>
		<g>
			<g>
				<g>
					<g>
						<path class="st1" d="M279.8,309.7l-4.6-1.1l-0.7,4.9l4.7,0.3c1.2,0.1,2.2-0.7,2.4-1.7C281.8,310.9,281,309.9,279.8,309.7z"/>
					</g>
				</g>
			</g>
			<g>
				<g>
					<path class="st2" d="M274.6,313.8l1-5.6c-6.2-1.5-12.4-3.1-18.1-5.2c-2.8-1.1-5.6-2.3-8.1-3.8c-2.5-1.5-4.8-3.1-6.9-5.1
						c-4.1-3.8-7.4-8.6-10.1-13.9c-1.3-2.6-2.5-5.4-3.7-8.2l-0.8-2.1l-0.8-2.2l-0.4-1.1l-0.4-1.1l-0.7-2.2c0-0.1-0.1-0.2-0.1-0.3
						c-0.4-0.9-0.9-1.7-1.5-2.4c-0.7-0.7-1.4-1.2-2.3-1.6c-1.7-0.8-3.8-0.9-5.7-0.3l0,0c-2,0.7-3.5,2.2-4.3,4c-0.8,1.8-0.8,4,0.1,6
						l1.1,2.3l0.5,1.1l0.6,1.1c0.4,0.8,0.7,1.5,1.1,2.3l1.2,2.2c1.6,3,3.3,5.9,5.3,8.8c1.9,2.9,4.1,5.7,6.5,8.3
						c2.4,2.6,5.1,5.1,8,7.2c2.9,2.1,6.1,3.9,9.3,5.2c3.2,1.4,6.5,2.4,9.8,3.2c3.3,0.8,6.5,1.4,9.8,1.9
						C268.2,313,271.4,313.4,274.6,313.8z"/>
				</g>
			</g>
			<g>
				<g>
					<g>
						<path class="st3" d="M227.4,268.1l0.2-0.2l-0.1-0.4l-0.4-1.1l-1.1-3.3c0-0.1-0.1-0.2-0.1-0.3c-0.4-0.9-0.9-1.8-1.6-2.5
							c-0.3-0.3-0.5-0.5-0.8-0.7l-0.1,0.3c0.3,0.2,0.5,0.4,0.7,0.6c0.7,0.7,1.2,1.5,1.5,2.4c0,0.1,0.1,0.2,0.1,0.3l0.7,2.2l0.4,1.1
							l0.4,1.1L227.4,268.1z M232.3,279.8l0.2-0.2c-0.9-1.7-1.7-3.6-2.6-5.7l-0.3,0.1C230.6,276.1,231.4,278,232.3,279.8z
							 M212,269.8l0.3,0l-0.5-1c-0.9-2-0.9-4.2-0.1-6c0.8-1.8,2.3-3.3,4.3-4l0,0c1.5-0.5,3.1-0.6,4.5-0.2l0.1-0.3
							c-1.5-0.4-3.2-0.4-4.7,0.2l0,0c-1,0.4-1.9,0.9-2.7,1.6c-0.8,0.7-1.4,1.6-1.8,2.6c-0.8,1.9-0.8,4.2,0.1,6.2L212,269.8z
							 M230.8,298.1l0.2-0.2c-1-0.9-1.9-1.9-2.9-2.9c-2.4-2.6-4.5-5.4-6.5-8.3c-1.9-2.9-3.7-5.8-5.3-8.8l-1.2-2.2c0,0,0,0,0,0
							l-0.2,0.2c0,0,0,0,0,0l1.2,2.2c1.8,3.3,3.5,6.2,5.3,8.8c2.1,3.2,4.3,5.9,6.5,8.3C228.8,296.1,229.8,297.1,230.8,298.1z
							 M247.4,308.5c2.4,0.9,4.9,1.7,7.7,2.4c2.9,0.7,6.1,1.4,9.8,1.9c1.3,0.2,2.7,0.4,4.2,0.6l-0.2-0.3c-1.3-0.2-2.6-0.4-3.9-0.6
							c-3.2-0.5-6.5-1.1-9.8-1.9c-2.6-0.6-5.1-1.4-7.7-2.4C247.5,308.3,247.5,308.4,247.4,308.5z M260,303.8l0-0.3
							c-0.8-0.3-1.6-0.6-2.4-0.9c-3-1.2-5.7-2.4-8-3.8c-2.6-1.5-4.9-3.2-6.8-5c-1-0.9-2-2-2.9-3.1l-0.3,0.1c0.9,1.1,2,2.2,3,3.1
							c2.1,1.9,4.4,3.6,6.9,5.1c2.5,1.5,5.2,2.7,8.1,3.8C258.4,303.2,259.2,303.5,260,303.8z M262.5,304.7c4.2,1.3,8.7,2.5,13.1,3.5
							l-0.5,2.6c0.1,0.1,0.2,0.1,0.3,0.2l0.5-3l-0.3-0.1c-4.1-1-8.6-2.1-13.1-3.5L262.5,304.7z"/>
					</g>
				</g>
			</g>
		</g>
		<g>
			<g>
				<path class="st2" d="M173.6,335.4c15.3,6.3,28.7,7.3,47.2,0l3.1-47.6l0.4-6.1l0.1-2.2l0.3-4.3c0-0.6,0.1-1.2,0-1.8
					c-0.2-7.3-4.4-13.6-10.6-16.7c-0.6-0.3-1.2-0.6-1.9-0.8c-2.2-0.8-4.5-1.2-7-1.2c-0.6,0-1.3,0-1.9,0.1c-1.4,0.1-2.7,0.4-4,0.8
					c-7.4,2.1-13.3,7.6-15.8,14.8c-0.6,1.7-1,3.6-1.2,5.5l-0.1,0.6l-0.2,2.2l-0.3,2.8L173.6,335.4z"/>
			</g>
		</g>
		<g>
			<g>
				<g>
					<path class="st3" d="M224.2,287.8l0-0.2l-0.4-0.1l0,0.3l-2.1,31.7l0.4,0L224.2,287.8z M194.9,256.8c-5.5,2.8-9.7,7.5-11.8,13.4
						c-0.1,0.2-0.1,0.4-0.2,0.5l0.4,0.1c0.1-0.2,0.1-0.4,0.2-0.5c2-5.8,6.2-10.5,11.6-13.2L194.9,256.8z M174.6,326.1l0.4,0
						l6.2-41.7l-0.4-0.1L174.6,326.1z M225,275.1c0-0.6,0.1-1.2,0-1.8c-0.2-6.6-3.6-12.6-9.2-16.1l-0.2,0.4c5.3,3.3,8.8,9.1,9,15.7
						c0,0.6,0,1.2,0,1.8l-0.3,4.3l0,0.7l0.4,0L225,275.1z M221.7,327.5l-0.4,0l-0.5,7.9c-17.8,7.1-31,6.4-45.7,0.6l-0.1,0.4
						c6.5,2.5,12.2,3.9,17.9,4.4c4.4,0.3,8.9,0.1,13.5-0.7c4.6-0.8,9.4-2.3,14.6-4.3l0.2-0.1L221.7,327.5z"/>
				</g>
			</g>
		</g>
		<g>
			<g>
				<g>
					<path class="st4" d="M206.6,262.2c0.9-0.1,1.8-0.3,2.6-0.4c3,18.3,3.3,37.5,0.7,56.9c-1.5,1.8-3.1,3.5-4.6,5.2
						c-0.9-2.1-1.8-4.1-2.8-6.1C206.7,299.2,208,280.5,206.6,262.2z"/>
				</g>
			</g>
		</g>
		<g>
			<g>
				<g>
					<g>
						<path class="st5" d="M214.2,245.5l-2.5,13.8c-3.4,1.4-6.4,0.9-9-1.6l2.5-13.8L214.2,245.5z"/>
					</g>
				</g>
				<g>
					<g>
						<path class="st1" d="M214.2,245.5l-1.1,6.2c-0.7,0.1-1.4,0.2-2.1,0.1c-0.2,0-0.5-0.1-0.7-0.1c-2.5-0.4-4.6-2-5.8-4.1l0.7-3.7
							L214.2,245.5z"/>
					</g>
				</g>
				<g>
					<g>
						<path class="st5" d="M219.8,237.8l-1.8,8c-0.7,3.2-3.7,5.4-7,5.1l0,0c-3-0.3-5.5-2.3-6.3-5.2c-0.5-1.9-0.9-4.1-1.3-6.3
							c-0.6-3.6,0.9-7.4,3.9-9.5c2.5-1.9,5.4-2.1,8.5-0.5C218.9,230.8,220.5,234.3,219.8,237.8z"/>
					</g>
				</g>
			</g>
			<g>
				<g>
					<g>
						<path class="st0" d="M218.8,233.2c0,0,1.2,2.9,0.3,7.9c0,0,1.8-4.9,1.4-8.9L218.8,233.2z"/>
					</g>
				</g>
				<g>
					<g>
						<path class="st0" d="M200.5,238.9c0,0-3.6-7.1,1.7-11.6c5.7-4.8,8.9-3.8,12.3-2.4c4.3,1.8,6.5,3.6,8.3,3.4
							c0.9-0.1,1.8-0.8,1.9-0.2c0.1,0.5-0.1,3.6-2.9,5.6c-2.9,2-6.2,1.2-9.2-0.9c-3.1-2.1-4.7-2.1-6.3-0.2c-1.7,2-0.2,6.1-0.2,6.1
							l-1.1,0.2C204.9,238.9,201.3,236.2,200.5,238.9z"/>
					</g>
				</g>
			</g>
			<g>
				<g>
					<path class="st5" d="M207,239.2c-0.3,1.7-2.1,2.7-3.9,2.4c-1.9-0.3-3.1-1.9-2.8-3.6c0.3-1.7,2.1-2.7,3.9-2.4
						C206,235.9,207.3,237.6,207,239.2z"/>
				</g>
			</g>
		</g>
		<g>
			<g>
				<g>
					<path class="st6" d="M199.2,255.5l5.9,11.5l2.9-5.1l4.8,4.9l1.2-10.3c-0.6-0.3-1.1-0.5-1.7-0.8l-4.3,3.8l-4.8-4.9
						C201.8,254.9,200.5,255.1,199.2,255.5z"/>
				</g>
			</g>
		</g>
		<g>
			<g>
				<g>
					<g>
						<path class="st5" d="M156.5,332l0.6-4.6l-4.9-0.2l0.2,4.7c0,1.2,0.9,2.2,2,2.2C155.4,334.1,156.3,333.2,156.5,332z"/>
					</g>
				</g>
			</g>
			<g>
				<g>
					<path class="st2" d="M151.9,327.2l5.7,0.4c0.9-6.3,1.9-12.6,3.5-18.5c0.8-2.9,1.8-5.8,3-8.4c1.2-2.6,2.7-5.1,4.4-7.4
						c3.4-4.5,7.9-8.2,12.9-11.4c2.5-1.6,5.1-3,7.8-4.4l2-1l2.1-1l1-0.5l1.1-0.5l2.1-0.9c0.1,0,0.2-0.1,0.3-0.1
						c0.9-0.4,1.6-1,2.2-1.8c0.6-0.7,1.1-1.5,1.4-2.4c0.6-1.8,0.6-3.8-0.3-5.7l0,0c-0.9-1.9-2.5-3.3-4.4-3.9c-1.9-0.6-4.1-0.4-6,0.6
						l-2.2,1.3l-1.1,0.6l-1.1,0.7c-0.7,0.4-1.4,0.9-2.1,1.3l-2.1,1.4c-2.8,1.9-5.6,3.9-8.3,6.1c-2.7,2.2-5.3,4.6-7.7,7.2
						c-2.4,2.6-4.6,5.5-6.4,8.6c-1.8,3.1-3.3,6.4-4.3,9.8c-1.1,3.3-1.8,6.7-2.3,10.1c-0.5,3.3-0.8,6.6-1,9.9
						C152,320.8,151.9,324,151.9,327.2z"/>
				</g>
			</g>
			<g>
				<g>
					<g>
						<path class="st3" d="M192.8,275.9l0.2,0.2l0.4-0.2l1-0.5l3.2-1.4c0.1,0,0.2-0.1,0.3-0.1c0.9-0.4,1.7-1.1,2.3-1.8
							c0.2-0.3,0.4-0.6,0.6-0.9l-0.3-0.1c-0.2,0.3-0.4,0.5-0.6,0.8c-0.6,0.7-1.4,1.3-2.2,1.8c-0.1,0.1-0.2,0.1-0.3,0.1l-2.1,0.9
							l-1.1,0.5l-1,0.5L192.8,275.9z M181.6,281.9l0.2,0.2c1.6-1,3.4-2,5.4-3.1l-0.2-0.2C185.2,279.8,183.4,280.8,181.6,281.9z
							 M189.7,260.7l0,0.3l1-0.6c1.9-1.1,4.1-1.3,6-0.6c1.9,0.6,3.5,2,4.4,3.9l0,0c0.7,1.4,0.8,3,0.6,4.4l0.3,0.1
							c0.3-1.6,0-3.2-0.6-4.7l0,0c-0.5-1-1.1-1.8-1.9-2.5c-0.8-0.7-1.7-1.2-2.7-1.5c-2-0.7-4.3-0.4-6.2,0.7L189.7,260.7z
							 M163.3,282.1l0.2,0.1c0.8-1.1,1.7-2.1,2.6-3.1c2.4-2.6,5-5,7.7-7.2c2.7-2.2,5.5-4.2,8.3-6.1l2.1-1.4c0,0,0,0,0,0l-0.2-0.2
							c0,0,0,0,0,0l-2.1,1.4c-3.1,2.1-5.9,4.1-8.3,6.1c-2.9,2.4-5.5,4.8-7.7,7.3C165,280,164.2,281,163.3,282.1z M154.5,299.7
							c-0.7,2.4-1.2,5-1.6,7.9c-0.4,3-0.8,6.2-1,9.9c-0.1,1.3-0.1,2.7-0.2,4.2l0.3-0.2c0-1.3,0.1-2.6,0.2-4c0.2-3.3,0.5-6.6,1-9.9
							c0.4-2.6,0.9-5.2,1.6-7.9C154.7,299.7,154.6,299.7,154.5,299.7z M160.4,311.7l0.3,0c0.2-0.8,0.4-1.6,0.6-2.4
							c0.9-3.1,1.8-5.9,3-8.4c1.2-2.7,2.7-5.2,4.3-7.3c0.8-1.1,1.8-2.2,2.8-3.2l-0.2-0.2c-1,1.1-2,2.2-2.8,3.3
							c-1.7,2.2-3.2,4.7-4.4,7.4c-1.2,2.6-2.2,5.5-3,8.4C160.8,310,160.6,310.9,160.4,311.7z M159.8,314.3
							c-0.9,4.4-1.6,8.8-2.2,13.4l-2.6-0.2c-0.1,0.1-0.1,0.2-0.2,0.3l3,0.2l0-0.3c0.6-4.2,1.3-8.8,2.2-13.4L159.8,314.3z"/>
					</g>
				</g>
			</g>
		</g>
	</g>
	<g>
		<g>
			<rect x="67.9" y="531.3" class="st0" width="5.9" height="74"/>
		</g>
		<g>
			
				<rect x="130.4" y="467.8" transform="matrix(-1.836970e-16 1 -1 -1.836970e-16 666.6047 399.9221)" class="st0" width="5.9" height="130.9"/>
		</g>
	</g>
	<g>
		<g>
			<g>
				<path class="st7" d="M666.5,563.5H520.7v-41.9h145.8c4.1,0,7.5,3.3,7.5,7.5V556C674,560.1,670.7,563.5,666.5,563.5z"/>
			</g>
			<g>
				<g>
					<path class="st2" d="M535.5,561h-173v-37h173c3.6,0,6.6,3,6.6,6.6v23.8C542.1,558.1,539.1,561,535.5,561z"/>
				</g>
			</g>
			<g>
				<g>
					<path class="st0" d="M522.5,563.5H353.8v-4.9h168.7c9.3,0,16.9-7.2,16.9-16.1s-7.6-16.1-16.9-16.1H353.8v-4.9h168.7
						c12,0,21.8,9.4,21.8,20.9S534.5,563.5,522.5,563.5z"/>
				</g>
			</g>
			<g>
				<g>
					<rect x="362.5" y="531.6" class="st8" width="128" height="2"/>
				</g>
				<g>
					<rect x="362.5" y="542.6" class="st8" width="163.8" height="2"/>
				</g>
				<g>
					<rect x="362.5" y="547" class="st8" width="80.7" height="2"/>
				</g>
			</g>
		</g>
		<g>
			<g>
				<path class="st4" d="M341.9,605.3h145.8v-41.9H341.9c-4.1,0-7.5,3.3-7.5,7.5v26.9C334.5,602,337.8,605.3,341.9,605.3z"/>
			</g>
			<g>
				<g>
					<path class="st2" d="M473,602.9h173v-37H473c-3.6,0-6.6,3-6.6,6.6v23.8C466.4,599.9,469.4,602.9,473,602.9z"/>
				</g>
			</g>
			<g>
				<g>
					<path class="st9" d="M486,605.3h168.7v-4.9H486c-9.3,0-16.9-7.2-16.9-16.1s7.6-16.1,16.9-16.1h168.7v-4.9H486
						c-12,0-21.8,9.4-21.8,20.9S474,605.3,486,605.3z"/>
				</g>
			</g>
			<g>
				<g>
					
						<rect x="518" y="573.4" transform="matrix(-1 -1.224647e-16 1.224647e-16 -1 1164.0304 1148.9169)" class="st8" width="128" height="2"/>
				</g>
				<g>
					
						<rect x="482.2" y="584.4" transform="matrix(-1 -1.224647e-16 1.224647e-16 -1 1128.1698 1170.8577)" class="st8" width="163.8" height="2"/>
				</g>
				<g>
					
						<rect x="565.3" y="588.9" transform="matrix(-1 -1.224647e-16 1.224647e-16 -1 1211.306 1179.7966)" class="st8" width="80.7" height="2"/>
				</g>
			</g>
		</g>
		<g>
			<g>
				<path class="st4" d="M683.3,521.6H537.5v-41.9h145.8c4.1,0,7.5,3.3,7.5,7.5v26.9C690.7,518.3,687.4,521.6,683.3,521.6z"/>
			</g>
			<g>
				<g>
					<path class="st2" d="M552.2,519.2h-173v-37h173c3.6,0,6.6,3,6.6,6.6v23.8C558.8,516.2,555.8,519.2,552.2,519.2z"/>
				</g>
			</g>
			<g>
				<g>
					<path class="st9" d="M539.2,521.6H370.5v-4.9h168.7c9.3,0,16.9-7.2,16.9-16.1c0-8.9-7.6-16.1-16.9-16.1H370.5v-4.9h168.7
						c12,0,21.8,9.4,21.8,20.9S551.2,521.6,539.2,521.6z"/>
				</g>
			</g>
			<g>
				<g>
					<rect x="379.2" y="489.7" class="st8" width="128" height="2"/>
				</g>
				<g>
					<rect x="379.2" y="500.7" class="st8" width="163.8" height="2"/>
				</g>
				<g>
					<rect x="379.2" y="505.2" class="st8" width="80.7" height="2"/>
				</g>
			</g>
			<g>
				<path class="st10" d="M411.8,494.8c-6,0-10.9,4.9-10.9,10.9h0v48.4l14.2-10.8l17.7,10.8v-48.4v-5.4c0-3,2.5-5.6,5.6-5.6H411.8z"
					/>
			</g>
		</g>
		<g>
			<path class="st9" d="M400.8,605.3h33.4c-9.3-12.6-9.3-26.5,0-41.9h-33.4C391.5,578.8,391.5,592.7,400.8,605.3z"/>
		</g>
	</g>
	<g>
		<g>
			<rect x="192.9" y="461.2" class="st0" width="5.9" height="74"/>
		</g>
		<g>
			
				<rect x="255.5" y="397.7" transform="matrix(-1.836970e-16 1 -1 -1.836970e-16 721.5309 204.745)" class="st0" width="5.9" height="130.9"/>
		</g>
	</g>
	<g>
		<g>
			<rect x="318" y="391.1" class="st0" width="5.9" height="74"/>
		</g>
		<g>
			
				<rect x="380.5" y="327.6" transform="matrix(-1.836970e-16 1 -1 -1.836970e-16 776.4571 9.568)" class="st0" width="5.9" height="130.9"/>
		</g>
	</g>
	<g>
		<g>
			<rect x="443" y="320.9" class="st0" width="5.9" height="74"/>
		</g>
		<g>
			
				<rect x="505.6" y="257.4" transform="matrix(-1.836970e-16 1 -1 -1.836970e-16 831.3833 -185.6091)" class="st0" width="5.9" height="130.9"/>
		</g>
	</g>
	<g>
		<g>
			<rect x="568.1" y="250.8" class="st0" width="5.9" height="74"/>
		</g>
		<g>
			<path class="st0" d="M699,252.8L699,252.8c0,1.6-1.3,2.9-2.9,2.9h-128v-5.9h128C697.7,249.8,699,251.1,699,252.8z"/>
		</g>
	</g>
	<g>
		<path class="st0" d="M697.5,608.1c0,0.8-0.3,1.5-0.9,2.1c-0.5,0.5-1.3,0.9-2.1,0.9H3.9c-1.6,0-2.9-1.3-2.9-2.9
			c0-0.8,0.3-1.5,0.9-2.1c0.5-0.5,1.3-0.9,2.1-0.9h690.7C696.2,605.2,697.5,606.5,697.5,608.1z"/>
	</g>
	<g>
		<g>
			<g>
				<g>
					<path class="st11" d="M618.7,171.1c-11.7,0-21.6-7.1-28.5-20.6c-5.1-10-6.9-19.8-6.9-20.2l-0.3-1.8h24.9v3.1h-21.1
						c1.7,7.6,9.8,36.4,32,36.4V171.1z"/>
				</g>
			</g>
			<g>
				<g>
					<path class="st11" d="M656.2,171.1c11.7,0,21.6-7.1,28.5-20.6c5.1-10,6.9-19.8,6.9-20.2l0.3-1.8h-24.9v3.1h21.1
						c-1.7,7.6-9.8,36.4-32,36.4V171.1z"/>
				</g>
			</g>
		</g>
		<g>
			<rect x="609.6" y="211.4" class="st10" width="55.7" height="5.4"/>
		</g>
		<g>
			<rect x="616.5" y="206" class="st10" width="41.8" height="5.4"/>
		</g>
		<g>
			<rect x="622.2" y="200.6" class="st10" width="30.4" height="5.4"/>
		</g>
		<g>
			<path class="st0" d="M674.6,249.8h-74.3v-32.3c0-0.4,0.3-0.7,0.7-0.7h72.9c0.4,0,0.7,0.3,0.7,0.7V249.8z"/>
		</g>
		<g>
			<path class="st10" d="M637.4,186L637.4,186c-18.3,0-33.1-41.3-33.1-59.6l0,0h66.2l0,0C670.6,144.7,655.7,186,637.4,186z"/>
		</g>
		<g>
			<path class="st11" d="M673.8,126.4h-72.7c-0.2,0-0.3-0.1-0.3-0.3v-5.9c0-0.2,0.1-0.3,0.3-0.3h72.7c0.2,0,0.3,0.1,0.3,0.3v5.9
				C674.1,126.2,674,126.4,673.8,126.4z"/>
		</g>
		<g>
			<rect x="634" y="176.5" class="st10" width="6.9" height="29.5"/>
		</g>
		<g>
			<path class="st2" d="M588.3,123.5l-0.5-2.4c-0.3-1.8-1.5-3.3-3.2-4.1l-2.2-1l2.4-0.5c1.8-0.3,3.3-1.5,4.1-3.2l1-2.2l0.5,2.4
				c0.3,1.8,1.5,3.3,3.2,4.1l2.2,1l-2.4,0.5c-1.8,0.3-3.3,1.5-4.1,3.2L588.3,123.5z"/>
		</g>
		<g>
			<path class="st2" d="M604.4,116.8l-0.8-1.7c-0.6-1.3-1.8-2.2-3.2-2.5l-1.9-0.3l1.7-0.8c1.3-0.6,2.2-1.8,2.5-3.2l0.3-1.9l0.8,1.7
				c0.6,1.3,1.8,2.2,3.2,2.5l1.9,0.3l-1.7,0.8c-1.3,0.6-2.2,1.8-2.5,3.2L604.4,116.8z"/>
		</g>
		<g>
			<path class="st2" d="M660,244.4h-45.2c-0.3,0-0.6-0.3-0.6-0.6v-21c0-0.3,0.3-0.6,0.6-0.6H660c0.3,0,0.6,0.3,0.6,0.6v21
				C660.6,244.1,660.4,244.4,660,244.4z"/>
		</g>
	</g>
	<g>
		<g>
			<polygon class="st7" points="494.6,190.4 449.3,199.9 440.8,213.4 455.4,208.7 453.9,203.6 			"/>
		</g>
		<g>
			<polygon class="st3" points="449.3,199.9 434.7,186.3 494.6,190.4 			"/>
		</g>
		<g>
			<polygon class="st3" points="453.9,203.6 459.8,224.3 494.6,190.4 			"/>
		</g>
	</g>
	<g>
		<path class="st0" d="M398,222.2c-2.6-0.1-5.2-0.3-7.8-0.6l0.1-1.2c2.6,0.3,5.2,0.5,7.7,0.6L398,222.2z M405.9,222.1l-0.1-1.2
			c2.6-0.1,5.2-0.4,7.7-0.8l0.2,1.2C411.1,221.6,408.5,221.9,405.9,222.1z M382.5,220.3c-2.6-0.5-5.1-1.2-7.6-1.9l0.3-1.1
			c2.5,0.7,5,1.4,7.5,1.9L382.5,220.3z M421.4,219.8l-0.3-1.1c2.5-0.6,5-1.4,7.4-2.2l0.4,1.1C426.5,218.4,424,219.1,421.4,219.8z
			 M367.4,215.9c-2.4-1-4.8-2-7.2-3.2l0.5-1c2.3,1.1,4.7,2.2,7.1,3.2L367.4,215.9z M353.4,208.8c-2.2-1.4-4.4-2.9-6.5-4.4l0.7-0.9
			c2,1.5,4.2,3,6.4,4.4L353.4,208.8z M340.9,199.3c-1.7-1.6-3.4-3.3-4.9-5c-1.3,0.2-2.6,0.4-3.9,0.6l-0.1-1.2c1.4-0.2,2.7-0.4,4-0.6
			l0.3-0.2c0,0.1,0.1,0.1,0.1,0.2c1.1-0.2,2.1-0.4,3.2-0.6l0.3,1.1c-0.8,0.2-1.7,0.4-2.5,0.5c1.4,1.5,2.8,3,4.3,4.4L340.9,199.3z
			 M321.7,195.5c-1.7,0-3.4,0-5.2-0.1l0.1-1.2c2.7,0.1,5.3,0.1,7.8,0.1l0,1.2C323.4,195.5,322.6,195.5,321.7,195.5z M308.6,194.8
			c-1.8-0.2-3.6-0.4-5.5-0.6c-0.8-0.1-1.5-0.2-2.3-0.3l0.2-1.2c0.8,0.1,1.5,0.2,2.3,0.3c1.9,0.2,3.7,0.4,5.4,0.6L308.6,194.8z
			 M293.1,192.8c-2.6-0.4-5.1-0.9-7.7-1.4l0.2-1.1c2.5,0.5,5.1,1,7.7,1.4L293.1,192.8z M347.4,191.3l-0.4-1.1c2.4-0.9,4.8-2,7-3.3
			l0.6,1C352.3,189.3,349.9,190.4,347.4,191.3z M277.8,189.8c-2.5-0.6-5.1-1.2-7.6-1.8l0.3-1.1c2.5,0.6,5.1,1.3,7.6,1.8L277.8,189.8
			z M330.6,187.5c-1.5-2.2-2.9-4.5-4-6.8l1-0.5c1.1,2.2,2.4,4.5,3.9,6.7L330.6,187.5z M262.6,185.9c-2.5-0.7-5-1.5-7.5-2.3l0.4-1.1
			c2.5,0.8,5,1.6,7.4,2.3L262.6,185.9z M361.1,183.6l-0.7-0.9c2.1-1.6,3.9-3.4,5.6-5.3l0.9,0.8C365.2,180.1,363.2,181.9,361.1,183.6
			z M247.7,181.1c-2.4-0.9-4.9-1.8-7.3-2.7l0.4-1.1c2.4,0.9,4.9,1.8,7.3,2.7L247.7,181.1z M233.2,175.5c-2.4-1-4.8-2.1-7.2-3.1
			l0.5-1.1c2.4,1.1,4.8,2.1,7.1,3.1L233.2,175.5z M323.6,173.4c-0.8-2.6-1.4-5.2-1.8-7.7l1.2-0.2c0.3,2.5,0.9,5,1.7,7.5L323.6,173.4
			z M371.5,171.8l-1-0.6c1.3-2.3,2.3-4.6,3-7l0.6,0.2l0.6,0.2C373.8,167,372.8,169.4,371.5,171.8z M218.9,169
			c-2.3-1.1-4.7-2.3-7-3.6l0.5-1c2.3,1.2,4.6,2.4,6.9,3.5L218.9,169z M205.1,161.7c-0.5-0.3-1-0.5-1.4-0.8l0.6-1
			c0.5,0.3,1,0.5,1.4,0.8L205.1,161.7z M322.8,157.9l-1.2-0.1c0.1-0.8,0.1-1.6,0.3-2.4c0.2-1.8,0.7-3.6,1.3-5.4l1.1,0.4
			c-0.6,1.7-1,3.4-1.2,5.2C322.9,156.3,322.8,157.1,322.8,157.9z M375.7,156.6l-1.2,0c0-0.1,0-0.3,0-0.4c0-2.4-0.3-4.8-0.9-7.2
			l1.1-0.3c0.6,2.5,0.9,5,0.9,7.5C375.7,156.4,375.7,156.5,375.7,156.6z M327.6,143.5l-1-0.6c1.4-2.2,3.1-4.3,5-6.1l0.8,0.8
			C330.6,139.4,329,141.3,327.6,143.5z M371,141.9c-1.2-2.3-2.8-4.4-4.5-6.1l0.8-0.8c1.8,1.8,3.4,4,4.7,6.4L371,141.9z M338.5,132.9
			l-0.6-1c2.4-1.4,4.8-2.4,7.3-3.1l0.3,1.1C343.1,130.6,340.8,131.6,338.5,132.9z M360.3,131.3c-0.7-0.3-1.5-0.7-2.2-0.9
			c-1.6-0.6-3.3-0.9-5.1-1.1l0.1-1.2c1.8,0.2,3.6,0.5,5.3,1.1c0.8,0.3,1.6,0.6,2.3,1L360.3,131.3z"/>
	</g>
	<g>
		<g>
			<g>
				<g>
					<path class="st10" d="M444.5,411.3c-9.4,3.4-16.6,10.4-20.3,18.8c-1.3,2.8-3.1,5.3-5.3,7.4c-2.2,2.1-4.9,3.7-7.8,4.7
						c-3.1,1.1-5.4,3.2-6.9,5.8c-1.2,2.2-1.8,4.8-1.6,7.5c0.1,1,0.3,2.1,0.7,3.1l3,8.5c1.2,3.3,3.6,5.9,6.6,7.3
						c3,1.4,6.5,1.7,9.8,0.5c5.9-2.1,12.3-1.6,17.9,1.1c8.3,4.1,18.1,5,27.5,1.6c4.7-1.7,8.8-4.2,12.2-7.5c0.6-0.6,1.2-1.1,1.7-1.7
						c8.6-9.3,11.9-22.9,7.5-35.6C483.2,414.4,462.9,404.7,444.5,411.3z"/>
				</g>
			</g>
			<g>
				<g>
					<path class="st11" d="M404.2,448.1c-1.2,2.2-1.8,4.8-1.6,7.5c0.1,1,0.3,2.1,0.7,3.1l3,8.5c1.2,3.3,3.6,5.9,6.6,7.3
						c3,1.4,6.5,1.7,9.8,0.5c5.9-2.1,12.3-1.6,17.9,1.1c8.3,4.1,18.1,5,27.5,1.6c4.7-1.7,8.8-4.2,12.2-7.5
						c-13.1,2.3-32,3.1-48.1-5.7C432.4,464.6,411.4,476,404.2,448.1z"/>
				</g>
			</g>
			<g>
				<g>
					<path class="st2" d="M466.4,416c-8.8-3.4-17.2-3-18.7,0.8c-1.5,3.8,4.5,9.7,13.3,13.1c8.8,3.4,17.2,3,18.7-0.8
						C481.2,425.3,475.2,419.4,466.4,416z"/>
				</g>
			</g>
			<g>
				<g>
					<path class="st7" d="M399.3,446.7c-0.9,0.3-1.6,1-1.9,1.7c-0.1,0.2-0.2,0.4-0.2,0.7c-0.1,0.6-0.1,1.3,0.1,1.9l9.2,25.8
						c0.2,0.6,0.6,1.2,1.1,1.6c0.9,0.7,2.1,0.9,3.2,0.5c0.9-0.3,1.6-1,1.9-1.7c0.4-0.8,0.4-1.7,0.1-2.6l-9.2-25.8
						C403,447,401.1,446.1,399.3,446.7z"/>
				</g>
			</g>
			<g>
				<g>
					<path class="st7" d="M393.6,450.5c-0.9,0.3-1.6,1-1.9,1.7c-0.1,0.2-0.2,0.4-0.2,0.7c-0.1,0.6-0.1,1.2,0,1.7
						c0,0.1,0,0.1,0.1,0.2l8.1,22.7c0,0.1,0,0.1,0.1,0.2c0.2,0.6,0.6,1,1.1,1.4c0.9,0.7,2.1,0.9,3.2,0.5c0.9-0.3,1.6-1,1.9-1.7
						c0.4-0.8,0.4-1.7,0.1-2.6l-8.1-22.7C397.3,450.8,395.4,449.9,393.6,450.5z"/>
				</g>
			</g>
			<g>
				<g>
					<path class="st7" d="M380.9,468l2.1,5.9c1,2.7,4,4.2,6.8,3.2l5.5-2l-5.7-15.9l-5.5,2C381.4,462.2,379.9,465.3,380.9,468z"/>
				</g>
			</g>
			<g>
				<g>
					<path class="st7" d="M388.2,455.5c-0.9,0.3-1.6,1-1.9,1.7c-0.1,0.2-0.2,0.4-0.2,0.7c-0.1,0.6-0.1,1.3,0.1,1.9l6.1,17.1
						c0.2,0.6,0.6,1.2,1.1,1.6c0.9,0.7,2.1,0.9,3.2,0.5c0.9-0.3,1.6-1,1.9-1.7c0.4-0.8,0.4-1.7,0.1-2.6l-6.1-17.1
						C391.9,455.8,389.9,454.9,388.2,455.5z"/>
				</g>
			</g>
			<g>
				<g>
					<path class="st0" d="M397.2,449.1c-0.1,0.6-0.1,1.3,0.1,1.9l9.2,25.8c0.2,0.6,0.6,1.2,1.1,1.6L397.2,449.1z"/>
				</g>
			</g>
			<g>
				<g>
					<path class="st0" d="M391.4,452.9l0,1.7l8.2,23.1c0.2,0.6,0.6,1,1.1,1.4L391.4,452.9z"/>
				</g>
			</g>
			<g>
				<g>
					<path class="st0" d="M386,457.9c-0.1,0.6-0.1,1.3,0.1,1.9l6.1,17.1c0.2,0.6,0.6,1.2,1.1,1.6L386,457.9z"/>
				</g>
			</g>
		</g>
		<g>
			<path class="st11" d="M444.1,433.2c-2.2,2-3.4,5-3.4,8.3c0,1.2,0.1,2.3,0.4,3.6c-6.7,2.4-34.4,11.9-34.5,12l1,2.9
				c0.5-0.2,27.9-9.7,34.4-12c0.2,0.5,0.9,2.4,1,2.8c-6.6,2.3-33.8,12.1-34.3,12.3l1.1,2.9c0.1,0,27.7-9.9,34.4-12.3
				c0.5,1.1,1.2,2.1,1.9,3c2.1,2.6,4.9,4.1,7.8,4.3c3.4,0.2,6.7-1.7,8-4.6c0.7-1.6,0.7-3.6,0-5.3c-0.7-1.6-1.8-2.8-3.3-3.4
				c-1.8-0.7-3.7-0.5-5.3-0.2c-1.3,0.3-4.1,1.1-7.2,2.2c-0.1-0.5-0.8-2.4-1-2.9c3.2-1.1,5.8-2.2,7-2.8c1.5-0.8,3.1-1.8,4.1-3.5
				c0.8-1.4,0.9-3.1,0.4-4.7c-0.5-1.8-1.7-3.3-3.3-4.1C450.4,430.3,446.7,430.9,444.1,433.2z M447.2,452.6c3-1,5.5-1.8,6.7-2.1
				c1.2-0.2,2.5-0.4,3.6,0c0.7,0.3,1.3,0.9,1.6,1.7c0,0.1,0,0.1,0.1,0.2c0.3,0.9,0.3,1.9,0,2.7c-0.8,1.7-2.8,2.9-4.9,2.7
				c-2-0.1-4.1-1.3-5.6-3.2C448,454.1,447.6,453.4,447.2,452.6z M451.8,434.5c0.8,0.4,1.4,1.2,1.7,2.1c0,0.1,0,0.1,0.1,0.2
				c0.3,0.9,0.2,1.7-0.2,2.3c-0.5,1-1.7,1.7-2.8,2.2c-1.1,0.6-3.6,1.5-6.5,2.6c-0.2-0.9-0.3-1.7-0.3-2.5c0-2.4,0.9-4.6,2.4-6
				C447.8,434,450.1,433.6,451.8,434.5z"/>
		</g>
	</g>
	<g>
		<g>
			<g>
				<g>
					<g>
						<path class="st1" d="M513.4,394.3c1.1,0.6,1.5,1.8,1.2,2.6c-1.1,2.5-2,5.1-2.5,7.6c-0.2,1.2-0.4,2.5-0.3,3.6l0,0.4l0,0.4
							c0,0.3,0.1,0.5,0.1,0.8c0.1,0.5,0.2,1,0.4,1.4c0.2,0.4,0.4,0.8,0.6,1.2c0.2,0.4,0.5,0.7,0.8,1c0.1,0.2,0.3,0.3,0.5,0.4
							c0.2,0.1,0.4,0.3,0.6,0.4c0.4,0.3,0.8,0.5,1.3,0.7c0.9,0.4,2,0.7,3.1,0.9c1.1,0.2,2.3,0.3,3.5,0.4c2.4,0.1,5,0,7.6-0.3
							c1.3-0.2,2.6-0.4,3.9-0.6c1.3-0.2,2.6-0.5,3.9-0.8c5.2-1.2,10.5-2.8,15.7-4.7c1.7-0.5,3.4-0.1,5,1c1.5,1.1,2.9,2.9,3.5,5.1
							l0,0c0.7,2.2,0.5,4.4-0.3,6.2c-0.8,1.8-2.2,3.1-4.1,3.4c-5.9,1-11.9,1.8-18,2.2c-1.5,0.1-3.1,0.1-4.6,0.2
							c-1.5,0-3.1,0-4.7-0.1c-3.1-0.2-6.3-0.5-9.5-1.2c-1.6-0.4-3.2-0.8-4.9-1.5c-1.6-0.6-3.2-1.4-4.8-2.5c-0.8-0.5-1.5-1.1-2.2-1.8
							c-0.4-0.3-0.7-0.7-1-1.1c-0.3-0.4-0.6-0.8-0.9-1.2c-1.2-1.6-1.9-3.6-2.3-5.5c-0.2-0.9-0.2-1.9-0.3-2.8c0-0.5,0-0.9,0.1-1.3
							l0.1-0.7l0.1-0.6c0.2-1.7,0.7-3.3,1.3-4.8c1.1-3,2.7-5.7,4.3-8.1C511,393.8,512.3,393.7,513.4,394.3z"/>
					</g>
				</g>
				<g>
					<g>
						<path class="st7" d="M554.2,409.3c-4.6,1.6-9.2,3-13.9,4.1c-2.3,0.6-4.6,1-6.9,1.4c-2.3,0.4-4.6,0.6-6.8,0.7
							c-2.2,0.1-4.4,0-6.3-0.3c-2-0.3-3.7-0.9-4.8-1.7c-0.6-0.4-1.1-0.8-1.4-1.3c-0.4-0.5-0.7-1.1-0.9-1.9c-0.4-1.5-0.3-3.5,0.1-5.6
							l-7.9-2.4c-0.5,1.4-0.9,2.8-1.2,4.4c-0.3,1.6-0.4,3.2-0.2,5c0.2,1.7,0.6,3.6,1.5,5.3c0.8,1.7,2,3.3,3.3,4.5
							c1.3,1.3,2.8,2.3,4.3,3c1.5,0.8,3,1.4,4.4,1.9c3,1,5.9,1.4,8.7,1.8c2.8,0.3,5.6,0.4,8.4,0.4c2.8,0,5.5-0.2,8.2-0.4
							c5.4-0.5,10.7-1.3,15.9-2.3c1.7-0.3,3-1.6,3.7-3.4c0.7-1.8,0.7-4.1,0.1-6.4l0,0c-0.7-2.3-2-4.2-3.4-5.4
							C557.3,409.3,555.7,408.8,554.2,409.3z"/>
					</g>
				</g>
			</g>
		</g>
		<g>
			<g>
				<g>
					<path class="st0" d="M532.5,605.3h-22.4c0-0.8,0.2-1.5,0.6-2.1c0.5-0.7,1.4-1,2.2-1.2c0.9-0.1,1.7-0.1,2.6-0.2
						c2.1-0.1,4.2-0.7,6.1-1.8c1-0.5,1.9-1.2,2.9-1.6l6.1,0.2c0.8,0.9,1.4,2.1,1.6,3.3C532.6,603.1,532.6,604.2,532.5,605.3z"/>
				</g>
			</g>
		</g>
		<g>
			<g>
				<g>
					<path class="st0" d="M582.2,605.3h-22.4c0-0.8,0.2-1.5,0.6-2.1c0.5-0.7,1.4-1,2.2-1.2c0.9-0.1,1.7-0.1,2.6-0.2
						c2.1-0.1,4.2-0.7,6.1-1.8c1-0.5,1.9-1.2,2.9-1.6l6.1,0.2c0.8,0.9,1.4,2.1,1.6,3.3C582.3,603.1,582.3,604.2,582.2,605.3z"/>
				</g>
			</g>
		</g>
		<g>
			<g>
				<path class="st0" d="M579.5,486.1c-0.3-6-47.6-8-48-1.9c0,0-5.5,41.7-5.5,41.7c-0.3,2.5-0.5,5.1-0.6,7.6l-2,65.4l7.8,0
					l21.5-88.6l9.3,33.2l11,55.2l7.8,0.2C580.9,598.7,579.6,489.2,579.5,486.1z"/>
			</g>
		</g>
		<g>
			<g>
				<path class="st7" d="M587.6,439l-0.1,0.6l-0.4,2.4l-0.5,3.1l-8,48.3c-18,2.4-29.7,3.5-47.1-9.4l8.7-44.1l1.3-6.6l0.5-2.4
					l0.9-4.7c0.1-0.6,0.3-1.3,0.5-1.9c2.2-7.6,8.5-13.1,15.9-14.6c0.3-0.1,0.5-0.1,0.8-0.2c0.5-0.1,0.9-0.1,1.4-0.2
					c0.4,0,0.7-0.1,1.1-0.1c2.2-0.1,4.4,0.2,6.6,0.8c0.7,0.2,1.4,0.4,2,0.7c0.2,0.1,0.5,0.2,0.7,0.3c1.2,0.5,2.3,1,3.3,1.7
					c0.3,0.2,0.5,0.3,0.8,0.5c6.8,4.3,11.2,11.6,11.8,19.7C588,434.9,587.9,437,587.6,439z"/>
			</g>
		</g>
		<g>
			<g>
				<g>
					<path class="st3" d="M576,413.2l-10,10.1l-1.3-6.2l-6.7,3.5l2.1-11l0-0.2c0.7-0.1,1.5-0.2,2.2-0.2l0.2,0.2l0.3,0.2l2.9,5
						l6.2-3.5c1.2,0.5,2.3,1,3.3,1.7C575.5,412.9,575.8,413.1,576,413.2z"/>
				</g>
			</g>
		</g>
		<g>
			<g>
				<path class="st2" d="M541.2,433.1l-0.1,0.3l-1.3,6.6l-1.2,6.2c0.1,0,0.2,0,0.3,0l1.2-6.2l1.3-6.6l0-0.2L541.2,433.1z
					 M535.8,487.1c-0.1,0.1-0.1,0.2-0.2,0.2c5.9,3.8,11.4,6.1,17.1,7.2l0.1,0c0-0.1,0.1-0.2,0.1-0.3
					C547.4,493.2,541.9,491,535.8,487.1z M586.9,445.2l0.5-3.1l0.4-2.4l0.1-0.6c0.3-2.1,0.4-4.1,0.3-6.2c-0.2-2.4-0.7-4.7-1.5-6.9
					l-0.3,0c0.8,2.2,1.3,4.5,1.5,6.9c0.2,2,0.1,4.1-0.3,6.1l-0.1,0.6l-0.4,2.4l-0.5,3.1l-8,48.3c-1.7,0.2-3.4,0.4-5,0.6l0,0.3
					c1.6-0.2,3.2-0.4,5-0.6l0.2,0L586.9,445.2z M561.4,409.1c-0.7,0.1-1.5,0.2-2.2,0.3c-7.8,1.6-14,7.3-16.2,14.9
					c-0.1,0.3-0.2,0.5-0.2,0.8l0.3,0.2c0.1-0.3,0.2-0.6,0.3-0.9c2.2-7.6,8.5-13.1,15.9-14.6c0.7-0.1,1.4-0.3,2.2-0.3
					c2.4-0.2,4.8-0.1,7.3,0.6l0.2-0.3c-0.5-0.1-1-0.3-1.5-0.4C565.4,409,563.4,408.9,561.4,409.1z M535.5,462l-2.4,12.4l0.3,0
					l2.4-12.3L535.5,462z"/>
			</g>
		</g>
		<g>
			<g>
				<g>
					<path class="st4" d="M566,417.7c-0.9-0.4-1.7-0.9-2.6-1.3c-9.2,18.2-15.9,38-19.7,59.1c1,2.3,2,4.6,3.1,6.9
						c1.6-1.9,3.3-3.7,4.9-5.5C553.6,456.3,558.5,436.4,566,417.7z"/>
				</g>
			</g>
		</g>
		<g>
			<g>
				<g>
					<g>
						<g>
							<path class="st12" d="M564.5,397.2l-3,15.2c2.9,2.8,6.2,3.4,9.9,1.9l3-15.2L564.5,397.2z"/>
						</g>
					</g>
					<g>
						<g>
							<path class="st1" d="M564.5,397.2l-1.4,6.9c0.6,0.4,1.4,0.7,2.1,0.9c0.2,0.1,0.5,0.1,0.7,0.2c2.7,0.5,5.5-0.2,7.6-2l0.8-4.1
								L564.5,397.2z"/>
						</g>
					</g>
					<g>
						<g>
							<path class="st12" d="M561.9,387.1l-1,6.4l-0.4,2.6c-0.6,3.6,1.6,7,5.1,8c1.2,0.3,2.3,0.4,3.5,0.2c0.3,0,0.5-0.1,0.8-0.2
								c0.2,0,0.3-0.1,0.5-0.1c1.5-0.5,2.9-1.4,3.8-2.8c0.8-1.1,1.7-2.4,2.5-3.7c0.5-0.8,0.9-1.5,1.4-2.3c2-3.5,2.1-7.9-0.1-11.3
								c-1.9-2.9-4.7-4.3-8.5-3.9C565.6,380.3,562.5,383.2,561.9,387.1z"/>
						</g>
					</g>
				</g>
				<g>
					<g>
						<g>
							<path class="st0" d="M579,393.2c4.1-7.2,0.4-9.4,0.4-9.4c0.1,0,0.3-1,0.3-1.1c0-0.4,0-0.8-0.1-1.2c-0.7-2.7-3.4-2.9-5.6-3.4
								c-1.3-0.3-2.3-0.8-3-1.9c-0.8-1.1-1.1-2.5-2.1-3.5c-1.4-1.6-4.1-1.3-5.5,0.1c-0.3,0.3-0.6,0.7-0.9,1.1
								c-1.2,2.2-1.5,5.2-0.3,7.5c1.1,2.1,3.5,3.1,5.6,3.8c0.7,0.2,1.4,0.4,2.1,0.6c3.6,1,5.9-1.6,5.9-1.6c-1,0.7-1.9,3.2-1.6,5.1
								c0.4,1.8-0.9,4.7-0.9,4.7l0.3,0C575.6,392,577.6,391.5,579,393.2z"/>
						</g>
					</g>
					<g>
						<g>
							<path class="st0" d="M564.1,383.6c0,0-1.7,2.9-2.8,7.6c0,0-0.2-5.4,1.7-8.8L564.1,383.6z"/>
						</g>
					</g>
				</g>
				<g>
					<g>
						<path class="st12" d="M573.2,394.1c-0.4,1.8,1,3.6,3.1,4c2,0.4,4-0.7,4.4-2.6c0.4-1.8-1-3.6-3.1-4
							C575.5,391.1,573.6,392.3,573.2,394.1z"/>
					</g>
				</g>
			</g>
		</g>
		<g>
			<g>
				<g>
					<g>
						<path class="st10" d="M501.4,403.5l-0.1,2l9.2,4.5c0.6,0.3,1.4,0,1.7-0.7l5.9-16.6l0.1-0.2l-7.4-3.3l0,0.1l-0.6,1.6l-3.9,11.6
							L501.4,403.5z"/>
					</g>
				</g>
				<g>
					<g>
						<polygon class="st0" points="530.3,383.7 526.4,391.6 520.5,390.6 525.8,379.7 						"/>
					</g>
				</g>
				<g>
					<g>
						<path class="st7" d="M513.5,371.1l-6.7,13.8l13.1,6.4c1.1,0.5,2.4,0.2,3.2-0.7l0,0c0.1-0.2,0.2-0.3,0.3-0.5l4.4-9
							c0.6-1.3,0.1-2.9-1.2-3.5L513.5,371.1z"/>
					</g>
				</g>
				<g>
					<g>
						<path class="st7" d="M508.8,385.9l-0.1,2.9l0,0.8c0,0.6,0.4,1.2,1.1,1.4l0.3,0.1l3.8,0.9l4.1,0.9l0.1,0
							c0.4,0.1,0.9-0.1,1.1-0.5l0.5-1.1L508.8,385.9z"/>
					</g>
				</g>
				<g>
					<g>
						<path class="st0" d="M508.9,394.7l-1.7,5.2l-0.4-0.2c-0.8-0.4-1.1-1.2-0.9-2l0.7-1.9C506.8,394.7,507.9,394.3,508.9,394.7z"/>
					</g>
				</g>
			</g>
			<g>
				<g>
					<g>
						<path class="st10" d="M498.1,351.5l-16.3,33.3c1.7-0.4,3.3-0.8,5-1.1c0.1,0,0.2,0,0.3-0.1c0.2,0,0.4-0.1,0.6-0.1
							c0.1,0,0.2,0,0.3,0c0.1,0,0.2,0,0.3,0c0.1,0,0.2,0,0.3,0c0.3,0,0.6-0.1,1-0.1c0.1,0,0.2,0,0.3,0c0.3,0,0.7-0.1,1-0.1
							c0.1,0,0.2,0,0.3,0c0.1,0,0.2,0,0.3,0c0.4,0,0.8,0,1.1-0.1c0.1,0,0.2,0,0.3,0c0.1,0,0.3,0,0.4,0c0.1,0,0.3,0,0.4,0
							c0,0,0,0,0,0c0.2,0,0.5,0,0.7,0c0.1,0,0.3,0,0.4,0c0.4,0,0.8,0,1.2,0c0,0,0,0,0,0c0.1,0,0.2,0,0.4,0c0.1,0,0.3,0,0.4,0
							c0.3,0,0.6,0,0.8,0.1c0.1,0,0.2,0,0.3,0c0.2,0,0.5,0,0.7,0.1c0.1,0,0.1,0,0.2,0c0,0,0.1,0,0.1,0c0.2,0,0.4,0,0.7,0.1
							c0.5,0.1,1.1,0.1,1.6,0.2c0.1,0,0.2,0,0.2,0c0.3,0,0.5,0.1,0.8,0.1c0.1,0,0.2,0,0.3,0.1c0,0,0,0,0.1,0c0.1,0,0.1,0,0.2,0
							c0.1,0,0.2,0,0.3,0.1c0.1,0,0.2,0.1,0.4,0.1c0.1,0,0.3,0.1,0.4,0.1c0.1,0,0.3,0.1,0.4,0.1c0.1,0,0.2,0.1,0.3,0.1
							c0,0,0.1,0,0.1,0c0.1,0,0.2,0,0.3,0.1c0.4,0.1,0.7,0.2,1.1,0.3c0.1,0,0.2,0,0.2,0.1c0,0,0,0,0,0c0.1,0,0.2,0.1,0.3,0.1
							c0.1,0,0.2,0.1,0.3,0.1c0.5-0.4,1-0.8,1.5-1.3c3.2-3.1,5-7.3,5.3-12.5c-5.6-3.2-10-8-13.2-14.4
							C499.5,355.1,498.8,353.3,498.1,351.5z"/>
					</g>
				</g>
				<g>
					<g>
						<g>
							<path class="st10" d="M483.6,365c-4.5,9.2-5.3,18-1.7,19.8c1.3,0.7,3.1,0.2,5-1.1c3.2-2.1,6.8-6.7,9.6-12.4
								c1.4-2.8,2.4-5.6,3.1-8.2c0.6-2.3,0.9-4.5,0.9-6.3c0-2.6-0.8-4.6-2.2-5.3C494.6,349.7,488.1,355.8,483.6,365z"/>
						</g>
					</g>
					<g>
						<g>
							<path class="st11" d="M484.3,365.3c-0.9,1.9-1.7,3.7-2.3,5.5c-0.4,1.1-0.7,2.1-0.9,3.1c0,0.2-0.1,0.3-0.1,0.5
								c-0.3,1.4-0.5,2.6-0.6,3.7c-0.1,2.5,0.4,4.3,1.6,4.9c2,1,5.5-1.6,8.8-6.2c0.3-0.4,0.6-0.8,0.9-1.3c0.1-0.1,0.1-0.2,0.2-0.3
								c0,0,0-0.1,0.1-0.1c0.1-0.2,0.2-0.3,0.3-0.5c0.8-1.3,1.6-2.8,2.4-4.3c0.9-1.8,1.6-3.6,2.2-5.3l0,0c2.2-6.3,2.3-11.4,0.1-12.5
								C494,351.2,488.4,356.9,484.3,365.3z"/>
						</g>
					</g>
					<g>
						<g>
							<path class="st0" d="M490.6,364.1l-3.4,7c3.4,1.6,4.6,4.2,4.6,4.2l0,0c1-1.5,1.9-3.1,2.8-4.9c0.9-1.8,1.6-3.6,2.2-5.3l0,0
								C493.9,366.4,490.6,364.1,490.6,364.1z"/>
						</g>
					</g>
					<g>
						<g>
							
								<ellipse transform="matrix(0.4396 -0.8982 0.8982 0.4396 -56.1505 645.1494)" class="st10" cx="488.9" cy="367.6" rx="3.9" ry="1.9"/>
						</g>
					</g>
				</g>
			</g>
			<g>
				<g>
					<path class="st0" d="M506.8,384.9l13.1,6.4c1.1,0.5,2.4,0.2,3.2-0.7l0,0c0,0-2.5-1.3-10.3-5.1c-1.4-0.7-3-1.3-4.5-1.9
						C507.8,384,507.3,384.5,506.8,384.9z"/>
				</g>
			</g>
			<g>
				<g>
					<path class="st11" d="M486.8,383.7c0.1,0,0.2,0,0.3-0.1c0.2,0,0.4-0.1,0.6-0.1c0.1,0,0.2,0,0.3,0c0.1,0,0.2,0,0.3,0
						c0.1,0,0.2,0,0.3,0c0.3,0,0.6-0.1,1-0.1c0.1,0,0.2,0,0.3,0c0.3,0,0.7-0.1,1-0.1c0.1,0,0.2,0,0.3,0c0.1,0,0.2,0,0.3,0
						c0.4,0,0.8,0,1.1-0.1c0.1,0,0.2,0,0.3,0c0.1,0,0.3,0,0.4,0c0.1,0,0.3,0,0.4,0c0,0,0,0,0,0c0.2,0,0.5,0,0.7,0c0.1,0,0.3,0,0.4,0
						c0.4,0,0.8,0,1.2,0c0,0,0,0,0,0c0.1,0,0.2,0,0.4,0c0.1,0,0.3,0,0.4,0c0.3,0,0.6,0,0.8,0.1c0.1,0,0.2,0,0.3,0
						c0.2,0,0.5,0,0.7,0.1c0.1,0,0.1,0,0.2,0c0,0,0.1,0,0.1,0c0.2,0,0.4,0,0.7,0.1c0.5,0.1,1.1,0.1,1.6,0.2c0.1,0,0.2,0,0.2,0
						c0.3,0,0.5,0.1,0.8,0.1c0.1,0,0.2,0,0.3,0.1c0,0,0,0,0.1,0c0.1,0,0.1,0,0.2,0c0.1,0,0.2,0,0.3,0.1c0.1,0,0.2,0.1,0.4,0.1
						c0.1,0,0.3,0.1,0.4,0.1c0.1,0,0.3,0.1,0.4,0.1c0.1,0,0.2,0.1,0.3,0.1c0,0,0.1,0,0.1,0c0.1,0,0.2,0,0.3,0.1
						c0.4,0.1,0.7,0.2,1.1,0.3c0.1,0,0.2,0,0.2,0.1c0,0,0,0,0,0c0.1,0,0.2,0.1,0.3,0.1c0.1,0,0.2,0.1,0.3,0.1c0.5-0.4,1-0.8,1.5-1.3
						c-0.2-0.1-0.5-0.2-0.7-0.3c-6.8-2.7-13.6-5.1-11.3-9.4c1.5-2.7,2.6-7.2,3.2-10.9c-0.7,2.6-1.7,5.4-3.1,8.2
						C493.6,377,490,381.5,486.8,383.7z"/>
				</g>
			</g>
			<g>
				<g>
					<path class="st11" d="M513.9,391.8c0.8,1.3,1.2,3.1,0.6,5.6c-2.1,8.5-2.4,12.2-4.8,12.1l0.7,0.4c0.6,0.3,1.4,0,1.7-0.7
						l5.9-16.6L513.9,391.8z"/>
				</g>
			</g>
			<g>
				<g>
					<path class="st0" d="M508.8,385.9l-0.1,2.9c0.5,0.1,1.2,0.3,1.9,0.5c1.2,0.5,2.5,1.2,3.3,2.5l4.1,0.9l0.1,0
						c0.4,0.1,0.9-0.1,1.1-0.5l0.5-1.1L508.8,385.9z"/>
				</g>
			</g>
		</g>
		<g>
			<g>
				<g>
					<g>
						<path class="st5" d="M565.1,508.7l2.8-4.3l4.2,3.3l-3.5,3.7c-0.9,1-2.3,1.2-3.2,0.4C564.4,511.2,564.3,509.8,565.1,508.7z"/>
					</g>
				</g>
			</g>
			<g>
				<g>
					<path class="st7" d="M572.3,508.1l-5-3.7c3.8-5.9,7.5-11.8,10.4-17.8c1.4-3,2.7-6.1,3.6-9.1c0.9-3.1,1.5-6.1,1.7-9.2
						c0.4-6.2-0.7-12.4-2.5-18.6c-0.9-3.1-2.1-6.2-3.3-9.3l-1-2.3l-1-2.3l-0.5-1.1l-0.5-1.1l-1.1-2.3c-0.1-0.1-0.1-0.2-0.2-0.3
						c-0.4-1-0.6-2-0.6-3.1c0-1,0.2-2,0.6-3c0.8-1.9,2.3-3.6,4.4-4.5l0,0c2.1-1,4.4-0.9,6.4,0c2,0.8,3.7,2.6,4.5,4.8l0.9,2.6
						l0.4,1.3l0.4,1.3c0.3,0.9,0.5,1.8,0.8,2.6l0.7,2.7c1,3.6,1.8,7.2,2.5,11c0.6,3.7,1.1,7.6,1.1,11.5c0.1,3.9-0.2,7.9-0.9,11.7
						c-0.7,3.9-1.9,7.6-3.4,11.2c-1.5,3.5-3.3,6.8-5.3,10c-2,3.1-4.1,6.1-6.3,8.9C576.8,502.6,574.6,505.4,572.3,508.1z"/>
				</g>
			</g>
			<g>
				<g>
					<path class="st2" d="M575.1,435.7l-0.5-1.1l-0.5-1.1l-1.1-2.3c-0.1-0.1-0.1-0.2-0.1-0.3c-0.4-1-0.6-2-0.6-3.1
						c0-0.4,0-0.7,0.1-1.1l-0.3-0.1c-0.1,0.4-0.1,0.8-0.1,1.2c0,1.1,0.2,2.2,0.6,3.2c0,0.1,0.1,0.2,0.2,0.3l1.6,3.4l0.5,1.1l0.2,0.4
						l0.3,0L575.1,435.7z M578,442.8l-0.3,0.1c0.9,2.3,1.6,4.4,2.2,6.4l0.3,0C579.6,447.1,578.8,444.9,578,442.8z M588.4,424.9
						c-0.8-2.3-2.5-4.1-4.7-5c-1.1-0.5-2.2-0.7-3.4-0.7c-1.1,0-2.3,0.3-3.3,0.7l0,0c-1.6,0.7-3,1.9-3.9,3.4l0.3,0.1
						c0.9-1.4,2.1-2.5,3.7-3.2l0,0c2.1-1,4.4-0.9,6.4,0c2,0.8,3.7,2.6,4.5,4.8l0.4,1.2l0.2-0.2L588.4,424.9z M595.3,458
						c-0.1-3.6-0.4-7.4-1.1-11.5c-0.6-3.4-1.4-7-2.5-11l-0.8-2.7l0,0l-0.3,0c0,0,0,0,0,0.1l0.7,2.7c1,3.6,1.8,7.2,2.5,11
						c0.6,3.7,1.1,7.6,1.1,11.5c0,1.5,0,3-0.1,4.5l0.3,0.1C595.3,461,595.3,459.5,595.3,458z M589.6,483.2c-1.3,2.7-2.7,5.2-4.3,7.7
						c-2,3.1-4.1,6.1-6.3,8.9c-0.9,1.2-1.8,2.3-2.7,3.4l0.1,0.4c1-1.3,2-2.4,2.8-3.6c2.5-3.3,4.5-6.1,6.3-8.9
						c1.7-2.6,3.1-5.2,4.3-7.7C589.8,483.3,589.7,483.2,589.6,483.2z M577.6,486.6c1.4-3,2.7-6.1,3.6-9.1c0.9-3.1,1.5-6.1,1.7-9.2
						c0.1-1.6,0.1-3.2,0-4.8l-0.3,0.1c0.1,1.6,0.1,3.1,0,4.7c-0.2,2.9-0.7,6-1.6,9.2c-0.8,2.9-2,5.9-3.5,9.1
						c-0.4,0.8-0.8,1.6-1.2,2.5l0.2,0.2C576.8,488.3,577.2,487.4,577.6,486.6z M574.7,491.5c-2.5,4.5-5.2,8.8-7.7,12.7l-0.2,0.2
						l2.7,2c0-0.1,0-0.2,0.1-0.3l-2.3-1.7c2.7-4.2,5.4-8.4,7.7-12.7L574.7,491.5z"/>
				</g>
			</g>
		</g>
	</g>
	<g>
		<path class="st10" d="M216.5,572.6c-0.1,0-0.3,0-0.4,0c-3.1-0.2-5.6-2.8-5.6-6v-82.9c0-3.3,2.7-6,6-6h82.9c3.3,0,6,2.7,6,6v22.8
			c1.9-0.6,4-1,6.1-1c10.8,0,19.6,8.8,19.6,19.6c0,10.8-8.8,19.6-19.6,19.6c-2.1,0-4.2-0.3-6.1-1v22.8c0,3.2-2.5,5.8-5.6,6
			c-0.1,0-0.3,0-0.4,0h-22.8c0.6-1.9,1-4,1-6.1c0-10.8-8.8-19.6-19.6-19.6c-10.8,0-19.6,8.8-19.6,19.6c0,2.1,0.3,4.2,1,6.1H216.5z"
			/>
	</g>
	<g>
		<path class="st4" d="M585.7,273.4c0-0.1,0-0.3,0-0.4c0.2-3.1,2.8-5.6,6-5.6h82.9c3.3,0,6,2.7,6,6v82.9c0,3.3-2.7,6-6,6h-22.8
			c0.6,1.9,1,4,1,6.1c0,10.8-8.8,19.6-19.6,19.6c-10.8,0-19.6-8.8-19.6-19.6c0-2.1,0.3-4.2,1-6.1h-22.8c-3.2,0-5.8-2.5-6-5.6
			c0-0.1,0-0.3,0-0.4v-22.8c1.9,0.6,4,1,6.1,1c10.8,0,19.6-8.8,19.6-19.6c0-10.8-8.8-19.6-19.6-19.6c-2.1,0-4.2,0.3-6.1,1V273.4z"/>
	</g>
	<g>
		<g>
			<path class="st13" d="M94.9,142.5c-0.1-0.7-0.2-1.4-0.2-2.2c0-6.9,5.6-12.6,12.6-12.6c0.3,0,0.6,0,0.9,0c0-0.3,0-0.7,0-1
				c0-6.9,5.6-12.6,12.6-12.6c4.8,0,8.9,2.7,11,6.6c1.8,0,3.5,0.5,5,1.2c1.6-0.8,3.4-1.2,5.3-1.2c6.6,0,12,5.1,12.5,11.5
				c1.5-0.6,3.2-1,4.9-1c6.5,0,11.8,4.9,12.5,11.2H94.9z"/>
		</g>
		<g>
			<g>
				<path class="st13" d="M317.8,262.8c0.3-0.7,0.4-1.4,0.4-2.2c0-3-2.4-5.4-5.4-5.4c-0.8,0-1.5,0.2-2.2,0.5
					c0.2-0.6,0.3-1.2,0.3-1.9c0-3.8-3.1-6.8-6.8-6.8c-1.2,0-2.3,0.3-3.2,0.8c-1.2-4-5-7-9.5-7c-5.5,0-9.9,4.4-9.9,9.9
					c0,0.3,0,0.5,0,0.8c-0.2,0-0.5-0.1-0.7-0.1c-3,0-5.4,2.4-5.4,5.4c0,0.3,0,0.6,0.1,1c0,0-0.1,0-0.1,0c-2.8,0-5.2,2.2-5.4,5H317.8
					z"/>
			</g>
		</g>
		<g>
			<path class="st13" d="M454.2,127.1c1.1-2.9,3.2-5.3,5.9-6.6c-0.6-1.4-0.9-3-0.9-4.6c0-6.7,5.5-12.2,12.2-12.2
				c0.6,0,1.2,0,1.8,0.1c1.9-8.5,9.5-14.8,18.6-14.8c7.9,0,14.8,4.9,17.6,11.8c1.6-0.7,3.3-1.1,5.1-1.1c6.7,0,12.2,5.5,12.2,12.2
				c0,0.6,0,1.2-0.1,1.8c0.8-0.2,1.7-0.3,2.5-0.3c6.7,0,12.2,5.5,12.2,12.2c0,0.5,0,1-0.1,1.5H454.2z"/>
		</g>
		<g>
			<path class="st13" d="M38.4,327.1c3.7,0,7.2,1.1,10.2,2.9c2.4-4.3,7-7.3,12.3-7.3c6.7,0,12.2,4.6,13.7,10.8
				c3.2-5,8.8-8.4,15.2-8.4c9.8,0,17.8,7.8,18,17.5c5.2,2.6,8.8,8,8.8,14.2c0,0.5,0,0.9-0.1,1.4H99.8H79.9H23.2
				c-2.6-3.3-4.1-7.4-4.1-11.9C19.1,335.7,27.7,327.1,38.4,327.1z"/>
		</g>
	</g>
	<g>
		<defs>
			<rect id="SVGID_1_" x="67.1" y="444" width="125.8" height="86.3"/>
		</defs>
		<clipPath id="SVGID_2_">
			<use xlink:href="#SVGID_1_"  style="overflow:visible;"/>
		</clipPath>
		<g class="st14">
			<path class="st13" d="M87.8,521.5c3-1.2,4.6-4.4,6.2-7.3c1.5-2.9,3.7-6,7-6.3c3-0.3,5.7,2,7.2,4.6c1.5,2.6,2.4,5.6,4,8.1
				c1.6,2.5,4.5,4.7,7.4,4.2c3-0.5,5-3.6,8-4.3c3.3-0.8,6.6,1.7,8,4.8c1.4,3.1,1.2,6.6,1.1,9.9c-0.1,2.7-48.7-0.5-53.3-1
				c-4.7-0.5-11.4-0.7-11.4-6.8C71.9,518.1,82.7,523.5,87.8,521.5z"/>
		</g>
		<g class="st14">
			<path class="st13" d="M144.1,526.2c3-0.8,4.6-3,6.2-5c1.5-2,3.7-4.1,7-4.3c3-0.2,5.7,1.4,7.2,3.1c1.5,1.8,2.4,3.8,4,5.5
				c1.6,1.7,4.5,3.2,7.4,2.9c3-0.4,5-2.5,8-2.9c3.3-0.5,6.6,1.2,8,3.3c1.4,2.1,1.2,4.5,1.1,6.8c-0.1,1.9-48.7-0.3-53.3-0.7
				c-4.7-0.3-11.4-0.5-11.4-4.7C128.2,523.9,139,527.6,144.1,526.2z"/>
		</g>
		<g class="st14">
			<g>
				<g>
					<g>
						<path class="st13" d="M115.8,473.6c1.7,1.4,3.1,3.2,4.3,5.1c0.1,0.1,0.1,0.2,0.2,0.4c1.3,2.1,2.6,4.3,4.5,5.7
							c2.3,1.7,5.4,2.6,7.5,4.3c0.1,0.1,0.3,0.2,0.4,0.4c0.5,0.5,1,1.1,1.3,1.8c1.1,2.3,0.6,5,0.4,7.6c0,0,0,0.1,0,0.1
							c0,0.1,0,0.2,0,0.3c-0.2,4.7,1.4,9.5,4.3,13.2c2.3,2.9,5.1,4.2,8,6.1c1.6,1,2.3,2.2,2.3,3.4c0,0.1,0,0.3,0,0.4
							c-0.2,2.1-2.3,4.3-4.5,5.7c-4.1,2.6-9.3,3.6-14,2.3c-3.6-1-7.1-3.5-8-7.1c0-0.1-0.1-0.3-0.1-0.4c0-0.1,0-0.2-0.1-0.3
							c-0.2-1.6,0-3.4-0.9-4.8c-1.2-1.7-3.6-1.8-5.2-2.9c-2-1.4-2.5-4.1-2.2-6.5c0-0.1,0-0.3,0.1-0.4c0,0,0,0,0-0.1
							c0.5-2.5,1.9-4.8,2.8-7.2c0.5-1.3,0.9-2.8,1-4.2c0-0.1,0-0.3,0-0.4c0-1-0.2-2-0.6-2.9c-1-2.2-3.3-3.5-5.6-4.3
							c-2.1-0.7-4.3-1.2-6.3-2.1c-0.2-0.1-0.4-0.2-0.5-0.2c0,0,0,0-0.1,0c-3.5-1.8-6.2-5.3-6.9-9.2c-0.2-0.9-0.2-1.9-0.1-2.9
							c0-0.2,0.1-0.3,0.1-0.5c0.5-2.2,4.6-2.7,6.4-3c2.9-0.4,6.1,0,8.8,1.2C114.2,472.5,115.1,473,115.8,473.6z"/>
					</g>
				</g>
				<g>
					<path class="st3" d="M117.4,484.7c-3.1-2.8-6.9-4.5-10.6-6.1c-2.1-0.9-4.3-1.9-6.3-3.1c-0.8-0.4-1.6-1-2.3-1.7
						c0,0.1-0.1,0.3-0.1,0.5c0.7,0.6,1.5,1.1,2.2,1.6c2,1.2,4.2,2.1,6.4,3.1c3.8,1.7,7.7,3.4,10.7,6.2c0.1,0.1,0.2,0.2,0.3,0.3
						c0,0,0,0,0.1,0.1c0.5,0.5,0.9,0.9,1.3,1.4c-1.1,0.5-2.4,0.4-3.3,0.2c-0.7-0.1-1.4-0.4-2.1-0.6c-0.5-0.2-1.1-0.4-1.7-0.5
						c-2.3-0.6-4.7-0.4-6.9,0.3c0.2,0.1,0.4,0.2,0.5,0.2l0,0c2.1-0.6,4.3-0.7,6.3-0.2c0.6,0.1,1.1,0.3,1.6,0.5
						c0.7,0.2,1.4,0.4,2.1,0.6c1,0.2,2.4,0.3,3.6-0.3c1.4,1.7,2.4,3.5,3.4,5.5c0.1,0.1,0.1,0.2,0.2,0.4c0.6,1.3,1.1,2.6,1.6,4
						c-2-0.8-4.2-1.2-6.3-1.1c0,0,0,0-0.1,0c0,0.1,0,0.3,0,0.4c0,0,0.1,0,0.1,0c2.2-0.1,4.5,0.4,6.5,1.3c0.5,1.3,0.9,2.6,1.3,3.9
						c0,0.1,0.1,0.3,0.1,0.4c0,0.1,0.1,0.3,0.1,0.4c0.1,0.2,0.1,0.4,0.2,0.6c0.6,1.8,1.3,3.6,2.1,5.4c-4.7,1-9.7,0.8-14.3-0.6
						c0,0.1,0,0.3-0.1,0.4c4.7,1.4,9.8,1.6,14.6,0.5c1.3,2.9,2.8,5.5,4.9,7.7c-3.4,2.6-7.1,4.7-11,6.3c0,0.1,0.1,0.3,0.1,0.4
						c4-1.6,7.8-3.8,11.2-6.4c1,1,2.1,1.9,3.3,2.7c3.5,2.2,7.5,2.8,11.9,2.9c0-0.1,0-0.3,0-0.4c-4.3-0.1-8.3-0.7-11.7-2.8
						c-1.2-0.7-2.3-1.6-3.2-2.6c-0.1-0.1-0.2-0.2-0.3-0.3c-2-2.1-3.5-4.8-4.8-7.6c-0.1-0.1-0.1-0.2-0.2-0.4
						c-0.8-1.8-1.5-3.6-2.1-5.4c-0.1-0.2-0.2-0.5-0.2-0.7c2.4-1.3,5.1-2.3,7.8-2.9c0-0.1,0-0.2,0-0.3c0,0,0-0.1,0-0.1
						c-2.8,0.6-5.5,1.5-8,2.9c0-0.1-0.1-0.2-0.1-0.4c-0.4-1.2-0.8-2.4-1.2-3.5c-0.1-0.2-0.1-0.3-0.2-0.5c-0.6-1.5-1.1-3-1.8-4.4
						c2.8-2,6.2-3.1,9.6-3.4c-0.1-0.1-0.3-0.2-0.4-0.4c0,0,0,0,0,0c-3.3,0.3-6.6,1.4-9.3,3.4c-1-2-2.1-3.9-3.5-5.6l0,0l0,0l0-0.1
						c0,0,0,0,0,0c-0.5-0.5-1-1.1-1.5-1.6c0,0-0.1-0.1-0.1-0.1c0.4-2.2,1.3-4.2,2.5-6c-0.1-0.1-0.1-0.2-0.2-0.4
						C118.8,480.5,117.8,482.6,117.4,484.7z"/>
				</g>
			</g>
			<g>
				<path class="st13" d="M140.6,489.2c1.3-0.7,2.8,0.2,4.2,0.6c1.4,0.5,3.1,0.6,4.4-0.1c1.3-0.7,2.1-2.5,1.5-3.8
					c-0.6-1.2-2-1.7-3.3-1.7s-2.6,0.4-3.8,0.6s-2.7,0.3-3.8-0.5c-1.1-0.7-1.6-2.4-0.8-3.4c0.6-0.7,1.8-0.8,2.8-0.5
					c0.9,0.3,1.8,0.9,2.7,1.3c3.5,1.7,8.1,0.7,10.6-2.3c0.9-1.2,1.5-2.9,0.6-4.1c-1.1-1.5-3.4-0.8-4.7,0c-1.6,0.9-2.7,2.5-4.3,3.4
					c-2.1,1.2-6.8,1.4-7.7-1.5c-0.4-1.1,1.1-2,2-2.2c1.1-0.2,2.2-0.1,3.3,0c5.2,0.1,9.5-3.4,11.1-8.2c1.4-4.1-2.7-3.4-5.2-2.4
					c-1.7,0.7-3.2,1.8-4.3,3.3c-0.6,0.8-1,1.8-1.8,2.4c-0.8,0.6-2.2,0.6-2.6-0.3c-0.5-0.9,0.4-2,1.1-2.7c1.4-1.3,2.7-2.6,4.1-3.9
					c0.8-0.7,1.5-1.5,1.9-2.5c0.4-1,0.3-2.2-0.5-2.9c-0.9-0.8-2.4-0.4-3.2,0.3c-0.9,0.8-1.3,1.9-1.7,3.1c-0.8,2-1.5,4-2.3,6
					c-0.3,0.8-0.8,1.8-1.6,1.9c-0.9,0.1-1.6-0.8-2-1.6c-0.7-1.8-0.6-3.9-0.3-5.8c0.2-2,0.6-3.9,0.2-5.9c-0.4-1.9-1.6-3.8-3.5-4.4
					c-2.8-0.7-5.6,2-5.6,4.8s2,5.4,4.4,6.9c1.1,0.6,2.4,1.4,2.4,2.6c0,1.3-1.6,2-2.9,1.8c-1.3-0.3-2.3-1.1-3.4-1.7
					c-1.1-0.6-2.6-1-3.6-0.3c-1.1,0.8-1.2,2.5-0.4,3.6c0.8,1.1,2.3,1.5,3.6,1.3c2.3-0.3,4.5-2,6.7-1.3c1.1,0.4,2,1.4,2.1,2.6
					s-0.7,2.4-1.9,2.7c-1.9,0.4-3.4-1.4-5.3-1.8c-1.8-0.4-3.7,0.8-4.3,2.5c-0.5,1.7,0.5,3.8,2.2,4.5c1.2,0.5,2.6,0.3,4,0
					c1.3-0.3,2.7-0.6,4-0.3c1.3,0.3,2.6,1.4,2.5,2.7c-0.1,1.8-2.6,2.6-4.3,2.1c-1.8-0.5-3.2-1.9-4.9-2.5c-1.7-0.6-4.2-0.2-4.6,1.6
					c-0.4,1.7,1.4,3.2,3.2,3.5c1.8,0.2,3.5-0.3,5.3-0.2c1.8,0.1,3.8,1.2,3.8,3c0,1.6-1.6,2.7-3.1,2.9c-1.6,0.1-3-0.5-4.5-1.2
					c-1.4-0.6-2.9-1.2-4.5-1c-1.5,0.2-3.1,1.5-2.9,3.1c0.2,1.5,1.7,2.4,3.1,2.6c1.4,0.3,2.9,0.1,4.4,0.5c1.4,0.4,2.8,1.6,2.6,3.1
					c-0.2,1.5-2,2.3-3.5,2.5c-1.5,0.2-3.3,0.2-4.4,1.3c-0.9,0.8-1.1,2.3-0.6,3.4c0.5,1.1,1.8,1.8,3,1.6c1.9-0.2,3.5-2.3,5.4-1.9
					c1.1,0.3,1.8,1.3,2.1,2.4c0.3,1.1,0.2,2.2,0.4,3.3c0.3,2.5,1.6,5,3.9,6.1c2.3,1.1,5.5,0.2,6.4-2.1c0.7-1.8,0-3.9-1.1-5.5
					c-1-1.6-2.4-3.1-3.2-4.9c-0.7-1.8-0.7-4.1,0.8-5.3c1-0.8,2.5-0.9,3.8-0.9c1.3,0,2.7,0.1,3.9-0.5c1.2-0.6,2-2.2,1.3-3.3
					c-0.4-0.6-1-0.9-1.7-1.1c-2.5-0.6-6,0.9-7.8-1.6C139.4,491.8,139.3,489.9,140.6,489.2z"/>
			</g>
			<g>
				<g>
					<path class="st3" d="M183.9,471c-0.1,0.1-0.1,0.3-0.2,0.4c-0.1,0.2-0.2,0.4-0.3,0.6c-2.5,4.7-5.6,9.3-6.2,14.6
						c0,0.3-0.1,0.6-0.1,0.8c0,0.1,0,0.3,0,0.4c-0.2,4.7,0.9,9.8-1.7,13.6c-2.9,4.1-8.7,4.6-13.2,6.7c-0.6,0.3-1.3,0.6-1.9,1
						c-0.1,0.1-0.3,0.2-0.4,0.3c-3,2-5.3,4.9-6.6,8.2c-0.9,2.2-1.2,4.5-1.2,6.9c0,1.6,0.5,3.2-0.6,4.4c-1.4,1.6-4.7,2-7.5,1.9
						c-0.1,0-0.3,0-0.4,0c-1.2-0.1-2.3-0.2-3.1-0.3c-3.9-0.7-7.8-3.2-8.8-7.1c-1.6-6.3,4.9-12.8,2.7-18.9c-0.8-2.1-2.6-3.8-3.6-5.8
						c-0.1-0.1-0.1-0.3-0.2-0.4c-0.2-0.5-0.4-1-0.5-1.6c-0.6-3.3,2-6.4,5.1-7.9c2.5-1.2,5.4-1.6,8.2-2.1c0.1,0,0.3-0.1,0.4-0.1
						c0.4-0.1,0.8-0.1,1.1-0.2c3.3-0.7,6.7-2.1,8.4-5c1.6-2.8,1.2-6.4,2.6-9.4c1.2-2.6,3.5-4.4,6.2-5.6h0c0.1-0.1,0.2-0.1,0.4-0.1
						c0.9-0.4,1.9-0.7,2.9-0.9c3.9-0.9,8-0.9,11.9-1.9c3.7-0.9,7.4-2.9,9.1-6.2c0.1-0.2,0.2-0.4,0.3-0.6c0,0.1,0,0.2,0.1,0.3
						C187.8,461.7,186.1,466.6,183.9,471z"/>
				</g>
				<g>
					<path class="st13" d="M183.1,466.2c2.6-2.8,3.9-6.2,3.4-9.1c0-0.1,0-0.2-0.1-0.3c-0.1,0.2-0.2,0.4-0.3,0.6
						c0.3,2.8-0.9,5.9-3.4,8.5c-1.3,1.4-2.9,2.6-4.5,3.8h0c-0.1,0.1-0.2,0.2-0.4,0.3c-0.2,0.1-0.3,0.2-0.5,0.4
						c-0.9,0.7-1.9,1.4-2.8,2.1c-1.8,1.4-3.4,3-4.9,4.7c-3.2-2.9-5.8-6.7-7.5-10.7c-0.1,0-0.2,0.1-0.4,0.1c1.7,4.1,4.3,7.9,7.6,10.9
						c-1.5,1.7-2.9,3.5-4.3,5.3c-0.1,0.1-0.2,0.2-0.2,0.3c-1.4,1.9-2.6,3.8-3.9,5.7c-1.5,2.3-3.1,4.7-4.6,7.2c-5.1-1.8-9.6-5-13-9.1
						c-0.1,0-0.3,0.1-0.4,0.1c3.4,4.2,8,7.6,13.2,9.4c-1.5,2.5-3,5.1-4.4,7.7c-0.1,0.1-0.1,0.2-0.2,0.4c-0.8,1.5-1.5,3.1-2.3,4.6
						c-1.1-0.1-2.2-0.5-3.2-1.2c-1.4-1-2.5-2.3-3.5-3.6c-1-1.2-2.2-2.7-3.6-3.6c-2.5-1.7-5.8-2-8-2.1c-0.2,0-0.5,0-0.7,0
						c0.1,0.1,0.1,0.3,0.2,0.4c0.2,0,0.3,0,0.5,0c2.2,0.1,5.3,0.4,7.8,2c1.4,1,2.6,2.3,3.6,3.6c1.1,1.3,2.2,2.7,3.6,3.7
						c1,0.7,2.2,1.2,3.3,1.3c-0.6,1.3-1.2,2.7-1.7,4c-2.4,6-3.8,11.9-4.3,17.6c0.1,0,0.3,0,0.4,0c0.5-5.6,1.9-11.4,4.3-17.4
						c0.5-1.4,1.1-2.8,1.7-4.1c0.1-0.1,0.1-0.3,0.2-0.4c0.7-1.5,1.4-2.9,2.1-4.4c2.3,1.9,4.9,3.6,7.7,4.9c0.1-0.1,0.3-0.2,0.4-0.3
						c-2.8-1.3-5.5-3-7.9-5c1.4-2.7,2.9-5.3,4.4-7.8c0.1-0.1,0.1-0.2,0.2-0.3c1.5-2.4,3-4.8,4.5-7.1c1.2-1.9,2.5-3.8,3.9-5.7
						c3.6,2.2,7.5,3.7,11.7,4.6c0-0.1,0-0.3,0-0.4c-4-0.8-7.9-2.4-11.4-4.5c1.3-1.8,2.7-3.6,4.2-5.3c0.1-0.1,0.2-0.2,0.3-0.3
						c1.5-1.7,3.1-3.2,4.9-4.6c0.9-0.7,1.8-1.4,2.7-2.1c0.2-0.2,0.4-0.3,0.7-0.5c1.6,0.7,3.5,1.1,5.3,1.2c0.1-0.1,0.1-0.3,0.2-0.4
						c-1.8,0-3.5-0.4-5.1-1.1C180.3,468.8,181.8,467.6,183.1,466.2z"/>
				</g>
			</g>
		</g>
	</g>
	<g>
		<defs>
			<rect id="SVGID_3_" x="326.4" y="303.7" width="111.7" height="86.3"/>
		</defs>
		<clipPath id="SVGID_4_">
			<use xlink:href="#SVGID_3_"  style="overflow:visible;"/>
		</clipPath>
		<g class="st15">
			<path class="st13" d="M343.1,368.9c5.1,0.2,9.9,2.2,14.7,4c4.8,1.7,9.9,3.2,14.9,2.1c4.2-0.9,8.1-3.6,12.4-3.4
				c5.5,0.2,9.8,5,15.1,6.1c4.2,0.9,8.5-0.5,12.8-0.7c6.2-0.2,12.4,2.2,16.7,6.7c4.3,4.4,6.6,10.7,6.2,16.8
				c-6.9-3.4-14.9-3.4-22.6-3.4c-22.6,0.1-45.2,0.3-67.8,0.4c-3.7,0-7.6,0-10.7-2.1c-2.8-1.9-4.3-5.1-4.9-8.4
				c-0.6-3.4-1.1-9.1,0.7-12.3C332.9,370.7,338.6,368.7,343.1,368.9z"/>
		</g>
		<g class="st15">
			<g>
				<g>
					<path class="st3" d="M378.2,377.7c-0.1,4.9-3.4,11.2-7.8,13.6c-1.9,1-4.2,1.3-6.3,1.5c-0.5,0.1-0.9,0.1-1.4,0.2
						c-0.3,0-0.5,0.1-0.8,0.1c-2.8,0.5-5.6,1.2-8.3,2.4c-1.4,0.6-2.7,1.4-4.2,1.7c-1.5,0.3-3.2,0-4.2-1.2c-1.3-1.6-0.7-4.1,0.4-5.9
						c1.1-1.8,2.6-3.4,3-5.5c0.7-3.3-1.7-6.4-3.8-9.1c-2.1-2.7-4.2-6-3.1-9.2c0.5-1.5,1.7-2.5,3-3.4c0.3-0.2,0.6-0.4,0.8-0.5
						c2-1.2,4.4-2.3,5.8-4.1c2.3-2.9,2-7.2,0.4-10.6c-1.5-3.4-4-6.3-5.7-9.6c-0.3-0.5-0.5-1-0.8-1.6c-0.1-0.3-0.2-0.5-0.3-0.8
						c-0.9-2.2-1.4-4.5-1.2-6.9c0.2-3.1,1.8-6.3,4.5-7.9c0,0,0.1-0.1,0.1-0.1c0.2-0.1,0.3-0.2,0.5-0.3c2.7-1.3,6.3-0.9,8.3,1.3
						c4,4.3,0.6,12,4,16.7c1,1.3,2.4,2.4,3.6,3.5c0.2,0.2,0.4,0.4,0.5,0.5c0.8,0.9,1.4,1.8,1.5,3c0.2,2.5-1.9,4.5-2.5,6.9
						c-0.8,3.1,0.9,6.3,3.2,8.6c2.2,2.3,5,4,7.1,6.5c1.5,1.8,2.5,3.9,3,6.1c0.1,0.3,0.1,0.6,0.2,0.9
						C378.2,375.7,378.2,376.7,378.2,377.7z"/>
				</g>
			</g>
			<g>
				<g>
					<g>
						<path class="st13" d="M362.7,393c-0.3,0-0.5,0.1-0.8,0.1c-1.8-3.8-2.8-7.9-3.3-12.1c0-0.3-0.1-0.5-0.1-0.8
							c-0.4-3.2-0.5-6.5-0.7-9.8c-0.1-1.2-0.1-2.4-0.2-3.6c-0.1-0.9-0.1-1.8-0.2-2.8c0-0.2,0-0.5-0.1-0.7
							c-0.5-5.7-1.2-11.4-2.2-17.1c0-0.2-0.1-0.5-0.1-0.7c-0.6-3-1.2-6-2-9c-0.1-0.2-0.1-0.5-0.2-0.7c-1.3-5-2.7-9.9-4.4-14.8
							c0,0,0.1-0.1,0.1-0.1c0.2-0.1,0.3-0.2,0.5-0.3c1.7,4.9,3.3,9.9,4.5,15c0.1,0.2,0.1,0.5,0.2,0.7c0.7,3,1.4,6.1,2,9.1
							c0,0.2,0.1,0.5,0.1,0.7c1,5.6,1.8,11.3,2.2,17c0,0.2,0,0.5,0.1,0.7c0.1,0.9,0.1,1.9,0.2,2.8c0.1,1.2,0.1,2.4,0.2,3.6
							c0.2,3.3,0.3,6.7,0.7,9.9h0c0,0.3,0.1,0.5,0.1,0.8C359.9,385.3,360.9,389.3,362.7,393z"/>
					</g>
				</g>
				<g>
					<g>
						<path class="st13" d="M353.8,336.4c-0.2,0-0.5,0.1-0.7,0.1c-1.3,0.2-2.8,0.3-4.3,0.3c-1.1,0-2.2-0.1-3.3-0.2
							c-0.1-0.3-0.2-0.5-0.3-0.8c2.7,0.3,5.4,0.3,7.8-0.1c0.3,0,0.5-0.1,0.7-0.1C353.7,335.9,353.7,336.2,353.8,336.4z"/>
					</g>
				</g>
				<g>
					<g>
						<path class="st13" d="M365.5,342.7c-2.7,2.2-6.4,3.5-9.6,3.6c-0.1,0-0.3,0-0.4,0c-0.1,0-0.2,0-0.3,0c0-0.2-0.1-0.5-0.1-0.7
							c0.2,0,0.5,0,0.8,0c3-0.1,6.7-1.3,9.2-3.4C365.2,342.3,365.4,342.5,365.5,342.7z"/>
					</g>
				</g>
				<g>
					<g>
						<path class="st13" d="M358.2,364c-0.2,0-0.5,0.1-0.7,0.1c-1.1,0.1-2.3,0.2-3.5,0.2c-3.1,0-6.2-0.4-9.2-1.3
							c0.3-0.2,0.6-0.4,0.8-0.5c3.8,1,7.8,1.3,11.7,0.9c0.2,0,0.5-0.1,0.7-0.1C358.1,363.5,358.2,363.8,358.2,364z"/>
					</g>
				</g>
				<g>
					<g>
						<path class="st13" d="M378,374.7c-1.2,1.4-2.7,2.6-4.2,3.6c-3.1,1.9-7.3,3-11.4,3c-1,0-2-0.1-3-0.2c-0.3,0-0.5-0.1-0.8-0.1
							c0-0.3-0.1-0.5-0.1-0.8c0.3,0.1,0.5,0.1,0.8,0.1h0c4.7,0.7,10.3-0.3,14.1-2.7c1.7-1.1,3.2-2.4,4.4-3.9
							C377.9,374.1,377.9,374.4,378,374.7z"/>
					</g>
				</g>
			</g>
		</g>
	</g>
	<g>
		<defs>
			<rect id="SVGID_5_" x="277" y="373.9" width="45.8" height="86.3"/>
		</defs>
		<clipPath id="SVGID_6_">
			<use xlink:href="#SVGID_5_"  style="overflow:visible;"/>
		</clipPath>
		<g class="st16">
			<g>
				<path class="st3" d="M291.4,451.7c3.4,2.4,7.1,5.1,7.9,9.2c-2.8,0.9-6,0-8.2-1.9c-5.5-4.8-9.4-13.8-9.4-13.8
					S288.4,449.7,291.4,451.7z"/>
			</g>
			<g>
				<path class="st3" d="M305.6,457.2c2.2-2.2,3.5-5.1,4.1-8.2c0.6-3,0.6-6.2,0.6-9.3c-1.4,3.4-3.4,6.5-6,9c-2,2-4.3,3.7-6,6
					c-0.8,1.1-4.1,6.7-0.9,6.4C300.3,461,303.6,459.1,305.6,457.2z"/>
			</g>
			<g>
				<path class="st3" d="M289.8,444.3c-1.6-1.7-2.6-3.8-3.4-5.4c-1.2-2.5-2-7.4-2-7.4s5,3.8,7.2,6.1c2.2,2.3,4.1,4.1,5,7.1
					c0.4,1.4,0.3,3.6,0.7,5c0.3,1.3,0,1.1-0.9,0.4C294.2,448.3,291.7,446.4,289.8,444.3z"/>
			</g>
			<g>
				<path class="st3" d="M299.4,440.3c0.8-1.4,1.8-2.6,3-3.8c1.2-1.2,2.6-2.3,4-3.3c0.7-0.5,1.5-1,2.2-1.4c0.3-0.2,2.1-1.1,2.1-1.1
					s-3.1,7.9-5.3,11.5c-1.6,2.5-4,5.3-6.4,7.1c-0.7,0.5-2.3,2.1-2.5,0.3c-0.2-1.4,0.7-3.5,1-4.9
					C297.9,443.2,298.6,441.7,299.4,440.3z"/>
			</g>
			<g>
				<path class="st3" d="M296.4,430.6c0,5.1,1.2,10.3,1.3,15.4c0.1,2.6,0.1,5.2,0.1,7.8c0,2.2,0.3,5.1-0.4,7.2
					c-1.6-0.9-1.1-3.7-1.1-5.2c0-2.8,0-5.6,0-8.4C296.3,441.8,296.4,436.2,296.4,430.6z"/>
			</g>
		</g>
	</g>
	<g>
		<defs>
			<rect id="SVGID_7_" x="445.3" y="242.5" width="124.1" height="77.5"/>
		</defs>
		<clipPath id="SVGID_8_">
			<use xlink:href="#SVGID_7_"  style="overflow:visible;"/>
		</clipPath>
		<g class="st17">
			<g>
				<path class="st3" d="M510.4,322.1c-0.2,0.2-0.4,0.4-0.6,0.6c-0.2,0.2-0.5,0.3-0.7,0.5c-1.2,0.6-2.6,0.7-4,0.4
					c-1.9-0.5-3.5-1.6-5-2.8c-4.5-3.5-8.7-7.5-12.5-11.7c-0.2-0.3-0.5-0.6-0.7-0.8c-2.6-3-5-6.1-7.2-9.3c-2.5-3.7-5.2-6.6-6.8-10.9
					c-0.5-1.4-0.9-2.8-1.2-4.2c-0.1-0.3-0.1-0.6-0.2-0.9c-0.7-3.1-1-6.2-0.9-9.3c0.1-5.6,1.3-11.1,3.7-16.1
					c8.5,6.5,16,14.4,21.9,23.3c0.2,0.3,0.4,0.6,0.6,0.9c5,7.6,9,16,11.7,24.7c0.1,0.4,0.2,0.8,0.3,1.2c0.8,2.8,1.5,5.7,2.1,8.6
					C511.4,318.1,511.7,320.4,510.4,322.1z"/>
			</g>
			<g>
				<g>
					<g>
						<path class="st13" d="M509.8,322.6c-0.2,0.2-0.5,0.3-0.7,0.5c-1.8-3.5-3.6-7.1-5.5-10.7c-0.1-0.3-0.3-0.5-0.4-0.8
							c-1.1-2.1-2.3-4.2-3.4-6.4c-0.1-0.2-0.3-0.5-0.4-0.7c-2.6-4.7-5.3-9.4-8-14c-0.1-0.3-0.3-0.5-0.5-0.8c-1.8-3-3.6-6-5.4-8.9
							c-0.2-0.2-0.3-0.5-0.5-0.7c-2.4-3.9-4.8-7.6-7.2-11.3l0.7-0.5c2.4,3.7,4.9,7.5,7.3,11.4c0.2,0.2,0.3,0.5,0.5,0.7
							c1.7,2.8,3.5,5.7,5.2,8.6c0.2,0.3,0.3,0.5,0.5,0.8c2.8,4.7,5.5,9.5,8.1,14.2c0.1,0.2,0.3,0.5,0.4,0.7c1.2,2.1,2.3,4.3,3.5,6.4
							c0.1,0.3,0.3,0.5,0.4,0.8C506.2,315.6,508.1,319.1,509.8,322.6z"/>
					</g>
				</g>
				<g>
					<g>
						<path class="st13" d="M486.3,280.5c-0.3,0.1-0.5,0.2-0.8,0.4c-4.3,1.9-9,2.9-13.6,2.9h-0.1c-0.1-0.3-0.1-0.6-0.2-0.9
							c4.6,0,9.2-0.9,13.5-2.7c0.3-0.1,0.5-0.2,0.8-0.4C486,280,486.1,280.2,486.3,280.5z"/>
					</g>
				</g>
				<g>
					<g>
						<path class="st13" d="M496.8,281.6c-1.1,3-2.8,5.8-4.9,8.2c-0.2,0.2-0.4,0.4-0.6,0.7c-0.1-0.3-0.3-0.5-0.5-0.8
							c0.2-0.2,0.4-0.4,0.6-0.7c2.1-2.4,3.8-5.3,4.8-8.3C496.4,281,496.6,281.3,496.8,281.6z"/>
					</g>
				</g>
				<g>
					<g>
						<path class="st13" d="M500.4,304.8c-0.2,0.2-0.5,0.3-0.7,0.5c-3.6,2.2-7.8,3.5-12.1,3.7c-0.2-0.3-0.5-0.6-0.7-0.8
							c4.4-0.1,8.7-1.4,12.4-3.7c0.2-0.1,0.5-0.3,0.7-0.5C500.2,304.3,500.3,304.5,500.4,304.8z"/>
					</g>
				</g>
				<g>
					<g>
						<path class="st13" d="M508.9,307.5c-1.1,1.8-2.7,3.4-4.5,4.5c-0.2,0.1-0.5,0.3-0.8,0.4c-0.1-0.3-0.3-0.5-0.4-0.8
							c0.3-0.1,0.5-0.3,0.8-0.4c1.9-1.1,3.6-2.8,4.6-4.9C508.6,306.7,508.7,307.1,508.9,307.5z"/>
					</g>
				</g>
			</g>
		</g>
		<g class="st17">
			<g>
				<path class="st13" d="M506.1,320.1c-1.8,0.3-3.4,0.9-4.9,1.6c-0.3,0.1-0.5,0.2-0.8,0.3c-2.5,1-4.8,1.9-7.7,1.1
					c-5.9-1.7-11.5-4.1-16.8-7.2c-0.3-0.2-0.6-0.3-0.9-0.5c-10.3-6.1-19.2-14.7-25.7-24.8c8.4,0,16.7,1.7,24.5,4.7
					c0.3,0.1,0.7,0.3,1,0.4c5.1,2,9.9,4.6,14.3,7.7c0.3,0.2,0.6,0.5,1,0.7C496.2,308.5,501.7,313.9,506.1,320.1z"/>
			</g>
			<g>
				<path class="st3" d="M490.8,314.1c0.4-3.4,0.1-6.8-0.7-10c-0.3-0.2-0.6-0.5-1-0.7c1,3.3,1.3,6.8,1,10.2
					c-1.6-1.1-3.1-2.1-4.7-3.1c-0.2-0.1-0.4-0.3-0.6-0.4c-2.5-1.6-5.1-3.2-7.7-4.8c-0.1-3.3-0.9-6.6-2.3-9.7c-0.3-0.1-0.7-0.3-1-0.4
					c1.5,3,2.3,6.3,2.5,9.6c-4.6-2.7-9.3-5.3-14-7.7l-0.3,0.7c4.9,2.5,9.7,5.1,14.4,7.9c0.3,0.1,0.5,0.3,0.8,0.4
					c2.4,1.4,4.8,2.9,7.1,4.4c-2.6,2.3-5.8,3.9-9.2,4.8c0.3,0.2,0.6,0.4,0.9,0.5c3.3-0.9,6.4-2.6,9-4.9c1.7,1.1,3.5,2.3,5.2,3.4
					c0.2,0.2,0.5,0.3,0.7,0.5c3.3,2.3,6.5,4.6,9.7,7c0.3-0.1,0.5-0.2,0.8-0.3C497.8,319.1,494.3,316.5,490.8,314.1z"/>
			</g>
		</g>
		<g class="st17">
			<g>
				<path class="st13" d="M527.2,320.7c-0.1,0.4-0.1,0.8-0.2,1.2c0,0-0.1,0-0.1-0.1c-3.2-1.6-6.3-3.6-9.1-5.9
					c-0.2-0.2-0.5-0.4-0.7-0.6c-6.2-5.2-11.3-11.8-14.3-18.9c-0.6-1.5-1.2-3.1-1.6-4.7c-0.1-0.3-0.2-0.6-0.2-0.9
					c-2.4-9.3-1.8-19.3,1.3-28.4c10.5,5.7,18.7,15.3,22.8,26.5c0.4,1,0.7,1.9,1,2.9c0.1,0.3,0.2,0.6,0.3,0.9
					C528.8,301.9,528.9,311.5,527.2,320.7z"/>
			</g>
			<g>
				<path class="st3" d="M523,312l-0.2-0.3l-0.2-0.5v0v0l-6-12.2l0,0c3.6-1.3,7-3.4,9.7-6.1c-0.1-0.3-0.2-0.6-0.3-0.9
					c-2.8,2.8-6.1,4.9-9.8,6.3l0,0l-3.1-6.2c-0.1-0.1-0.1-0.3-0.2-0.4l-0.4-0.8c-3.2-6.5-6.5-13.8-6.6-21.4l-0.8,0
					c0,7.7,3.4,15,6.5,21.5c-3.5,0.6-7.2,0.6-10.8,0c0.1,0.3,0.2,0.6,0.2,0.9c0.7,0.1,1.3,0.2,2,0.3c3,0.3,6,0.2,8.9-0.3
					c0.1,0.2,0.2,0.4,0.3,0.6l3,6.1l0.4,0.8l6.2,12.6l0,0l0,0c-1.4,1.5-3.1,2.7-4.9,3.6c0.2,0.2,0.5,0.4,0.7,0.6
					c1.7-0.8,3.3-2,4.6-3.3l0,0l0,0l4.5,9.2l0.4-1.2L523,312z"/>
			</g>
		</g>
		<g class="st17">
			<g>
				<path class="st3" d="M558.8,285.3c-4.8,9.3-9.8,18.9-17.5,26.1c-1.1,1-2.2,2-3.4,2.9c-0.3,0.2-0.6,0.4-0.9,0.7
					c-8.9,6.5-20.1,9.9-31.1,9.1c-0.4,2-1.9,2.7-3.9,2.8c-0.3-5.4,1.1-10.8,3.6-15.6c0.2-0.3,0.3-0.6,0.5-0.9
					c1.2-2.2,2.6-4.2,4.2-6.1c5.3-6.3,12.4-10.9,19.9-14.2c1.6-0.7,3.2-1.4,4.8-2c0.3-0.1,0.6-0.2,1-0.3
					C543.4,285.1,551.3,283.8,558.8,285.3z"/>
			</g>
			<g>
				<g>
					<g>
						<path class="st13" d="M555.7,288.6c-6.9,2.4-13.6,5.5-19.9,9.3c-0.3,0.2-0.5,0.3-0.8,0.5c-4.1,2.4-8,5.2-11.7,8.1
							c-0.2,0.2-0.5,0.4-0.7,0.6c-3.6,2.9-7,6-10.2,9.2c-0.2,0.2-0.4,0.4-0.6,0.7c-2.7,2.8-5.3,5.8-7.7,8.9l-0.7-0.5
							c2.4-3.1,4.9-6,7.6-8.9c0.2-0.2,0.4-0.4,0.6-0.7c3.2-3.3,6.7-6.5,10.3-9.4c0.2-0.2,0.5-0.4,0.7-0.6c3.9-3.1,8-5.9,12.3-8.5
							c0.3-0.2,0.6-0.3,0.8-0.5c6.3-3.7,12.9-6.8,19.7-9.1L555.7,288.6z"/>
					</g>
				</g>
				<g>
					<g>
						<path class="st13" d="M535.7,296.9c0,0.3,0.1,0.6,0.1,1c-0.3,0.2-0.5,0.3-0.8,0.5c0-0.3-0.1-0.6-0.1-1
							c-0.4-3.1-0.3-6.3,0.3-9.4c0.3-0.1,0.6-0.2,1-0.3C535.5,290.7,535.4,293.8,535.7,296.9z"/>
					</g>
				</g>
				<g>
					<g>
						<path class="st13" d="M538,314.2c-0.3,0.2-0.6,0.4-0.9,0.7c-5.3-1.6-10.3-4.3-14.6-7.9c-0.2-0.2-0.5-0.4-0.7-0.6
							c0.2-0.2,0.5-0.4,0.7-0.6c0.2,0.2,0.5,0.4,0.7,0.6C527.6,310,532.6,312.7,538,314.2z"/>
					</g>
				</g>
				<g>
					<g>
						<path class="st13" d="M512.3,316.2c-0.2,0.2-0.4,0.4-0.6,0.7c-0.3-0.1-0.5-0.3-0.8-0.5c-2-1.2-3.8-3-5.3-5.2
							c0.2-0.3,0.3-0.6,0.5-0.9c1.5,2.3,3.4,4.2,5.4,5.4C511.8,315.9,512.1,316.1,512.3,316.2z"/>
					</g>
				</g>
			</g>
		</g>
	</g>
</g>
</svg>
